{
	"asset":{
		"generator":"Khronos glTF Blender I/O v4.3.47",
		"version":"2.0"
	},
	"scene":0,
	"scenes":[
		{
			"name":"Scene",
			"nodes":[
				0,
				1,
				2,
				3,
				4,
				5,
				6
			]
		}
	],
	"nodes":[
		{
			"mesh":0,
			"name":"frame",
			"scale":[
				7,
				7.891650199890137,
				7
			]
		},
		{
			"mesh":1,
			"name":"left",
			"scale":[
				7,
				7.891650199890137,
				7
			]
		},
		{
			"mesh":2,
			"name":"forward",
			"scale":[
				7,
				7.891650199890137,
				7
			]
		},
		{
			"mesh":3,
			"name":"right",
			"scale":[
				7,
				7.891650199890137,
				7
			]
		},
		{
			"mesh":4,
			"name":"back",
			"scale":[
				7,
				7.891650199890137,
				7
			]
		},
		{
			"mesh":5,
			"name":"top",
			"scale":[
				7,
				7.891650199890137,
				7
			]
		},
		{
			"mesh":6,
			"name":"bottom",
			"scale":[
				7,
				7.891650199890137,
				7
			]
		}
	],
	"materials":[
		{
			"doubleSided":true,
			"name":"\u041c\u0430\u0442\u0435\u0440\u0438\u0430\u043b",
			"pbrMetallicRoughness":{
				"baseColorFactor":[
					0.800000011920929,
					0.800000011920929,
					0.800000011920929,
					1
				],
				"roughnessFactor":0.3863636255264282
			}
		}
	],
	"meshes":[
		{
			"name":"\u041a\u0443\u0431.001",
			"primitives":[
				{
					"attributes":{
						"POSITION":0,
						"NORMAL":1,
						"TEXCOORD_0":2,
						"TANGENT":3
					},
					"indices":4,
					"material":0
				}
			]
		},
		{
			"name":"\u041a\u0443\u0431.002",
			"primitives":[
				{
					"attributes":{
						"POSITION":5,
						"NORMAL":6,
						"TEXCOORD_0":7,
						"TANGENT":8
					},
					"indices":9,
					"material":0
				}
			]
		},
		{
			"name":"\u041a\u0443\u0431.003",
			"primitives":[
				{
					"attributes":{
						"POSITION":10,
						"NORMAL":11,
						"TEXCOORD_0":12,
						"TANGENT":13
					},
					"indices":14,
					"material":0
				}
			]
		},
		{
			"name":"\u041a\u0443\u0431.004",
			"primitives":[
				{
					"attributes":{
						"POSITION":15,
						"NORMAL":16,
						"TEXCOORD_0":17,
						"TANGENT":18
					},
					"indices":14,
					"material":0
				}
			]
		},
		{
			"name":"\u041a\u0443\u0431.005",
			"primitives":[
				{
					"attributes":{
						"POSITION":19,
						"NORMAL":20,
						"TEXCOORD_0":21,
						"TANGENT":22
					},
					"indices":9,
					"material":0
				}
			]
		},
		{
			"name":"\u041a\u0443\u0431.006",
			"primitives":[
				{
					"attributes":{
						"POSITION":23,
						"NORMAL":24,
						"TEXCOORD_0":25,
						"TANGENT":26
					},
					"indices":27,
					"material":0
				}
			]
		},
		{
			"name":"\u041a\u0443\u0431.007",
			"primitives":[
				{
					"attributes":{
						"POSITION":28,
						"NORMAL":29,
						"TEXCOORD_0":30,
						"TANGENT":31
					},
					"indices":32,
					"material":0
				}
			]
		}
	],
	"accessors":[
		{
			"bufferView":0,
			"componentType":5126,
			"count":72,
			"max":[
				0.12700000405311584,
				0.06949999928474426,
				0.12700000405311584
			],
			"min":[
				-0.12700000405311584,
				-0.06949999928474426,
				-0.12700000405311584
			],
			"type":"VEC3"
		},
		{
			"bufferView":1,
			"componentType":5126,
			"count":72,
			"type":"VEC3"
		},
		{
			"bufferView":2,
			"componentType":5126,
			"count":72,
			"type":"VEC2"
		},
		{
			"bufferView":3,
			"componentType":5126,
			"count":72,
			"type":"VEC4"
		},
		{
			"bufferView":4,
			"componentType":5123,
			"count":96,
			"type":"SCALAR"
		},
		{
			"bufferView":5,
			"componentType":5126,
			"count":4,
			"max":[
				-0.12700000405311584,
				0.06549999862909317,
				0.12300000339746475
			],
			"min":[
				-0.12700000405311584,
				-0.06549999862909317,
				-0.12300000339746475
			],
			"type":"VEC3"
		},
		{
			"bufferView":6,
			"componentType":5126,
			"count":4,
			"type":"VEC3"
		},
		{
			"bufferView":7,
			"componentType":5126,
			"count":4,
			"type":"VEC2"
		},
		{
			"bufferView":8,
			"componentType":5126,
			"count":4,
			"type":"VEC4"
		},
		{
			"bufferView":9,
			"componentType":5123,
			"count":6,
			"type":"SCALAR"
		},
		{
			"bufferView":10,
			"componentType":5126,
			"count":4,
			"max":[
				0.12300000339746475,
				0.06549999862909317,
				0.12700000405311584
			],
			"min":[
				-0.12300000339746475,
				-0.06549999862909317,
				0.12700000405311584
			],
			"type":"VEC3"
		},
		{
			"bufferView":11,
			"componentType":5126,
			"count":4,
			"type":"VEC3"
		},
		{
			"bufferView":12,
			"componentType":5126,
			"count":4,
			"type":"VEC2"
		},
		{
			"bufferView":13,
			"componentType":5126,
			"count":4,
			"type":"VEC4"
		},
		{
			"bufferView":14,
			"componentType":5123,
			"count":6,
			"type":"SCALAR"
		},
		{
			"bufferView":15,
			"componentType":5126,
			"count":4,
			"max":[
				0.12700000405311584,
				0.06549999862909317,
				0.12300000339746475
			],
			"min":[
				0.12700000405311584,
				-0.06549999862909317,
				-0.12300000339746475
			],
			"type":"VEC3"
		},
		{
			"bufferView":16,
			"componentType":5126,
			"count":4,
			"type":"VEC3"
		},
		{
			"bufferView":17,
			"componentType":5126,
			"count":4,
			"type":"VEC2"
		},
		{
			"bufferView":18,
			"componentType":5126,
			"count":4,
			"type":"VEC4"
		},
		{
			"bufferView":19,
			"componentType":5126,
			"count":4,
			"max":[
				0.12300000339746475,
				0.06549999862909317,
				-0.12700000405311584
			],
			"min":[
				-0.12300000339746475,
				-0.06549999862909317,
				-0.12700000405311584
			],
			"type":"VEC3"
		},
		{
			"bufferView":20,
			"componentType":5126,
			"count":4,
			"type":"VEC3"
		},
		{
			"bufferView":21,
			"componentType":5126,
			"count":4,
			"type":"VEC2"
		},
		{
			"bufferView":22,
			"componentType":5126,
			"count":4,
			"type":"VEC4"
		},
		{
			"bufferView":23,
			"componentType":5126,
			"count":4,
			"max":[
				0.12300000339746475,
				0.06949999928474426,
				0.12300000339746475
			],
			"min":[
				-0.12300000339746475,
				0.06949999928474426,
				-0.12300000339746475
			],
			"type":"VEC3"
		},
		{
			"bufferView":24,
			"componentType":5126,
			"count":4,
			"type":"VEC3"
		},
		{
			"bufferView":25,
			"componentType":5126,
			"count":4,
			"type":"VEC2"
		},
		{
			"bufferView":26,
			"componentType":5126,
			"count":4,
			"type":"VEC4"
		},
		{
			"bufferView":27,
			"componentType":5123,
			"count":6,
			"type":"SCALAR"
		},
		{
			"bufferView":28,
			"componentType":5126,
			"count":4,
			"max":[
				0.12300000339746475,
				-0.06949999928474426,
				0.12300000339746475
			],
			"min":[
				-0.12300000339746475,
				-0.06949999928474426,
				-0.12300000339746475
			],
			"type":"VEC3"
		},
		{
			"bufferView":29,
			"componentType":5126,
			"count":4,
			"type":"VEC3"
		},
		{
			"bufferView":30,
			"componentType":5126,
			"count":4,
			"type":"VEC2"
		},
		{
			"bufferView":31,
			"componentType":5126,
			"count":4,
			"type":"VEC4"
		},
		{
			"bufferView":32,
			"componentType":5123,
			"count":6,
			"type":"SCALAR"
		}
	],
	"bufferViews":[
		{
			"buffer":0,
			"byteLength":864,
			"byteOffset":0,
			"target":34962
		},
		{
			"buffer":0,
			"byteLength":864,
			"byteOffset":864,
			"target":34962
		},
		{
			"buffer":0,
			"byteLength":576,
			"byteOffset":1728,
			"target":34962
		},
		{
			"buffer":0,
			"byteLength":1152,
			"byteOffset":2304,
			"target":34962
		},
		{
			"buffer":0,
			"byteLength":192,
			"byteOffset":3456,
			"target":34963
		},
		{
			"buffer":0,
			"byteLength":48,
			"byteOffset":3648,
			"target":34962
		},
		{
			"buffer":0,
			"byteLength":48,
			"byteOffset":3696,
			"target":34962
		},
		{
			"buffer":0,
			"byteLength":32,
			"byteOffset":3744,
			"target":34962
		},
		{
			"buffer":0,
			"byteLength":64,
			"byteOffset":3776,
			"target":34962
		},
		{
			"buffer":0,
			"byteLength":12,
			"byteOffset":3840,
			"target":34963
		},
		{
			"buffer":0,
			"byteLength":48,
			"byteOffset":3852,
			"target":34962
		},
		{
			"buffer":0,
			"byteLength":48,
			"byteOffset":3900,
			"target":34962
		},
		{
			"buffer":0,
			"byteLength":32,
			"byteOffset":3948,
			"target":34962
		},
		{
			"buffer":0,
			"byteLength":64,
			"byteOffset":3980,
			"target":34962
		},
		{
			"buffer":0,
			"byteLength":12,
			"byteOffset":4044,
			"target":34963
		},
		{
			"buffer":0,
			"byteLength":48,
			"byteOffset":4056,
			"target":34962
		},
		{
			"buffer":0,
			"byteLength":48,
			"byteOffset":4104,
			"target":34962
		},
		{
			"buffer":0,
			"byteLength":32,
			"byteOffset":4152,
			"target":34962
		},
		{
			"buffer":0,
			"byteLength":64,
			"byteOffset":4184,
			"target":34962
		},
		{
			"buffer":0,
			"byteLength":48,
			"byteOffset":4248,
			"target":34962
		},
		{
			"buffer":0,
			"byteLength":48,
			"byteOffset":4296,
			"target":34962
		},
		{
			"buffer":0,
			"byteLength":32,
			"byteOffset":4344,
			"target":34962
		},
		{
			"buffer":0,
			"byteLength":64,
			"byteOffset":4376,
			"target":34962
		},
		{
			"buffer":0,
			"byteLength":48,
			"byteOffset":4440,
			"target":34962
		},
		{
			"buffer":0,
			"byteLength":48,
			"byteOffset":4488,
			"target":34962
		},
		{
			"buffer":0,
			"byteLength":32,
			"byteOffset":4536,
			"target":34962
		},
		{
			"buffer":0,
			"byteLength":64,
			"byteOffset":4568,
			"target":34962
		},
		{
			"buffer":0,
			"byteLength":12,
			"byteOffset":4632,
			"target":34963
		},
		{
			"buffer":0,
			"byteLength":48,
			"byteOffset":4644,
			"target":34962
		},
		{
			"buffer":0,
			"byteLength":48,
			"byteOffset":4692,
			"target":34962
		},
		{
			"buffer":0,
			"byteLength":32,
			"byteOffset":4740,
			"target":34962
		},
		{
			"buffer":0,
			"byteLength":64,
			"byteOffset":4772,
			"target":34962
		},
		{
			"buffer":0,
			"byteLength":12,
			"byteOffset":4836,
			"target":34963
		}
	],
	"buffers":[
		{
			"byteLength":4848,
			"uri":"cube_bevel_0.04.bin"
		}
	]
}
