<svg width="164" height="174" viewBox="0 0 164 174" fill="none" xmlns="http://www.w3.org/2000/svg">
<g opacity="0.05">
<g filter="url(#filter0_ddddd_733_1181)">
<path d="M36.6857 122.215L27.3367 49.1328C27.0655 47.0132 28.564 45.0751 30.6836 44.804L55.7816 41.5933C56.9472 41.4442 58.1175 41.8329 58.9622 42.6498L66.5508 49.988L120.425 43.0961C122.545 42.8249 124.483 44.3234 124.754 46.443L132.873 109.91L36.6857 122.215Z" fill="#BEBEBE"/>
</g>
<g filter="url(#filter1_ddddd_733_1181)">
<g filter="url(#filter2_bdiii_733_1181)">
<path d="M46.2085 108.783L35.0144 21.278C34.7432 19.1584 36.2417 17.2204 38.3613 16.9492L100.903 8.9486C103.022 8.67745 104.96 10.1759 105.231 12.2955L116.425 99.8001L46.2085 108.783Z" fill="url(#paint0_linear_733_1181)" shape-rendering="crispEdges"/>
</g>
<g filter="url(#filter3_bdiii_733_1181)">
<path d="M76.7651 114.645C74.6455 114.916 72.7074 113.418 72.4363 111.298L61.7331 27.6315C61.462 25.512 62.9605 23.5739 65.08 23.3027L109.827 17.5785C111.946 17.3074 113.884 18.8058 114.155 20.9254L124.858 104.592C125.13 106.712 123.631 108.65 121.512 108.921L76.7651 114.645Z" fill="url(#paint1_linear_733_1181)" shape-rendering="crispEdges"/>
</g>
<g filter="url(#filter4_bdiii_733_1181)">
<path d="M44.8159 128.504L33.6218 40.9992C33.3507 38.8796 34.8491 36.9416 36.9687 36.6704L101.434 28.4237C103.553 28.1525 105.491 29.651 105.763 31.7706L116.957 119.275L44.8159 128.504Z" fill="url(#paint2_linear_733_1181)" shape-rendering="crispEdges"/>
</g>
</g>
<g filter="url(#filter5_ddddiii_733_1181)">
<mask id="mask0_733_1181" style="mask-type:alpha" maskUnits="userSpaceOnUse" x="23" y="52" width="118" height="91">
<path d="M37.7506 142.11C35.6311 142.381 33.693 140.883 33.4218 138.763L23.417 60.5548C23.1469 58.4434 24.6331 56.5103 26.743 56.2288L55.996 52.3248C57.2586 52.1563 58.5231 52.62 59.3775 53.5647L67.1223 62.1285L127.73 54.3752C129.85 54.104 131.788 55.6025 132.059 57.7221L140.671 125.043C140.942 127.163 139.444 129.101 137.324 129.372L37.7506 142.11Z" fill="white"/>
</mask>
<g mask="url(#mask0_733_1181)">
<g clip-path="url(#clip0_733_1181)">
<rect width="368.976" height="368.832" transform="translate(-197.688 -70.6133) rotate(-7.29)" fill="#EBEBEB"/>
<path d="M-136.3 -4.92966C-145.467 -12.0146 -160.203 -12.5726 -183.672 -3.07165C-160.131 -14.6829 -145.569 -13.956 -136.3 -4.92966ZM198.083 115.346L198.396 117.798C178.779 117.669 159.724 110.481 140.073 104.737C178.345 119.63 190.116 128.727 199.7 127.99L205.616 174.238C142.91 206.397 45.3093 174.028 82.5597 150.744C98.6725 140.669 179.195 158.366 142.763 122.325C149.283 131.263 151.536 141.236 132.988 140.677C139.015 138.88 145.927 135.601 139.556 128.208C133.184 120.814 141.494 141.446 102.386 135.308C71.4607 130.469 31.1898 159.563 55.9367 127.569C0.0961268 180.154 130.049 217.815 198.458 188.59C190.235 191.939 176.765 194.395 161.3 195.396C177.236 193.113 192.273 187.623 206.27 179.724L208.151 194.435C159.154 236.324 110.314 250.78 15.205 227.571C99.5208 266.135 6.33982 254.944 4.24609 254.626C11.6642 255.68 47.9475 256.169 43.7814 250.35C39.6153 244.531 13.2358 250.006 -8.27919 244.599C0.0746178 242.651 15.7513 246.362 -4.91507 232.686C35.1249 257.956 2.87453 229.002 -18.864 216.88C-21.9486 214.929 -24.9074 212.816 -27.7885 210.546C-24.9208 212.329 -22.6951 212.533 -21.4675 210.666C-27.9868 202.118 -33.765 194.013 -38.9046 186.316C-37.5536 187.706 -36.1483 189.139 -34.6529 190.511C-129.18 45.7575 50.7376 -39.1664 52.3214 -93.6544C51.9187 -91.4529 51.1312 -89.2023 49.9047 -86.9443C51.426 -93.3932 52.1045 -98.0242 50.8173 -102.355L62.8408 -103.893C63.1612 -103.299 63.5359 -102.663 63.8143 -102.014C64.3535 -102.767 64.7964 -103.508 65.1974 -104.194L81.4531 -106.274C82.6881 -97.0016 77.3634 -85.1311 59.9278 -68.5841C73.4933 -79.8475 84.444 -92.8286 85.4868 -106.839L93.3742 -107.848C76.4792 -85.1645 52.669 -51.58 37.2895 -43.798C-13.0706 -11.801 -40.0059 45.8812 -41.3402 99.2623C-37.4137 75.6973 -27.3211 50.6594 -12.3738 26.1243C-33.9674 65.1909 -44.0868 108.36 -36.1519 143.258C-33.2722 153.542 -29.1974 163.233 -23.9163 172.036C-7.27222 196.683 24.081 212.51 74.3371 211.798C9.85054 186.479 -5.0151 103.899 71.4387 84.4441C95.6842 77.1893 119.776 81.3389 143.593 86.4031C113.411 82.7883 72.0457 75.8157 51.1271 98.3784C76.3736 92.0705 103.188 91.523 128.918 96.6358C100.852 94.6559 61.91 85.6142 43.3931 113.196C48.6673 108.954 55.5013 101.239 70.8913 99.2704C48.8407 106.489 51.083 112.554 72.4568 108.452C35.5878 115.611 2.89324 148.524 43.3915 182.726C83.8897 216.928 120.093 212.59 108.676 222.308C88.3684 239.711 13.3095 216.575 -12.933 187.586C-13.7528 186.909 -14.5245 186.226 -15.3443 185.549C19.26 226.026 100.677 247.664 143.735 219.338C161.947 207.333 -13.1131 187.707 40.0088 126.479C54.3652 109.935 96.6693 104.377 120.493 120.19C105.39 112.936 54.7325 114.335 71.9306 126.5C84.8261 135.6 136.887 135.243 127.144 122.124C121.806 116.699 115.355 112.883 108.341 110.409C108.444 110.444 108.54 110.432 108.642 110.468C48.7832 86.1697 114.303 96.2577 175.578 112.899C183.627 115.827 191.134 116.43 198.083 115.346ZM-10.8656 189.227C-10.8656 189.227 13.0586 210.793 48.9771 218.365C77.205 224.282 100.802 219.602 100.817 218.574C100.82 217.449 72.1329 221.315 36.266 210.707C6.85148 202.01 -10.8656 189.227 -10.8656 189.227ZM29.8562 -43.8244C38.6386 -51.5931 47.4271 -59.3137 56.2094 -67.0823C48.5898 -62.8339 34.9722 -50.8309 29.8562 -43.8244ZM-36.8512 151.166C-37.8509 146.407 -42.6626 131.338 -42.9175 126.289C-52.637 77.0584 -36.9712 19.5474 8.65518 -21.1766C-48.2796 25.1473 -62.663 83.1294 -36.8512 151.166ZM-52.4719 73.7636C-47.8065 60.5604 -42.9323 46.6954 -37.9805 32.6738C-43.6088 41.4071 -53.489 69.2518 -52.4719 73.7636ZM33.7725 226.369C2.98845 216.137 -26.1999 198.127 -43.6654 170.116C-34.5446 194.797 8.95784 228.028 33.7725 226.369ZM144.372 117.331C149.066 122.691 151.85 124.583 158.889 134.139C183.913 168.121 65.7021 137.802 81.7874 166.869C91.5801 184.575 144.69 187.065 160.08 185.096C116.773 182.818 87.2598 175.258 88.6191 162.575C90.7425 143.638 231.661 190.597 144.372 117.331ZM-72.8649 133.296C-74.2543 124.728 -77.4274 106.42 -76.935 97.6592C-78.7426 104.927 -75.2318 123.582 -72.8649 133.296ZM-27.7946 210.498C-29.8559 208.905 -31.8271 207.251 -33.7626 205.496C-31.5733 207.707 -29.5478 209.403 -27.7946 210.498ZM-33.7564 205.544C-47.0069 192.14 -64.8422 167.353 -71.4615 140.446C-67.0472 168.075 -54.6838 186.771 -33.7564 205.544ZM6.47017 -89.841C9.43956 -86.1165 11.1115 -81.8351 12.0856 -77.6599C11.6271 -82.3897 9.91324 -86.6168 6.47017 -89.841ZM-0.408706 -95.8505L-5.26618 -95.2291C-0.103419 -94.2283 3.70263 -92.3698 6.42207 -89.8349C4.67175 -92.054 2.45281 -94.1155 -0.408706 -95.8505ZM-43.8648 180.403C-57.7923 159.415 -60.5037 151.211 -65.8243 134.839C-62.6529 154.662 -59.9756 161.453 -43.8648 180.403ZM-53.4234 224.135C-33.5881 241.631 9.24858 247.878 -15.8266 227.632C-7.54487 242.697 -38.4196 234.431 -53.4234 224.135ZM-25.1444 -79.0538C-25.9815 -83.6863 -27.6115 -88.0219 -30.1788 -92.0422L-40.6151 -90.7071C-37.3168 -89.7609 -34.1617 -88.4055 -31.1313 -86.4967C-36.1682 -87.6602 -41.199 -88.7757 -46.4345 -89.9627L-51.5805 -89.3044C-39.2781 -87.8976 -29.0874 -84.6571 -25.1444 -79.0538ZM168.304 -117.433L170.721 -98.5398C137 -107.663 111.289 -93.1357 97.572 -78.0905C83.8547 -63.0453 62.6285 -57.7891 47.1476 -45.45C63.2532 -60.1656 87.075 -68.4412 99.789 -85.2147C112.503 -101.988 106.695 -103.444 108.86 -109.829L168.304 -117.433ZM144.852 -108.179C134.531 -106.712 126.198 -101.541 118.144 -95.7227C126.845 -100.305 135.794 -104.479 144.852 -108.179ZM158.328 190.89C146.886 191.621 134.365 191.561 122.105 190.491C134.59 192.559 146.666 192.577 158.328 190.89ZM125.131 195.039C117.941 193.858 110.671 192.052 103.207 189.488C27.2193 159.094 87.9688 141.061 118.481 142.289C99.6848 137.119 46.0879 134.643 65.7951 170.625C62.0019 166.957 54.4704 161.96 54.4987 150.718C48.2625 178.39 92.3052 192.153 125.131 195.039ZM39.6515 -37.9436C15.7881 -18.9131 2.70996 -1.16457 -12.3319 26.0701C2.98056 0.950733 15.802 -16.1298 39.6515 -37.9436ZM195.979 98.9042L195.463 94.8659C188.294 94.6104 166.393 91.1577 159.149 89.9345C169.302 92.4958 193.583 97.745 195.979 98.9042ZM-22.4838 -93.0266L-5.79521 -95.1615C29.2311 -81.9543 -10.0798 -47.2663 -14.6628 -26.1581C-2.99985 -33.9533 13.7062 -59.6418 12.0917 -77.6118C16.622 -57.8649 5.54252 -39.3948 41.3215 -81.0579C47.6628 -86.5109 48.0081 -94.1287 44.3666 -101.578L46.8194 -101.892C56.443 -61.0534 -24.1618 -29.3405 -29.9225 -7.88621C-10.0607 -15.02 -42.1246 4.8641 -36.6627 7.43912C-16.6609 -9.68043 -2.39986 -32.3199 18.1148 -48.8698C-29.1771 -5.88051 -77.4306 67.0375 -67.1831 130.713C-92.5416 52.8462 -3.13144 -46.445 -12.2526 -77.6247C-16.7338 -92.7849 -19.6525 -89.2355 -22.4838 -93.0266ZM-23.7844 -25.6264C-26.6661 -25.9907 -31.239 -20.4707 -30.6772 -15.3144C-28.0481 -19.2176 -25.9163 -22.422 -23.7844 -25.6264ZM-2.97616 -76.5637C-3.84739 -78.4068 -4.64591 -80.0636 -5.65638 -82.2309C-7.49021 -77.843 -6.67938 -76.09 -2.97616 -76.5637ZM2.47627 -75.2091C0.719807 -77.4763 0.481184 -83.1626 -2.08291 -81.8085C-0.748103 -79.7805 -3.88159 -75.6173 2.47627 -75.2091ZM-16.7869 -92.4361C-10.0985 -77.2162 -9.82563 -93.4243 1.95144 -84.2791C0.245396 -89.9731 -8.56511 -94.2696 -16.7869 -92.4361ZM-84.8626 207.635C-69.2228 230.163 -59.0873 243.671 -20.6421 247.304C-44.7116 240.269 -64.0461 229.745 -84.8626 207.635ZM-160.463 220.385L-159.941 224.471C-135.296 245.554 -109.078 270.149 -82.619 277.904C-77.5245 280.282 -72.4003 282.509 -67.2527 284.538L-60.4234 283.665C-78.3436 277.699 -94.7897 269.884 -108.98 260.217C-125.433 251.963 -142.842 235.476 -160.463 220.385ZM-189.701 -8.16388L-190.168 -11.8176C-82.4661 -71.672 -107.222 63.4215 -108.398 96.2605C-109.574 129.099 -89.1234 189.613 -80.9487 173.273C-72.7739 156.934 -110.552 140.56 -59.7855 1.30883C-83.9176 46.5147 -92.924 121.692 -100.45 122.851C-107.976 124.009 -107.122 98.5893 -104.024 88.4205C-97.0755 184.767 -53.0016 -102.706 -187.328 -24.0054C-188.402 -23.2328 -189.765 -22.4233 -191.41 -21.5287L-192.905 -33.2109C-153.747 -60.3057 -130.988 -76.5076 -96.1199 -80.9681C-61.2519 -85.4286 -32.657 -81.6108 -24.5055 -72.1483C-23.2587 -7.76144 -145.644 106.205 -38.9697 212.172C-16.7908 231.176 -25.7922 233.793 -48.502 220.574C-71.2119 207.355 -97.9324 173.1 -112.327 129.354C-108.289 155.956 -101.209 181.875 -86.8981 202.423C-101.206 187.249 -108.232 173.978 -115.501 142.757C-122.77 111.536 -118.928 64.3816 -122.529 28.5869C-119.558 39.5915 -118.714 46.5685 -117.886 56.4793C-105.611 -21.804 -149.937 -29.3751 -189.701 -8.16388ZM-143.897 -58.5852C-151.353 -56.1166 -165.803 -49.0888 -170.888 -43.7476C-161.893 -48.7095 -152.892 -53.6233 -143.897 -58.5852ZM-44.6818 -72.0592C-36.7511 -66.2331 -37.5181 -54.6524 -40.2687 -44.8214C-39.8381 -45.6583 -39.3655 -46.5494 -38.8448 -47.4466C-33.5095 -57.7061 -36.9098 -67.0923 -44.6818 -72.0592ZM-44.4002 -66.0363C-42.8145 -58.2259 -42.7945 -51.1923 -44.3288 -42.9339C-39.0303 -53.4818 -39.0535 -61.6876 -44.4002 -66.0363ZM-91.36 -73.5637C-83.7131 -74.5419 -76.1143 -75.514 -68.4674 -76.4922C-75.04 -76.2866 -84.8511 -75.0315 -91.36 -73.5637ZM-45.8671 -63.7476C-55.6995 -80.6175 -85.6643 -73.3639 -101.642 -68.7303C-83.7574 -71.0671 -60.1555 -78.3862 -45.8671 -63.7476ZM-46.1166 -43.5358C-49.9331 -32.1026 -59.8166 -24.5351 -64.7057 -13.8441C-58.1179 -15.0777 -45.8848 -35.9919 -46.1166 -43.5358ZM172.704 11.3409C161.763 2.23526 161.042 0.421863 165.231 -6.95464C155.951 -0.783594 165.575 8.34394 172.704 11.3409ZM137.084 -97.0706C148.071 -99.0626 159.659 -97.5155 170.998 -96.3764L170.943 -96.8091C159.58 -99.6554 148.302 -102.61 137.084 -97.0706ZM193.384 78.6165L192.646 72.8475C180.005 70.7023 167.701 68.9048 155.548 69.0426C167.365 71.2443 180.789 77.9801 193.384 78.6165ZM-157.917 240.288C-136.232 256.961 -114.438 273.717 -91.7805 287.676L-81.9694 286.421C-108.757 268.837 -134.217 246.344 -159.209 230.192L-157.917 240.288ZM-157.474 243.749L-154.572 266.44C-139.841 271.543 -123.426 279.118 -105.247 289.399L-97.7923 288.445C-117.659 279.113 -137.738 260.476 -157.474 243.749ZM185.248 15.0133L181.65 -13.1105C178.799 -10.938 175.702 -8.78277 172.359 -6.64487C170.412 2.59468 176.382 10.2841 185.248 15.0133ZM158.203 -6.10447C147.789 0.749217 156.624 5.23809 162.616 10.4326C156.904 2.07515 151.737 1.80773 158.203 -6.10447ZM121.601 -68.3138C145.442 -78.3509 157.779 -73.235 174.743 -67.0987L174.596 -68.2525C157.223 -74.1412 147.958 -81.6045 121.601 -68.3138ZM179.362 -30.9944L179.356 -31.0425C179.176 -30.9217 178.996 -30.801 178.816 -30.6802C178.996 -30.801 179.176 -30.9217 179.362 -30.9944ZM211.932 248.823C212.916 248.111 213.906 247.447 214.891 246.735L214.552 244.091C212.627 245.852 210.641 247.523 208.661 249.242L211.932 248.823ZM-197.064 -70.6933C-197.202 -70.6267 -197.34 -70.5602 -197.431 -70.4998C-197.292 -70.5664 -197.154 -70.6329 -197.016 -70.6994L-197.064 -70.6933ZM-197.665 -70.421C-197.569 -70.4333 -197.527 -70.4875 -197.431 -70.4998C-197.527 -70.4875 -197.569 -70.4333 -197.665 -70.421ZM-181.722 -72.6559C-187.385 -69.5373 -192.483 -66.9795 -196.964 -64.9404L-194.983 -49.4603C-175.553 -60.3501 -155.386 -70.0638 -135.937 -78.513L-181.722 -72.6559ZM-3.57652 276.392L4.50325 275.359C-7.3758 272.676 -39.7977 259.576 -43.8678 257.947C-28.2862 266.263 -14.19 272.522 -3.57652 276.392ZM-186.816 14.3833L-187.862 6.21055C-87.6021 -33.4892 -162.875 167.141 -72.3364 241.36C-151.746 204.464 -133.277 100.469 -149.182 33.0715C-154.423 10.8258 -169.724 10.4377 -186.816 14.3833ZM-159.759 8.08806C-131.788 31.8723 -140.704 90.1811 -134.04 130.421C-137.893 101.451 -117.711 11.9928 -159.759 8.08806ZM135.559 258.594C160.897 248.414 184.323 234.374 203.691 216.505C205.837 213.788 207.94 211.124 209.96 208.569L208.791 199.435C177.579 224.829 144.806 247.198 111.368 261.688L135.559 258.594ZM-69.2445 243.749C-62.9164 248.51 -55.5622 252.504 -46.9597 255.557L-69.2445 243.749ZM128.213 81.1879C97.0385 64.8495 173.189 93.4643 195.248 93.1833L194.171 84.7702C158.199 79.453 65.0395 63.0795 128.213 81.1879ZM-125.036 201.194C-117.136 215.184 -107.932 237.46 -67.3546 252.791C-99.7668 232.507 -111.835 218.415 -125.036 201.194ZM-157.734 150.017C-153.708 170.024 -141.146 182.244 -129.768 192.858C-163.499 123.294 -128.176 11.9633 -186.318 18.2774L-185.494 24.7194C-180.915 23.4496 -180.96 18.1294 -171.503 21.3661C-147.408 30.8901 -150.69 69.8129 -153.715 88.9628C-157.186 71.7677 -150.951 45.6109 -168.918 35.8405C-185.447 32.7268 -163.42 55.5125 -165.508 63.6463C-170.197 53.7408 -176.156 47.6625 -182.96 44.5263L-181.423 56.5451C-161.469 71.143 -159.681 118.75 -156.472 138.861C-165.525 125.41 -170.479 109.235 -176.632 93.9955L-166.902 170.05C-153.868 187.878 -142.428 207.377 -133.841 222.158C-144.111 212.185 -154.261 199.705 -164.67 187.501L-161.663 211.01C-136.556 229.591 -110.204 254.852 -83.1394 270.397C-96.6574 264.455 -109.74 257.334 -122.242 249.014C-105.019 261.372 -86.4271 271.062 -67.0176 278.352C-64.2842 279.468 -61.5691 280.44 -58.8245 281.261C-57.2413 281.792 -55.7124 282.28 -54.1292 282.811L-6.94923 276.775C-110.074 266.563 -157.718 176.888 -157.734 150.017ZM202.65 250.011C206.624 247.45 210.531 244.752 214.276 241.927L210.998 216.303C189.877 233.468 169.101 246.827 148.785 256.902L202.65 250.011ZM158.327 103.379C173.372 109.028 186.097 113.361 197.621 111.74L196.053 99.4811C194.845 99.5868 191.271 99.1645 184.526 98.024C212.194 118.28 176.58 110.034 158.327 103.379ZM-150.888 295.237L-120.3 291.324C-131.349 286.728 -142.409 282.035 -153.09 278.027L-150.888 295.237ZM-9.78323 72.3581C-9.78938 72.31 -9.74743 72.2558 -9.75358 72.2077C-9.74743 72.2558 -9.74128 72.3039 -9.78323 72.3581ZM-9.35368 71.1305C-9.50302 71.4916 -9.60426 71.8466 -9.75358 72.2077C-9.60426 71.8466 -9.50302 71.4916 -9.35368 71.1305ZM-9.20436 70.7694C-9.24016 70.8716 -9.28211 70.9259 -9.31791 71.0282C-9.28211 70.9259 -9.24016 70.8716 -9.20436 70.7694ZM-9.31791 71.0282C-9.31176 71.0763 -9.35983 71.0824 -9.35368 71.1305C-9.35983 71.0824 -9.31176 71.0763 -9.31791 71.0282ZM-5.25798 73.3428C-30.9052 105.941 -8.45989 174.408 -2.16558 150.246C10.1439 103.181 47.4386 57.3178 103.775 73.5646C74.3317 61.2068 126.049 64.6563 157.416 66.0674C122.664 62.6463 86.2563 56.603 54.2076 71.257C64.029 65.1144 69.9266 62.3078 81.6073 60.7646C53.8852 61.477 32.0683 70.5223 11.0184 91.2939C-10.0316 112.066 16.0214 48.6328 10.843 46.3636C6.0259 44.2435 -4.71059 58.5165 -9.20436 70.7694C-3.33702 55.1159 7.81728 56.7184 -5.25798 73.3428ZM-10.1289 73.4773C-10.0338 73.0742 -9.88445 72.7131 -9.78323 72.3581C-9.88445 72.7131 -10.0276 73.1223 -10.1289 73.4773ZM91.707 59.4726C121.281 58.7188 139.976 64.2428 168.517 63.8166C139.084 61.4741 119.577 55.7119 91.707 59.4726ZM158.327 103.379C157.508 103.093 156.732 102.752 155.913 102.466C156.642 102.813 157.46 103.099 158.327 103.379ZM-149.66 -69.6237C-145.396 -71.8304 -141.132 -74.0372 -136.869 -76.2439C-142.332 -77.304 -145.927 -72.5443 -149.66 -69.6237ZM-117.758 -80.8386L-125.693 -79.8235C-156.38 -62.1677 -216.873 -29.9005 -117.758 -80.8386ZM54.389 245.768C77.8098 253.082 55.6401 258.605 43.3332 259.837C62.1159 260.317 82.6802 250.651 54.389 245.768ZM78.7573 247.879C94.0072 255.896 75.2774 259.269 66.6473 261.35C76.2823 259.482 103.331 254.654 78.7573 247.879ZM104.991 243.937C137.486 253.021 105.468 259.511 88.6193 264.598L94.9196 263.792C114.548 259.034 143.396 248.405 104.991 243.937ZM191.767 65.9728L191.533 64.146C186.429 64.7501 181.192 65.078 175.828 65.1779C181.253 65.5588 186.57 65.8558 191.767 65.9728ZM-10.1266 180.484C-2.52138 190.261 10.5476 196.895 15.9609 197.18C8.79726 194.676 -1.8055 188.215 -10.1266 180.484ZM48.8209 205.681C-20.1448 151.081 30.6832 86.8238 71.1213 74.3215C42.869 78.9129 -10.7513 129.748 9.02731 169.727C-1.21383 169.914 -14.8904 154.708 -20.1864 138.528C-14.8068 163.004 5.88951 187.23 48.8209 205.681ZM9.31757 187.281C-12.134 172.434 -23.9441 147.365 -26.2543 130.07C-26.016 148.362 -18.6321 171.311 9.31757 187.281ZM192.154 69.0016L191.988 67.7035C188.434 67.8161 184.82 67.8387 181.139 67.7233C185.097 68.0964 188.767 68.5065 192.154 69.0016ZM171.484 -92.5785L172.708 -83.0116C159.83 -85.8594 158.517 -90.7731 128.07 -81.9431C97.6221 -73.113 16.6224 -17.3585 2.18533 19.5711C28.8691 -22.883 146.569 -100.874 175.789 -58.926L178.642 -36.6192C149.581 -11.9886 54.837 8.92663 67.4353 25.6381C72.7545 30.9188 87.6148 35.1255 99.9125 24.2686C72.7229 21.8834 117.894 -1.38756 124.72 -5.33915C69.1828 28.9815 119.139 17.9001 145.599 17.6423C172.06 17.3845 175.052 22.8162 186.594 25.5418L186.748 26.7436C162.316 23.3705 157.57 16.453 112.577 23.9189C163.95 20.4741 142.475 39.8343 187.824 35.1568L190.58 56.6944C142.06 63.341 126.317 51.0873 90.1508 55.7139C53.9842 60.3405 32.711 65.9936 19.2702 76.7036C-4.22973 96.6649 25.9145 38.0835 28.3563 29.6601C44.6085 -22.5022 -26.9956 70.0159 -26.2543 130.07C-32.9707 79.4776 3.76432 10.1342 55.3366 0.605083C71.5655 -2.44824 -17.2987 90.0302 30.3314 68.79C-10.3749 71.5543 115.605 -17.3658 74.8596 -11.4693C5.31932 -1.40064 -19.596 56.0232 -32.9363 106.494C-49.4899 30.9701 92.8426 -95.9552 171.484 -92.5785ZM101.924 27.3827C106.705 29.6051 115.786 27.2219 122.887 26.9486C115.856 26.6266 108.73 24.8018 101.924 27.3827ZM65.1896 56.6106C49.7666 57.5575 18.4925 71.7704 40.0683 45.5566C13.4482 74.3701 48.26 60.6819 65.1896 56.6106Z" fill="#CCCCCC"/>
<path d="M-136.3 -4.92966C-145.467 -12.0146 -160.203 -12.5726 -183.672 -3.07165C-160.131 -14.6829 -145.569 -13.956 -136.3 -4.92966ZM198.083 115.346L198.396 117.798C178.779 117.669 159.724 110.481 140.073 104.737C178.345 119.63 190.116 128.727 199.7 127.99L205.616 174.238C142.91 206.397 45.3093 174.028 82.5597 150.744C98.6725 140.669 179.195 158.366 142.763 122.325C149.283 131.263 151.536 141.236 132.988 140.677C139.015 138.88 145.927 135.601 139.556 128.208C133.184 120.814 141.494 141.446 102.386 135.308C71.4607 130.469 31.1898 159.563 55.9367 127.569C0.0961268 180.154 130.049 217.815 198.458 188.59C190.235 191.939 176.765 194.395 161.3 195.396C177.236 193.113 192.273 187.623 206.27 179.724L208.151 194.435C159.154 236.324 110.314 250.78 15.205 227.571C99.5208 266.135 6.33982 254.944 4.24609 254.626C11.6642 255.68 47.9475 256.169 43.7814 250.35C39.6153 244.531 13.2358 250.006 -8.27919 244.599C0.0746178 242.651 15.7513 246.362 -4.91507 232.686C35.1249 257.956 2.87453 229.002 -18.864 216.88C-21.9486 214.929 -24.9074 212.816 -27.7885 210.546C-24.9208 212.329 -22.6951 212.533 -21.4675 210.666C-27.9868 202.118 -33.765 194.013 -38.9046 186.316C-37.5536 187.706 -36.1483 189.139 -34.6529 190.511C-129.18 45.7575 50.7376 -39.1664 52.3214 -93.6544C51.9187 -91.4529 51.1312 -89.2023 49.9047 -86.9443C51.426 -93.3932 52.1045 -98.0242 50.8173 -102.355L62.8408 -103.893C63.1612 -103.299 63.5359 -102.663 63.8143 -102.014C64.3535 -102.767 64.7964 -103.508 65.1974 -104.194L81.4531 -106.274C82.6881 -97.0016 77.3634 -85.1311 59.9278 -68.5841C73.4933 -79.8475 84.444 -92.8286 85.4868 -106.839L93.3742 -107.848C76.4792 -85.1645 52.669 -51.58 37.2895 -43.798C-13.0706 -11.801 -40.0059 45.8812 -41.3402 99.2623C-37.4137 75.6973 -27.3211 50.6594 -12.3738 26.1243C-33.9674 65.1909 -44.0868 108.36 -36.1519 143.258C-33.2722 153.542 -29.1974 163.233 -23.9163 172.036C-7.27222 196.683 24.081 212.51 74.3371 211.798C9.85054 186.479 -5.0151 103.899 71.4387 84.4441C95.6842 77.1893 119.776 81.3389 143.593 86.4031C113.411 82.7883 72.0457 75.8157 51.1271 98.3784C76.3736 92.0705 103.188 91.523 128.918 96.6358C100.852 94.6559 61.91 85.6142 43.3931 113.196C48.6673 108.954 55.5013 101.239 70.8913 99.2704C48.8407 106.489 51.083 112.554 72.4568 108.452C35.5878 115.611 2.89324 148.524 43.3915 182.726C83.8897 216.928 120.093 212.59 108.676 222.308C88.3684 239.711 13.3095 216.575 -12.933 187.586C-13.7528 186.909 -14.5245 186.226 -15.3443 185.549C19.26 226.026 100.677 247.664 143.735 219.338C161.947 207.333 -13.1131 187.707 40.0088 126.479C54.3652 109.935 96.6693 104.377 120.493 120.19C105.39 112.936 54.7325 114.335 71.9306 126.5C84.8261 135.6 136.887 135.243 127.144 122.124C121.806 116.699 115.355 112.883 108.341 110.409C108.444 110.444 108.54 110.432 108.642 110.468C48.7832 86.1697 114.303 96.2577 175.578 112.899C183.627 115.827 191.134 116.43 198.083 115.346ZM-10.8656 189.227C-10.8656 189.227 13.0586 210.793 48.9771 218.365C77.205 224.282 100.802 219.602 100.817 218.574C100.82 217.449 72.1329 221.315 36.266 210.707C6.85148 202.01 -10.8656 189.227 -10.8656 189.227ZM29.8562 -43.8244C38.6386 -51.5931 47.4271 -59.3137 56.2094 -67.0823C48.5898 -62.8339 34.9722 -50.8309 29.8562 -43.8244ZM-36.8512 151.166C-37.8509 146.407 -42.6626 131.338 -42.9175 126.289C-52.637 77.0584 -36.9712 19.5474 8.65518 -21.1766C-48.2796 25.1473 -62.663 83.1294 -36.8512 151.166ZM-52.4719 73.7636C-47.8065 60.5604 -42.9323 46.6954 -37.9805 32.6738C-43.6088 41.4071 -53.489 69.2518 -52.4719 73.7636ZM33.7725 226.369C2.98845 216.137 -26.1999 198.127 -43.6654 170.116C-34.5446 194.797 8.95784 228.028 33.7725 226.369ZM144.372 117.331C149.066 122.691 151.85 124.583 158.889 134.139C183.913 168.121 65.7021 137.802 81.7874 166.869C91.5801 184.575 144.69 187.065 160.08 185.096C116.773 182.818 87.2598 175.258 88.6191 162.575C90.7425 143.638 231.661 190.597 144.372 117.331ZM-72.8649 133.296C-74.2543 124.728 -77.4274 106.42 -76.935 97.6592C-78.7426 104.927 -75.2318 123.582 -72.8649 133.296ZM-27.7946 210.498C-29.8559 208.905 -31.8271 207.251 -33.7626 205.496C-31.5733 207.707 -29.5478 209.403 -27.7946 210.498ZM-33.7564 205.544C-47.0069 192.14 -64.8422 167.353 -71.4615 140.446C-67.0472 168.075 -54.6838 186.771 -33.7564 205.544ZM6.47017 -89.841C9.43956 -86.1165 11.1115 -81.8351 12.0856 -77.6599C11.6271 -82.3897 9.91324 -86.6168 6.47017 -89.841ZM-0.408706 -95.8505L-5.26618 -95.2291C-0.103419 -94.2283 3.70263 -92.3698 6.42207 -89.8349C4.67175 -92.054 2.45281 -94.1155 -0.408706 -95.8505ZM-43.8648 180.403C-57.7923 159.415 -60.5037 151.211 -65.8243 134.839C-62.6529 154.662 -59.9756 161.453 -43.8648 180.403ZM-53.4234 224.135C-33.5881 241.631 9.24858 247.878 -15.8266 227.632C-7.54487 242.697 -38.4196 234.431 -53.4234 224.135ZM-25.1444 -79.0538C-25.9815 -83.6863 -27.6115 -88.0219 -30.1788 -92.0422L-40.6151 -90.7071C-37.3168 -89.7609 -34.1617 -88.4055 -31.1313 -86.4967C-36.1682 -87.6602 -41.199 -88.7757 -46.4345 -89.9627L-51.5805 -89.3044C-39.2781 -87.8976 -29.0874 -84.6571 -25.1444 -79.0538ZM168.304 -117.433L170.721 -98.5398C137 -107.663 111.289 -93.1357 97.572 -78.0905C83.8547 -63.0453 62.6285 -57.7891 47.1476 -45.45C63.2532 -60.1656 87.075 -68.4412 99.789 -85.2147C112.503 -101.988 106.695 -103.444 108.86 -109.829L168.304 -117.433ZM144.852 -108.179C134.531 -106.712 126.198 -101.541 118.144 -95.7227C126.845 -100.305 135.794 -104.479 144.852 -108.179ZM158.328 190.89C146.886 191.621 134.365 191.561 122.105 190.491C134.59 192.559 146.666 192.577 158.328 190.89ZM125.131 195.039C117.941 193.858 110.671 192.052 103.207 189.488C27.2193 159.094 87.9688 141.061 118.481 142.289C99.6848 137.119 46.0879 134.643 65.7951 170.625C62.0019 166.957 54.4704 161.96 54.4987 150.718C48.2625 178.39 92.3052 192.153 125.131 195.039ZM39.6515 -37.9436C15.7881 -18.9131 2.70996 -1.16457 -12.3319 26.0701C2.98056 0.950733 15.802 -16.1298 39.6515 -37.9436ZM195.979 98.9042L195.463 94.8659C188.294 94.6104 166.393 91.1577 159.149 89.9345C169.302 92.4958 193.583 97.745 195.979 98.9042ZM-22.4838 -93.0266L-5.79521 -95.1615C29.2311 -81.9543 -10.0798 -47.2663 -14.6628 -26.1581C-2.99985 -33.9533 13.7062 -59.6418 12.0917 -77.6118C16.622 -57.8649 5.54252 -39.3948 41.3215 -81.0579C47.6628 -86.5109 48.0081 -94.1287 44.3666 -101.578L46.8194 -101.892C56.443 -61.0534 -24.1618 -29.3405 -29.9225 -7.88621C-10.0607 -15.02 -42.1246 4.8641 -36.6627 7.43912C-16.6609 -9.68043 -2.39986 -32.3199 18.1148 -48.8698C-29.1771 -5.88051 -77.4306 67.0375 -67.1831 130.713C-92.5416 52.8462 -3.13144 -46.445 -12.2526 -77.6247C-16.7338 -92.7849 -19.6525 -89.2355 -22.4838 -93.0266ZM-23.7844 -25.6264C-26.6661 -25.9907 -31.239 -20.4707 -30.6772 -15.3144C-28.0481 -19.2176 -25.9163 -22.422 -23.7844 -25.6264ZM-2.97616 -76.5637C-3.84739 -78.4068 -4.64591 -80.0636 -5.65638 -82.2309C-7.49021 -77.843 -6.67938 -76.09 -2.97616 -76.5637ZM2.47627 -75.2091C0.719807 -77.4763 0.481184 -83.1626 -2.08291 -81.8085C-0.748103 -79.7805 -3.88159 -75.6173 2.47627 -75.2091ZM-16.7869 -92.4361C-10.0985 -77.2162 -9.82563 -93.4243 1.95144 -84.2791C0.245396 -89.9731 -8.56511 -94.2696 -16.7869 -92.4361ZM-84.8626 207.635C-69.2228 230.163 -59.0873 243.671 -20.6421 247.304C-44.7116 240.269 -64.0461 229.745 -84.8626 207.635ZM-160.463 220.385L-159.941 224.471C-135.296 245.554 -109.078 270.149 -82.619 277.904C-77.5245 280.282 -72.4003 282.509 -67.2527 284.538L-60.4234 283.665C-78.3436 277.699 -94.7897 269.884 -108.98 260.217C-125.433 251.963 -142.842 235.476 -160.463 220.385ZM-189.701 -8.16388L-190.168 -11.8176C-82.4661 -71.672 -107.222 63.4215 -108.398 96.2605C-109.574 129.099 -89.1234 189.613 -80.9487 173.273C-72.7739 156.934 -110.552 140.56 -59.7855 1.30883C-83.9176 46.5147 -92.924 121.692 -100.45 122.851C-107.976 124.009 -107.122 98.5893 -104.024 88.4205C-97.0755 184.767 -53.0016 -102.706 -187.328 -24.0054C-188.402 -23.2328 -189.765 -22.4233 -191.41 -21.5287L-192.905 -33.2109C-153.747 -60.3057 -130.988 -76.5076 -96.1199 -80.9681C-61.2519 -85.4286 -32.657 -81.6108 -24.5055 -72.1483C-23.2587 -7.76144 -145.644 106.205 -38.9697 212.172C-16.7908 231.176 -25.7922 233.793 -48.502 220.574C-71.2119 207.355 -97.9324 173.1 -112.327 129.354C-108.289 155.956 -101.209 181.875 -86.8981 202.423C-101.206 187.249 -108.232 173.978 -115.501 142.757C-122.77 111.536 -118.928 64.3816 -122.529 28.5869C-119.558 39.5915 -118.714 46.5685 -117.886 56.4793C-105.611 -21.804 -149.937 -29.3751 -189.701 -8.16388ZM-143.897 -58.5852C-151.353 -56.1166 -165.803 -49.0888 -170.888 -43.7476C-161.893 -48.7095 -152.892 -53.6233 -143.897 -58.5852ZM-44.6818 -72.0592C-36.7511 -66.2331 -37.5181 -54.6524 -40.2687 -44.8214C-39.8381 -45.6583 -39.3655 -46.5494 -38.8448 -47.4466C-33.5095 -57.7061 -36.9098 -67.0923 -44.6818 -72.0592ZM-44.4002 -66.0363C-42.8145 -58.2259 -42.7945 -51.1923 -44.3288 -42.9339C-39.0303 -53.4818 -39.0535 -61.6876 -44.4002 -66.0363ZM-91.36 -73.5637C-83.7131 -74.5419 -76.1143 -75.514 -68.4674 -76.4922C-75.04 -76.2866 -84.8511 -75.0315 -91.36 -73.5637ZM-45.8671 -63.7476C-55.6995 -80.6175 -85.6643 -73.3639 -101.642 -68.7303C-83.7574 -71.0671 -60.1555 -78.3862 -45.8671 -63.7476ZM-46.1166 -43.5358C-49.9331 -32.1026 -59.8166 -24.5351 -64.7057 -13.8441C-58.1179 -15.0777 -45.8848 -35.9919 -46.1166 -43.5358ZM172.704 11.3409C161.763 2.23526 161.042 0.421863 165.231 -6.95464C155.951 -0.783594 165.575 8.34394 172.704 11.3409ZM137.084 -97.0706C148.071 -99.0626 159.659 -97.5155 170.998 -96.3764L170.943 -96.8091C159.58 -99.6554 148.302 -102.61 137.084 -97.0706ZM193.384 78.6165L192.646 72.8475C180.005 70.7023 167.701 68.9048 155.548 69.0426C167.365 71.2443 180.789 77.9801 193.384 78.6165ZM-157.917 240.288C-136.232 256.961 -114.438 273.717 -91.7805 287.676L-81.9694 286.421C-108.757 268.837 -134.217 246.344 -159.209 230.192L-157.917 240.288ZM-157.474 243.749L-154.572 266.44C-139.841 271.543 -123.426 279.118 -105.247 289.399L-97.7923 288.445C-117.659 279.113 -137.738 260.476 -157.474 243.749ZM185.248 15.0133L181.65 -13.1105C178.799 -10.938 175.702 -8.78277 172.359 -6.64487C170.412 2.59468 176.382 10.2841 185.248 15.0133ZM158.203 -6.10447C147.789 0.749217 156.624 5.23809 162.616 10.4326C156.904 2.07515 151.737 1.80773 158.203 -6.10447ZM121.601 -68.3138C145.442 -78.3509 157.779 -73.235 174.743 -67.0987L174.596 -68.2525C157.223 -74.1412 147.958 -81.6045 121.601 -68.3138ZM179.362 -30.9944L179.356 -31.0425C179.176 -30.9217 178.996 -30.801 178.816 -30.6802C178.996 -30.801 179.176 -30.9217 179.362 -30.9944ZM211.932 248.823C212.916 248.111 213.906 247.447 214.891 246.735L214.552 244.091C212.627 245.852 210.641 247.523 208.661 249.242L211.932 248.823ZM-197.064 -70.6933C-197.202 -70.6267 -197.34 -70.5602 -197.431 -70.4998C-197.292 -70.5664 -197.154 -70.6329 -197.016 -70.6994L-197.064 -70.6933ZM-197.665 -70.421C-197.569 -70.4333 -197.527 -70.4875 -197.431 -70.4998C-197.527 -70.4875 -197.569 -70.4333 -197.665 -70.421ZM-181.722 -72.6559C-187.385 -69.5373 -192.483 -66.9795 -196.964 -64.9404L-194.983 -49.4603C-175.553 -60.3501 -155.386 -70.0638 -135.937 -78.513L-181.722 -72.6559ZM-3.57652 276.392L4.50325 275.359C-7.3758 272.676 -39.7977 259.576 -43.8678 257.947C-28.2862 266.263 -14.19 272.522 -3.57652 276.392ZM-186.816 14.3833L-187.862 6.21055C-87.6021 -33.4892 -162.875 167.141 -72.3364 241.36C-151.746 204.464 -133.277 100.469 -149.182 33.0715C-154.423 10.8258 -169.724 10.4377 -186.816 14.3833ZM-159.759 8.08806C-131.788 31.8723 -140.704 90.1811 -134.04 130.421C-137.893 101.451 -117.711 11.9928 -159.759 8.08806ZM135.559 258.594C160.897 248.414 184.323 234.374 203.691 216.505C205.837 213.788 207.94 211.124 209.96 208.569L208.791 199.435C177.579 224.829 144.806 247.198 111.368 261.688L135.559 258.594ZM-69.2445 243.749C-62.9164 248.51 -55.5622 252.504 -46.9597 255.557L-69.2445 243.749ZM128.213 81.1879C97.0385 64.8495 173.189 93.4643 195.248 93.1833L194.171 84.7702C158.199 79.453 65.0395 63.0795 128.213 81.1879ZM-125.036 201.194C-117.136 215.184 -107.932 237.46 -67.3546 252.791C-99.7668 232.507 -111.835 218.415 -125.036 201.194ZM-157.734 150.017C-153.708 170.024 -141.146 182.244 -129.768 192.858C-163.499 123.294 -128.176 11.9633 -186.318 18.2774L-185.494 24.7194C-180.915 23.4496 -180.96 18.1294 -171.503 21.3661C-147.408 30.8901 -150.69 69.8129 -153.715 88.9628C-157.186 71.7677 -150.951 45.6109 -168.918 35.8405C-185.447 32.7268 -163.42 55.5125 -165.508 63.6463C-170.197 53.7408 -176.156 47.6625 -182.96 44.5263L-181.423 56.5451C-161.469 71.143 -159.681 118.75 -156.472 138.861C-165.525 125.41 -170.479 109.235 -176.632 93.9955L-166.902 170.05C-153.868 187.878 -142.428 207.377 -133.841 222.158C-144.111 212.185 -154.261 199.705 -164.67 187.501L-161.663 211.01C-136.556 229.591 -110.204 254.852 -83.1394 270.397C-96.6574 264.455 -109.74 257.334 -122.242 249.014C-105.019 261.372 -86.4271 271.062 -67.0176 278.352C-64.2842 279.468 -61.5691 280.44 -58.8245 281.261C-57.2413 281.792 -55.7124 282.28 -54.1292 282.811L-6.94923 276.775C-110.074 266.563 -157.718 176.888 -157.734 150.017ZM202.65 250.011C206.624 247.45 210.531 244.752 214.276 241.927L210.998 216.303C189.877 233.468 169.101 246.827 148.785 256.902L202.65 250.011ZM158.327 103.379C173.372 109.028 186.097 113.361 197.621 111.74L196.053 99.4811C194.845 99.5868 191.271 99.1645 184.526 98.024C212.194 118.28 176.58 110.034 158.327 103.379ZM-150.888 295.237L-120.3 291.324C-131.349 286.728 -142.409 282.035 -153.09 278.027L-150.888 295.237ZM-9.78323 72.3581C-9.78938 72.31 -9.74743 72.2558 -9.75358 72.2077C-9.74743 72.2558 -9.74128 72.3039 -9.78323 72.3581ZM-9.35368 71.1305C-9.50302 71.4916 -9.60426 71.8466 -9.75358 72.2077C-9.60426 71.8466 -9.50302 71.4916 -9.35368 71.1305ZM-9.20436 70.7694C-9.24016 70.8716 -9.28211 70.9259 -9.31791 71.0282C-9.28211 70.9259 -9.24016 70.8716 -9.20436 70.7694ZM-9.31791 71.0282C-9.31176 71.0763 -9.35983 71.0824 -9.35368 71.1305C-9.35983 71.0824 -9.31176 71.0763 -9.31791 71.0282ZM-5.25798 73.3428C-30.9052 105.941 -8.45989 174.408 -2.16558 150.246C10.1439 103.181 47.4386 57.3178 103.775 73.5646C74.3317 61.2068 126.049 64.6563 157.416 66.0674C122.664 62.6463 86.2563 56.603 54.2076 71.257C64.029 65.1144 69.9266 62.3078 81.6073 60.7646C53.8852 61.477 32.0683 70.5223 11.0184 91.2939C-10.0316 112.066 16.0214 48.6328 10.843 46.3636C6.0259 44.2435 -4.71059 58.5165 -9.20436 70.7694C-3.33702 55.1159 7.81728 56.7184 -5.25798 73.3428ZM-10.1289 73.4773C-10.0338 73.0742 -9.88445 72.7131 -9.78323 72.3581C-9.88445 72.7131 -10.0276 73.1223 -10.1289 73.4773ZM91.707 59.4726C121.281 58.7188 139.976 64.2428 168.517 63.8166C139.084 61.4741 119.577 55.7119 91.707 59.4726ZM158.327 103.379C157.508 103.093 156.732 102.752 155.913 102.466C156.642 102.813 157.46 103.099 158.327 103.379ZM-149.66 -69.6237C-145.396 -71.8304 -141.132 -74.0372 -136.869 -76.2439C-142.332 -77.304 -145.927 -72.5443 -149.66 -69.6237ZM-117.758 -80.8386L-125.693 -79.8235C-156.38 -62.1677 -216.873 -29.9005 -117.758 -80.8386ZM54.389 245.768C77.8098 253.082 55.6401 258.605 43.3332 259.837C62.1159 260.317 82.6802 250.651 54.389 245.768ZM78.7573 247.879C94.0072 255.896 75.2774 259.269 66.6473 261.35C76.2823 259.482 103.331 254.654 78.7573 247.879ZM104.991 243.937C137.486 253.021 105.468 259.511 88.6193 264.598L94.9196 263.792C114.548 259.034 143.396 248.405 104.991 243.937ZM191.767 65.9728L191.533 64.146C186.429 64.7501 181.192 65.078 175.828 65.1779C181.253 65.5588 186.57 65.8558 191.767 65.9728ZM-10.1266 180.484C-2.52138 190.261 10.5476 196.895 15.9609 197.18C8.79726 194.676 -1.8055 188.215 -10.1266 180.484ZM48.8209 205.681C-20.1448 151.081 30.6832 86.8238 71.1213 74.3215C42.869 78.9129 -10.7513 129.748 9.02731 169.727C-1.21383 169.914 -14.8904 154.708 -20.1864 138.528C-14.8068 163.004 5.88951 187.23 48.8209 205.681ZM9.31757 187.281C-12.134 172.434 -23.9441 147.365 -26.2543 130.07C-26.016 148.362 -18.6321 171.311 9.31757 187.281ZM192.154 69.0016L191.988 67.7035C188.434 67.8161 184.82 67.8387 181.139 67.7233C185.097 68.0964 188.767 68.5065 192.154 69.0016ZM171.484 -92.5785L172.708 -83.0116C159.83 -85.8594 158.517 -90.7731 128.07 -81.9431C97.6221 -73.113 16.6224 -17.3585 2.18533 19.5711C28.8691 -22.883 146.569 -100.874 175.789 -58.926L178.642 -36.6192C149.581 -11.9886 54.837 8.92663 67.4353 25.6381C72.7545 30.9188 87.6148 35.1255 99.9125 24.2686C72.7229 21.8834 117.894 -1.38756 124.72 -5.33915C69.1828 28.9815 119.139 17.9001 145.599 17.6423C172.06 17.3845 175.052 22.8162 186.594 25.5418L186.748 26.7436C162.316 23.3705 157.57 16.453 112.577 23.9189C163.95 20.4741 142.475 39.8343 187.824 35.1568L190.58 56.6944C142.06 63.341 126.317 51.0873 90.1508 55.7139C53.9842 60.3405 32.711 65.9936 19.2702 76.7036C-4.22973 96.6649 25.9145 38.0835 28.3563 29.6601C44.6085 -22.5022 -26.9956 70.0159 -26.2543 130.07C-32.9707 79.4776 3.76432 10.1342 55.3366 0.605083C71.5655 -2.44824 -17.2987 90.0302 30.3314 68.79C-10.3749 71.5543 115.605 -17.3658 74.8596 -11.4693C5.31932 -1.40064 -19.596 56.0232 -32.9363 106.494C-49.4899 30.9701 92.8426 -95.9552 171.484 -92.5785ZM101.924 27.3827C106.705 29.6051 115.786 27.2219 122.887 26.9486C115.856 26.6266 108.73 24.8018 101.924 27.3827ZM65.1896 56.6106C49.7666 57.5575 18.4925 71.7704 40.0683 45.5566C13.4482 74.3701 48.26 60.6819 65.1896 56.6106Z" fill="url(#paint3_linear_733_1181)"/>
<rect x="-197.689" y="-70.6133" width="368.976" height="368.832" transform="rotate(-7.29 -197.689 -70.6133)" fill="#DFDFDF"/>
</g>
<path d="M33.9128 142.601L22.9287 56.7378L58.0128 52.0556L67.1223 62.1285L131.568 53.8842L141.162 128.881L33.9128 142.601Z" fill="url(#paint4_linear_733_1181)"/>
<path d="M33.9128 142.601L22.9287 56.7378L58.0128 52.0556L67.1223 62.1285L131.568 53.8842L141.162 128.881L33.9128 142.601Z" fill="url(#paint5_radial_733_1181)"/>
</g>
</g>
</g>
<defs>
<filter id="filter0_ddddd_733_1181" x="4.09041" y="41.562" width="151.998" height="127.082" filterUnits="userSpaceOnUse" color-interpolation-filters="sRGB">
<feFlood flood-opacity="0" result="BackgroundImageFix"/>
<feColorMatrix in="SourceAlpha" type="matrix" values="0 0 0 0 0 0 0 0 0 0 0 0 0 0 0 0 0 0 127 0" result="hardAlpha"/>
<feOffset dy="0.967282"/>
<feGaussianBlur stdDeviation="0.483641"/>
<feColorMatrix type="matrix" values="0 0 0 0 0 0 0 0 0 0 0 0 0 0 0 0 0 0 0.1 0"/>
<feBlend mode="normal" in2="BackgroundImageFix" result="effect1_dropShadow_733_1181"/>
<feColorMatrix in="SourceAlpha" type="matrix" values="0 0 0 0 0 0 0 0 0 0 0 0 0 0 0 0 0 0 127 0" result="hardAlpha"/>
<feOffset dy="1.93456"/>
<feGaussianBlur stdDeviation="0.967282"/>
<feColorMatrix type="matrix" values="0 0 0 0 0 0 0 0 0 0 0 0 0 0 0 0 0 0 0.1 0"/>
<feBlend mode="normal" in2="effect1_dropShadow_733_1181" result="effect2_dropShadow_733_1181"/>
<feColorMatrix in="SourceAlpha" type="matrix" values="0 0 0 0 0 0 0 0 0 0 0 0 0 0 0 0 0 0 127 0" result="hardAlpha"/>
<feOffset dy="3.86913"/>
<feGaussianBlur stdDeviation="1.93456"/>
<feColorMatrix type="matrix" values="0 0 0 0 0 0 0 0 0 0 0 0 0 0 0 0 0 0 0.1 0"/>
<feBlend mode="normal" in2="effect2_dropShadow_733_1181" result="effect3_dropShadow_733_1181"/>
<feColorMatrix in="SourceAlpha" type="matrix" values="0 0 0 0 0 0 0 0 0 0 0 0 0 0 0 0 0 0 127 0" result="hardAlpha"/>
<feOffset dy="7.73826"/>
<feGaussianBlur stdDeviation="3.86913"/>
<feColorMatrix type="matrix" values="0 0 0 0 0 0 0 0 0 0 0 0 0 0 0 0 0 0 0.1 0"/>
<feBlend mode="normal" in2="effect3_dropShadow_733_1181" result="effect4_dropShadow_733_1181"/>
<feColorMatrix in="SourceAlpha" type="matrix" values="0 0 0 0 0 0 0 0 0 0 0 0 0 0 0 0 0 0 127 0" result="hardAlpha"/>
<feOffset dy="23.2148"/>
<feGaussianBlur stdDeviation="11.6074"/>
<feColorMatrix type="matrix" values="0 0 0 0 0 0 0 0 0 0 0 0 0 0 0 0 0 0 0.1 0"/>
<feBlend mode="normal" in2="effect4_dropShadow_733_1181" result="effect5_dropShadow_733_1181"/>
<feBlend mode="normal" in="SourceGraphic" in2="effect5_dropShadow_733_1181" result="shape"/>
</filter>
<filter id="filter1_ddddd_733_1181" x="10.3756" y="8.91699" width="137.729" height="166.016" filterUnits="userSpaceOnUse" color-interpolation-filters="sRGB">
<feFlood flood-opacity="0" result="BackgroundImageFix"/>
<feColorMatrix in="SourceAlpha" type="matrix" values="0 0 0 0 0 0 0 0 0 0 0 0 0 0 0 0 0 0 127 0" result="hardAlpha"/>
<feOffset dy="0.967282"/>
<feGaussianBlur stdDeviation="0.483641"/>
<feColorMatrix type="matrix" values="0 0 0 0 0 0 0 0 0 0 0 0 0 0 0 0 0 0 0.1 0"/>
<feBlend mode="normal" in2="BackgroundImageFix" result="effect1_dropShadow_733_1181"/>
<feColorMatrix in="SourceAlpha" type="matrix" values="0 0 0 0 0 0 0 0 0 0 0 0 0 0 0 0 0 0 127 0" result="hardAlpha"/>
<feOffset dy="1.93456"/>
<feGaussianBlur stdDeviation="0.967282"/>
<feColorMatrix type="matrix" values="0 0 0 0 0 0 0 0 0 0 0 0 0 0 0 0 0 0 0.1 0"/>
<feBlend mode="normal" in2="effect1_dropShadow_733_1181" result="effect2_dropShadow_733_1181"/>
<feColorMatrix in="SourceAlpha" type="matrix" values="0 0 0 0 0 0 0 0 0 0 0 0 0 0 0 0 0 0 127 0" result="hardAlpha"/>
<feOffset dy="3.86913"/>
<feGaussianBlur stdDeviation="1.93456"/>
<feColorMatrix type="matrix" values="0 0 0 0 0 0 0 0 0 0 0 0 0 0 0 0 0 0 0.1 0"/>
<feBlend mode="normal" in2="effect2_dropShadow_733_1181" result="effect3_dropShadow_733_1181"/>
<feColorMatrix in="SourceAlpha" type="matrix" values="0 0 0 0 0 0 0 0 0 0 0 0 0 0 0 0 0 0 127 0" result="hardAlpha"/>
<feOffset dy="7.73826"/>
<feGaussianBlur stdDeviation="3.86913"/>
<feColorMatrix type="matrix" values="0 0 0 0 0 0 0 0 0 0 0 0 0 0 0 0 0 0 0.1 0"/>
<feBlend mode="normal" in2="effect3_dropShadow_733_1181" result="effect4_dropShadow_733_1181"/>
<feColorMatrix in="SourceAlpha" type="matrix" values="0 0 0 0 0 0 0 0 0 0 0 0 0 0 0 0 0 0 127 0" result="hardAlpha"/>
<feOffset dy="23.2148"/>
<feGaussianBlur stdDeviation="11.6074"/>
<feColorMatrix type="matrix" values="0 0 0 0 0 0 0 0 0 0 0 0 0 0 0 0 0 0 0.1 0"/>
<feBlend mode="normal" in2="effect4_dropShadow_733_1181" result="effect5_dropShadow_733_1181"/>
<feBlend mode="normal" in="SourceGraphic" in2="effect5_dropShadow_733_1181" result="shape"/>
</filter>
<filter id="filter2_bdiii_733_1181" x="30.1465" y="0.916992" width="95.2788" height="112.702" filterUnits="userSpaceOnUse" color-interpolation-filters="sRGB">
<feFlood flood-opacity="0" result="BackgroundImageFix"/>
<feGaussianBlur in="BackgroundImageFix" stdDeviation="2.41821"/>
<feComposite in2="SourceAlpha" operator="in" result="effect1_backgroundBlur_733_1181"/>
<feColorMatrix in="SourceAlpha" type="matrix" values="0 0 0 0 0 0 0 0 0 0 0 0 0 0 0 0 0 0 127 0" result="hardAlpha"/>
<feOffset dx="5" dy="-4"/>
<feGaussianBlur stdDeviation="2"/>
<feComposite in2="hardAlpha" operator="out"/>
<feColorMatrix type="matrix" values="0 0 0 0 0 0 0 0 0 0 0 0 0 0 0 0 0 0 1 0"/>
<feBlend mode="normal" in2="effect1_backgroundBlur_733_1181" result="effect2_dropShadow_733_1181"/>
<feBlend mode="normal" in="SourceGraphic" in2="effect2_dropShadow_733_1181" result="shape"/>
<feColorMatrix in="SourceAlpha" type="matrix" values="0 0 0 0 0 0 0 0 0 0 0 0 0 0 0 0 0 0 127 0" result="hardAlpha"/>
<feOffset dy="-1.93456"/>
<feGaussianBlur stdDeviation="0.241821"/>
<feComposite in2="hardAlpha" operator="arithmetic" k2="-1" k3="1"/>
<feColorMatrix type="matrix" values="0 0 0 0 0.920833 0 0 0 0 0.920833 0 0 0 0 0.920833 0 0 0 0.1 0"/>
<feBlend mode="normal" in2="shape" result="effect3_innerShadow_733_1181"/>
<feColorMatrix in="SourceAlpha" type="matrix" values="0 0 0 0 0 0 0 0 0 0 0 0 0 0 0 0 0 0 127 0" result="hardAlpha"/>
<feOffset dx="-0.483641"/>
<feGaussianBlur stdDeviation="0.241821"/>
<feComposite in2="hardAlpha" operator="arithmetic" k2="-1" k3="1"/>
<feColorMatrix type="matrix" values="0 0 0 0 0.920833 0 0 0 0 0.920833 0 0 0 0 0.920833 0 0 0 0.1 0"/>
<feBlend mode="normal" in2="effect3_innerShadow_733_1181" result="effect4_innerShadow_733_1181"/>
<feColorMatrix in="SourceAlpha" type="matrix" values="0 0 0 0 0 0 0 0 0 0 0 0 0 0 0 0 0 0 127 0" result="hardAlpha"/>
<feOffset dx="0.483641"/>
<feGaussianBlur stdDeviation="0.241821"/>
<feComposite in2="hardAlpha" operator="arithmetic" k2="-1" k3="1"/>
<feColorMatrix type="matrix" values="0 0 0 0 0.920833 0 0 0 0 0.920833 0 0 0 0 0.920833 0 0 0 0.1 0"/>
<feBlend mode="normal" in2="effect4_innerShadow_733_1181" result="effect5_innerShadow_733_1181"/>
</filter>
<filter id="filter3_bdiii_733_1181" x="55.7017" y="12.5469" width="74.0249" height="106.967" filterUnits="userSpaceOnUse" color-interpolation-filters="sRGB">
<feFlood flood-opacity="0" result="BackgroundImageFix"/>
<feGaussianBlur in="BackgroundImageFix" stdDeviation="2.41821"/>
<feComposite in2="SourceAlpha" operator="in" result="effect1_backgroundBlur_733_1181"/>
<feColorMatrix in="SourceAlpha" type="matrix" values="0 0 0 0 0 0 0 0 0 0 0 0 0 0 0 0 0 0 127 0" result="hardAlpha"/>
<feOffset dx="-2" dy="-1"/>
<feGaussianBlur stdDeviation="2"/>
<feComposite in2="hardAlpha" operator="out"/>
<feColorMatrix type="matrix" values="0 0 0 0 0 0 0 0 0 0 0 0 0 0 0 0 0 0 1 0"/>
<feBlend mode="normal" in2="effect1_backgroundBlur_733_1181" result="effect2_dropShadow_733_1181"/>
<feBlend mode="normal" in="SourceGraphic" in2="effect2_dropShadow_733_1181" result="shape"/>
<feColorMatrix in="SourceAlpha" type="matrix" values="0 0 0 0 0 0 0 0 0 0 0 0 0 0 0 0 0 0 127 0" result="hardAlpha"/>
<feOffset dy="-1.93456"/>
<feGaussianBlur stdDeviation="0.241821"/>
<feComposite in2="hardAlpha" operator="arithmetic" k2="-1" k3="1"/>
<feColorMatrix type="matrix" values="0 0 0 0 0.920833 0 0 0 0 0.920833 0 0 0 0 0.920833 0 0 0 0.1 0"/>
<feBlend mode="normal" in2="shape" result="effect3_innerShadow_733_1181"/>
<feColorMatrix in="SourceAlpha" type="matrix" values="0 0 0 0 0 0 0 0 0 0 0 0 0 0 0 0 0 0 127 0" result="hardAlpha"/>
<feOffset dx="-0.483641"/>
<feGaussianBlur stdDeviation="0.241821"/>
<feComposite in2="hardAlpha" operator="arithmetic" k2="-1" k3="1"/>
<feColorMatrix type="matrix" values="0 0 0 0 0.920833 0 0 0 0 0.920833 0 0 0 0 0.920833 0 0 0 0.1 0"/>
<feBlend mode="normal" in2="effect3_innerShadow_733_1181" result="effect4_innerShadow_733_1181"/>
<feColorMatrix in="SourceAlpha" type="matrix" values="0 0 0 0 0 0 0 0 0 0 0 0 0 0 0 0 0 0 127 0" result="hardAlpha"/>
<feOffset dx="0.483641"/>
<feGaussianBlur stdDeviation="0.241821"/>
<feComposite in2="hardAlpha" operator="arithmetic" k2="-1" k3="1"/>
<feColorMatrix type="matrix" values="0 0 0 0 0.920833 0 0 0 0 0.920833 0 0 0 0 0.920833 0 0 0 0.1 0"/>
<feBlend mode="normal" in2="effect4_innerShadow_733_1181" result="effect5_innerShadow_733_1181"/>
</filter>
<filter id="filter4_bdiii_733_1181" x="28.7539" y="22.3921" width="94.2026" height="110.948" filterUnits="userSpaceOnUse" color-interpolation-filters="sRGB">
<feFlood flood-opacity="0" result="BackgroundImageFix"/>
<feGaussianBlur in="BackgroundImageFix" stdDeviation="2.41821"/>
<feComposite in2="SourceAlpha" operator="in" result="effect1_backgroundBlur_733_1181"/>
<feColorMatrix in="SourceAlpha" type="matrix" values="0 0 0 0 0 0 0 0 0 0 0 0 0 0 0 0 0 0 127 0" result="hardAlpha"/>
<feOffset dx="2" dy="-2"/>
<feGaussianBlur stdDeviation="2"/>
<feComposite in2="hardAlpha" operator="out"/>
<feColorMatrix type="matrix" values="0 0 0 0 0 0 0 0 0 0 0 0 0 0 0 0 0 0 1 0"/>
<feBlend mode="normal" in2="effect1_backgroundBlur_733_1181" result="effect2_dropShadow_733_1181"/>
<feBlend mode="normal" in="SourceGraphic" in2="effect2_dropShadow_733_1181" result="shape"/>
<feColorMatrix in="SourceAlpha" type="matrix" values="0 0 0 0 0 0 0 0 0 0 0 0 0 0 0 0 0 0 127 0" result="hardAlpha"/>
<feOffset dy="-1.93456"/>
<feGaussianBlur stdDeviation="0.241821"/>
<feComposite in2="hardAlpha" operator="arithmetic" k2="-1" k3="1"/>
<feColorMatrix type="matrix" values="0 0 0 0 0.920833 0 0 0 0 0.920833 0 0 0 0 0.920833 0 0 0 0.1 0"/>
<feBlend mode="normal" in2="shape" result="effect3_innerShadow_733_1181"/>
<feColorMatrix in="SourceAlpha" type="matrix" values="0 0 0 0 0 0 0 0 0 0 0 0 0 0 0 0 0 0 127 0" result="hardAlpha"/>
<feOffset dx="-0.483641"/>
<feGaussianBlur stdDeviation="0.241821"/>
<feComposite in2="hardAlpha" operator="arithmetic" k2="-1" k3="1"/>
<feColorMatrix type="matrix" values="0 0 0 0 0.920833 0 0 0 0 0.920833 0 0 0 0 0.920833 0 0 0 0.1 0"/>
<feBlend mode="normal" in2="effect3_innerShadow_733_1181" result="effect4_innerShadow_733_1181"/>
<feColorMatrix in="SourceAlpha" type="matrix" values="0 0 0 0 0 0 0 0 0 0 0 0 0 0 0 0 0 0 127 0" result="hardAlpha"/>
<feOffset dx="0.483641"/>
<feGaussianBlur stdDeviation="0.241821"/>
<feComposite in2="hardAlpha" operator="arithmetic" k2="-1" k3="1"/>
<feColorMatrix type="matrix" values="0 0 0 0 0.920833 0 0 0 0 0.920833 0 0 0 0 0.920833 0 0 0 0.1 0"/>
<feBlend mode="normal" in2="effect4_innerShadow_733_1181" result="effect5_innerShadow_733_1181"/>
</filter>
<filter id="filter5_ddddiii_733_1181" x="0.170485" y="51.8071" width="163.747" height="136.764" filterUnits="userSpaceOnUse" color-interpolation-filters="sRGB">
<feFlood flood-opacity="0" result="BackgroundImageFix"/>
<feColorMatrix in="SourceAlpha" type="matrix" values="0 0 0 0 0 0 0 0 0 0 0 0 0 0 0 0 0 0 127 0" result="hardAlpha"/>
<feOffset dy="1.93456"/>
<feGaussianBlur stdDeviation="0.967282"/>
<feColorMatrix type="matrix" values="0 0 0 0 0 0 0 0 0 0 0 0 0 0 0 0 0 0 0.1 0"/>
<feBlend mode="normal" in2="BackgroundImageFix" result="effect1_dropShadow_733_1181"/>
<feColorMatrix in="SourceAlpha" type="matrix" values="0 0 0 0 0 0 0 0 0 0 0 0 0 0 0 0 0 0 127 0" result="hardAlpha"/>
<feOffset dy="3.86913"/>
<feGaussianBlur stdDeviation="1.93456"/>
<feColorMatrix type="matrix" values="0 0 0 0 0 0 0 0 0 0 0 0 0 0 0 0 0 0 0.1 0"/>
<feBlend mode="normal" in2="effect1_dropShadow_733_1181" result="effect2_dropShadow_733_1181"/>
<feColorMatrix in="SourceAlpha" type="matrix" values="0 0 0 0 0 0 0 0 0 0 0 0 0 0 0 0 0 0 127 0" result="hardAlpha"/>
<feOffset dy="7.73826"/>
<feGaussianBlur stdDeviation="3.86913"/>
<feColorMatrix type="matrix" values="0 0 0 0 0 0 0 0 0 0 0 0 0 0 0 0 0 0 0.1 0"/>
<feBlend mode="normal" in2="effect2_dropShadow_733_1181" result="effect3_dropShadow_733_1181"/>
<feColorMatrix in="SourceAlpha" type="matrix" values="0 0 0 0 0 0 0 0 0 0 0 0 0 0 0 0 0 0 127 0" result="hardAlpha"/>
<feOffset dy="23.2148"/>
<feGaussianBlur stdDeviation="11.6074"/>
<feColorMatrix type="matrix" values="0 0 0 0 0 0 0 0 0 0 0 0 0 0 0 0 0 0 0.1 0"/>
<feBlend mode="normal" in2="effect3_dropShadow_733_1181" result="effect4_dropShadow_733_1181"/>
<feBlend mode="normal" in="SourceGraphic" in2="effect4_dropShadow_733_1181" result="shape"/>
<feColorMatrix in="SourceAlpha" type="matrix" values="0 0 0 0 0 0 0 0 0 0 0 0 0 0 0 0 0 0 127 0" result="hardAlpha"/>
<feOffset dy="-1.93456"/>
<feGaussianBlur stdDeviation="0.241821"/>
<feComposite in2="hardAlpha" operator="arithmetic" k2="-1" k3="1"/>
<feColorMatrix type="matrix" values="0 0 0 0 0 0 0 0 0 0 0 0 0 0 0 0 0 0 0.4 0"/>
<feBlend mode="normal" in2="shape" result="effect5_innerShadow_733_1181"/>
<feColorMatrix in="SourceAlpha" type="matrix" values="0 0 0 0 0 0 0 0 0 0 0 0 0 0 0 0 0 0 127 0" result="hardAlpha"/>
<feOffset dx="-0.483641"/>
<feGaussianBlur stdDeviation="0.241821"/>
<feComposite in2="hardAlpha" operator="arithmetic" k2="-1" k3="1"/>
<feColorMatrix type="matrix" values="0 0 0 0 1 0 0 0 0 1 0 0 0 0 1 0 0 0 0.3 0"/>
<feBlend mode="normal" in2="effect5_innerShadow_733_1181" result="effect6_innerShadow_733_1181"/>
<feColorMatrix in="SourceAlpha" type="matrix" values="0 0 0 0 0 0 0 0 0 0 0 0 0 0 0 0 0 0 127 0" result="hardAlpha"/>
<feOffset dx="0.483641"/>
<feGaussianBlur stdDeviation="0.241821"/>
<feComposite in2="hardAlpha" operator="arithmetic" k2="-1" k3="1"/>
<feColorMatrix type="matrix" values="0 0 0 0 1 0 0 0 0 1 0 0 0 0 1 0 0 0 0.3 0"/>
<feBlend mode="normal" in2="effect6_innerShadow_733_1181" result="effect7_innerShadow_733_1181"/>
</filter>
<linearGradient id="paint0_linear_733_1181" x1="69.6319" y1="12.9489" x2="81.3169" y2="104.291" gradientUnits="userSpaceOnUse">
<stop stop-color="#A6A6A6" stop-opacity="0.5"/>
<stop offset="1" stop-color="white" stop-opacity="0.6"/>
</linearGradient>
<linearGradient id="paint1_linear_733_1181" x1="87.4533" y1="20.4406" x2="99.1383" y2="111.783" gradientUnits="userSpaceOnUse">
<stop stop-color="#A6A6A6" stop-opacity="0.5"/>
<stop offset="1" stop-color="white" stop-opacity="0.6"/>
</linearGradient>
<linearGradient id="paint2_linear_733_1181" x1="69.2012" y1="32.5471" x2="80.8862" y2="123.89" gradientUnits="userSpaceOnUse">
<stop stop-color="#A6A6A6" stop-opacity="0.5"/>
<stop offset="1" stop-color="white" stop-opacity="0.6"/>
</linearGradient>
<linearGradient id="paint3_linear_733_1181" x1="-14.6926" y1="-94.0233" x2="32.1091" y2="271.827" gradientUnits="userSpaceOnUse">
<stop stop-color="white" stop-opacity="0.48"/>
<stop offset="1" stop-color="white" stop-opacity="0"/>
</linearGradient>
<linearGradient id="paint4_linear_733_1181" x1="76.481" y1="49.2749" x2="87.4558" y2="135.065" gradientUnits="userSpaceOnUse">
<stop stop-color="white" stop-opacity="0.4"/>
<stop offset="0.833333" stop-color="white" stop-opacity="0"/>
<stop offset="1" stop-color="white" stop-opacity="0.3"/>
</linearGradient>
<radialGradient id="paint5_radial_733_1181" cx="0" cy="0" r="1" gradientUnits="userSpaceOnUse" gradientTransform="translate(24.3496 67.8445) rotate(-7.29) scale(82.9106 103.251)">
<stop stop-color="white" stop-opacity="0.9"/>
<stop offset="1" stop-color="white" stop-opacity="0.21"/>
</radialGradient>
<clipPath id="clip0_733_1181">
<rect width="368.976" height="368.832" fill="white" transform="translate(-197.688 -70.6133) rotate(-7.29)"/>
</clipPath>
</defs>
</svg>
