<svg xmlns="http://www.w3.org/2000/svg" width="66" height="60" fill="none"><g clip-path="url(#a)"><path fill="#185C37" d="M41.264 28.49 15.755 23.99V57.23a2.75 2.75 0 0 0 2.75 2.749h44.017a2.75 2.75 0 0 0 2.75-2.749V44.984z"/><path fill="#21A366" d="M41.264 0H18.506a2.75 2.75 0 0 0-2.75 2.749v12.246l25.508 14.994 13.505 4.499 10.504-4.499V14.995z"/><path fill="#107C41" d="M15.755 14.995h25.51V29.99h-25.51z"/><path fill="#000" d="M34.012 11.996H15.755v37.486h18.257a2.76 2.76 0 0 0 2.75-2.748v-31.99a2.76 2.76 0 0 0-2.75-2.748" opacity=".1"/><path fill="#000" d="M32.512 13.495H15.755v37.487h16.757a2.76 2.76 0 0 0 2.75-2.749v-31.99a2.76 2.76 0 0 0-2.75-2.748" opacity=".2"/><path fill="#000" d="M32.512 13.495H15.755v34.488h16.757a2.76 2.76 0 0 0 2.75-2.749v-28.99a2.76 2.76 0 0 0-2.75-2.749" opacity=".2"/><path fill="#000" d="M31.011 13.495H15.755v34.488h15.256a2.76 2.76 0 0 0 2.75-2.749v-28.99a2.76 2.76 0 0 0-2.75-2.749" opacity=".2"/><path fill="url(#b)" d="M3.5 13.495h27.511a2.75 2.75 0 0 1 2.75 2.749v27.49a2.75 2.75 0 0 1-2.75 2.75H3.501A2.75 2.75 0 0 1 .75 43.735V16.244a2.75 2.75 0 0 1 2.75-2.749"/><path fill="#fff" d="m9.268 38.923 5.786-8.959-5.301-8.91h4.264l2.893 5.698q.4.811.55 1.209h.037q.285-.648.6-1.258l3.093-5.646h3.915l-5.437 8.858 5.575 9.008h-4.166l-3.341-6.254a5 5 0 0 1-.4-.835h-.049a4 4 0 0 1-.387.81l-3.44 6.28z"/><path fill="#33C481" d="M62.522 0H41.264v14.995h24.008V2.749A2.75 2.75 0 0 0 62.522 0"/><path fill="#107C41" d="M41.264 29.99h24.008v14.994H41.264z"/></g><defs><linearGradient id="b" x1="6.485" x2="28.004" y1="11.348" y2="48.644" gradientUnits="userSpaceOnUse"><stop stop-color="#18884F"/><stop offset=".5" stop-color="#117E43"/><stop offset="1" stop-color="#0B6631"/></linearGradient><clipPath id="a"><path fill="#fff" d="M.75 0h64.5v60H.75z"/></clipPath></defs></svg>