<svg width="197" height="175" viewBox="0 0 197 175" fill="none" xmlns="http://www.w3.org/2000/svg">
<g opacity="0.05">
<g filter="url(#filter0_ddddiii_733_1110)">
<g filter="url(#filter1_biii_733_1110)">
<path d="M119.271 8.8357C119 6.71611 117.062 5.21761 114.942 5.48872L33.7285 15.8765C31.6089 16.1477 30.1104 18.0857 30.3815 20.2053L44.9732 134.285C45.2443 136.405 47.1823 137.903 49.3019 137.632L130.516 127.245C132.635 126.973 134.134 125.035 133.863 122.916L119.271 8.8357Z" fill="url(#paint0_linear_733_1110)"/>
</g>
<g filter="url(#filter2_biii_733_1110)">
<path d="M113.095 31.1965C112.824 29.0769 110.886 27.5785 108.766 27.8496L27.5527 38.2374C25.4331 38.5085 23.9346 40.4465 24.2057 42.5661L38.7974 156.646C39.0685 158.766 41.0065 160.264 43.1261 159.993L124.34 149.605C126.46 149.334 127.958 147.396 127.687 145.277L113.095 31.1965Z" fill="url(#paint1_linear_733_1110)"/>
</g>
</g>
<g filter="url(#filter3_ddddiii_733_1110)">
<mask id="mask0_733_1110" style="mask-type:alpha" maskUnits="userSpaceOnUse" x="46" y="8" width="98" height="133">
<path d="M128.734 12.1672C128.463 10.0476 126.525 8.54916 124.405 8.82027L74.9093 15.1511L46.2115 73.3162L54.4361 137.617C54.7072 139.736 56.6452 141.235 58.7648 140.964L139.979 130.576C142.098 130.305 143.597 128.367 143.326 126.247L128.734 12.1672Z" fill="white"/>
</mask>
<g mask="url(#mask0_733_1110)">
<g clip-path="url(#clip0_733_1110)">
<rect width="426.225" height="428.491" transform="translate(-138.596 -64.8274) rotate(-7.28896)" fill="white" fill-opacity="0.88"/>
<path d="M-67.6217 11.5264C-78.2179 3.28842 -95.2419 2.62765 -122.348 13.6444C-95.1602 0.176304 -78.337 1.03305 -67.6217 11.5264ZM318.775 151.528L319.139 154.377C296.476 154.21 274.457 145.844 251.75 139.155C295.977 156.488 309.582 167.066 320.654 166.217L327.526 219.946C255.11 257.251 142.329 219.566 185.344 192.55C203.951 180.861 296.989 201.487 254.872 159.589C262.411 169.977 265.023 181.564 243.594 180.899C250.555 178.816 258.538 175.014 251.172 166.419C243.805 157.825 253.421 181.799 208.236 174.636C172.506 168.988 126.006 202.751 154.569 165.606C90.1013 226.644 240.261 270.503 319.269 236.613C309.771 240.496 294.211 243.337 276.346 244.487C294.755 241.849 312.122 235.483 328.285 226.32L330.471 243.411C273.901 292.028 217.489 308.78 107.594 281.739C205.032 326.608 97.3749 313.529 94.9558 313.157C103.527 314.388 145.444 314.987 140.626 308.224C135.808 301.46 105.338 307.799 80.4777 301.499C90.127 299.243 108.241 303.567 84.3545 287.663C130.632 317.052 93.3506 283.39 68.2271 269.29C64.662 267.022 61.2421 264.564 57.9118 261.925C61.2262 263.999 63.7976 264.237 65.2143 262.069C57.676 252.135 50.994 242.715 45.0502 233.768C46.6121 235.385 48.2368 237.05 49.9654 238.646C-59.3556 70.4129 148.428 -28.0853 150.214 -91.3797C149.75 -88.8227 148.842 -86.2089 147.427 -83.587C149.179 -91.0771 149.96 -96.456 148.469 -101.488L162.358 -103.264C162.729 -102.574 163.162 -101.834 163.484 -101.081C164.106 -101.955 164.617 -102.815 165.08 -103.612L183.858 -106.014C185.292 -95.2421 179.151 -81.4573 159.021 -62.2505C174.684 -75.323 187.324 -90.3931 188.518 -106.667L197.629 -107.832C178.129 -81.4969 150.649 -42.5039 132.888 -33.4771C74.735 3.64917 43.6643 70.6325 42.1661 132.641C46.6831 105.27 58.3225 76.1938 75.5706 47.7055C50.656 93.0686 39.0003 143.207 48.1955 183.753C51.5306 195.701 56.2459 206.962 62.354 217.193C81.6023 245.839 117.836 264.251 175.895 263.466C101.375 234 84.1348 138.059 172.443 115.524C200.447 107.117 228.282 111.958 255.802 117.861C220.931 113.636 173.137 105.501 148.989 131.693C178.15 124.387 209.128 123.774 238.857 129.735C206.431 127.411 161.436 116.875 140.066 148.899C146.156 143.976 154.045 135.02 171.823 132.746C146.354 141.113 148.95 148.16 173.639 143.413C131.051 151.698 93.3071 189.904 140.121 229.669C186.935 269.433 228.755 264.425 215.574 275.704C192.127 295.903 105.396 268.964 75.0552 235.266C74.1076 234.479 73.2155 233.685 72.2679 232.898C112.278 279.948 206.353 305.152 256.073 272.284C277.103 258.354 74.8473 235.406 136.167 164.327C152.739 145.121 201.607 138.7 229.143 157.089C211.688 148.65 153.167 150.232 173.045 164.378C187.951 174.96 248.095 174.59 236.828 159.342C230.657 153.036 223.2 148.597 215.096 145.717C215.215 145.758 215.326 145.744 215.444 145.786C146.271 117.509 221.972 129.283 292.774 148.667C302.075 152.075 310.748 152.782 318.775 151.528ZM77.445 237.174C77.445 237.174 105.101 262.247 146.602 271.073C179.218 277.97 206.475 272.554 206.492 271.36C206.494 270.054 173.356 274.519 131.912 262.166C97.9231 252.039 77.445 237.174 77.445 237.174ZM124.301 -33.514C134.44 -42.531 144.587 -51.4921 154.727 -60.5091C145.928 -55.5804 130.205 -41.6487 124.301 -33.514ZM47.394 192.938C46.2352 187.41 40.6642 169.901 40.3657 164.036C29.0973 106.839 47.1488 40.0446 99.8263 -7.22347C34.0893 46.54 17.5195 113.882 47.394 192.938ZM29.2853 103.011C34.6645 87.6779 40.2842 71.5757 45.9935 55.2919C39.4984 65.4321 28.1067 97.7694 29.2853 103.011ZM129.044 280.358C93.4718 268.446 59.737 247.5 39.5371 214.946C50.094 243.625 100.378 282.264 129.044 280.358ZM256.727 153.788C262.154 160.019 265.372 162.219 273.512 173.326C302.448 212.823 165.859 177.502 184.465 211.281C195.793 231.857 257.15 234.795 274.928 232.521C224.896 229.838 190.794 221.03 192.354 206.299C194.792 184.303 357.628 238.972 256.727 153.788ZM5.77428 172.15C4.16221 162.195 0.481688 140.925 1.04344 130.749C-1.03898 139.189 3.03202 160.864 5.77428 172.15ZM57.9047 261.869C55.5221 260.017 53.2435 258.094 51.0061 256.053C53.5371 258.624 55.8785 260.595 57.9047 261.869ZM51.0133 256.109C35.6946 240.528 15.0702 211.718 7.4014 180.456C12.5234 212.555 26.8214 234.283 51.0133 256.109ZM97.2465 -86.9889C100.68 -82.6598 102.615 -77.6849 103.744 -72.834C103.21 -78.3287 101.227 -83.2407 97.2465 -86.9889ZM89.2948 -93.9757L83.6836 -93.258C89.6488 -92.091 94.0472 -89.9289 97.191 -86.9818C95.1671 -89.5612 92.602 -91.9578 89.2948 -93.9757ZM39.3151 226.895C23.2082 202.503 20.0692 192.971 13.9093 173.947C17.589 196.978 20.6876 204.869 39.3151 226.895ZM28.3078 277.689C51.2369 298.03 100.73 305.323 71.7448 281.783C81.3245 299.29 45.6494 289.662 28.3078 277.689ZM60.7321 -74.4849C59.7614 -79.8669 57.8748 -84.9048 54.9056 -89.5771L42.85 -88.0351C46.6611 -86.9331 50.3072 -85.356 53.8097 -83.136C47.9898 -84.4919 42.177 -85.7919 36.1277 -87.1753L30.1832 -86.4149C44.3969 -84.7703 56.1724 -80.9973 60.7321 -74.4849ZM284.185 -118.904L286.992 -96.954C248.028 -107.581 218.337 -90.7269 202.502 -73.2615C186.668 -55.796 162.15 -49.7082 144.276 -35.3878C162.87 -52.4683 190.383 -62.0613 205.058 -81.5354C219.732 -101.01 213.022 -102.706 215.518 -110.121L284.185 -118.904ZM257.099 -108.173C245.176 -106.478 235.554 -100.479 226.254 -93.7263C236.302 -99.0419 246.637 -103.883 257.099 -108.173ZM272.909 239.25C259.691 240.089 245.226 240.009 231.062 238.756C245.487 241.168 259.438 241.2 272.909 239.25ZM234.562 244.041C226.254 242.663 217.854 240.559 209.229 237.575C121.419 202.202 191.586 181.307 226.836 182.758C205.117 176.738 143.197 173.816 165.993 215.631C161.608 211.367 152.903 205.555 152.927 192.496C145.745 224.635 196.637 240.661 234.562 244.041ZM135.622 -26.6744C108.069 -4.58797 92.9742 16.0184 75.619 47.6425C93.2886 18.4758 108.087 -1.3547 135.622 -26.6744ZM316.332 132.427L315.732 127.736C307.449 127.433 282.146 123.403 273.776 121.976C285.507 124.96 313.562 131.079 316.332 132.427ZM63.7946 -90.7141L83.0725 -93.1798C123.548 -77.808 78.1614 -37.5464 72.8839 -13.03C86.3514 -22.0753 105.63 -51.902 103.751 -72.7781C109 -49.8354 96.2157 -28.3891 137.516 -76.7564C144.837 -83.0855 145.23 -91.9343 141.017 -100.591L143.851 -100.954C155.001 -53.5054 61.9076 -16.7349 55.2698 8.18245C78.2096 -0.0876139 41.1834 22.9834 47.4954 25.9793C70.589 6.10949 87.0459 -20.1774 110.732 -39.3851C56.1326 10.513 0.446072 95.1767 12.3362 169.153C-17.0226 78.6786 86.1893 -36.5864 75.6267 -72.8138C70.4375 -90.4284 67.0685 -86.3078 63.7946 -90.7141ZM62.3466 -12.4202C59.0172 -12.8458 53.7386 -6.43738 54.3919 -0.447078C57.426 -4.97901 59.8863 -8.69959 62.3466 -12.4202ZM86.3443 -71.5735C85.3363 -73.7152 84.4124 -75.6405 83.2434 -78.159C81.1283 -73.0634 82.0665 -71.0263 86.3443 -71.5735ZM92.6444 -69.9952C90.6134 -72.6304 90.3331 -79.2361 87.372 -77.6653C88.9157 -75.3083 85.299 -70.4748 92.6444 -69.9952ZM70.3764 -90.0233C78.1156 -72.3375 78.4177 -91.1653 92.0307 -80.5318C90.0552 -87.1476 79.8733 -92.1462 70.3764 -90.0233ZM-8.02611 258.495C10.0602 284.677 21.7804 300.378 66.1975 304.631C38.3852 296.438 16.0404 284.196 -8.02611 258.495ZM-95.3544 273.241L-94.7472 277.988C-66.2593 302.5 -35.9506 331.093 -5.37722 340.125C0.510176 342.891 6.43169 345.483 12.3802 347.844L20.2691 346.835C-0.438281 339.89 -19.4442 330.798 -35.8453 319.556C-54.8599 309.954 -74.9849 290.787 -95.3544 273.241ZM-129.316 7.72391L-129.859 3.47921C-5.48343 -65.9587 -33.9733 90.9509 -35.3053 129.097C-36.6373 167.243 -12.963 237.556 -3.53223 218.582C5.89851 199.608 -37.7577 180.556 20.7776 18.8384C-7.06469 71.3311 -17.4087 158.653 -26.1024 159.992C-34.7961 161.331 -33.8299 131.803 -30.2586 119.994C-22.1536 231.919 28.5306 -101.984 -126.588 -10.6763C-127.828 -9.77973 -129.402 -8.84048 -131.302 -7.80275L-133.038 -21.3746C-87.8221 -52.8158 -61.5427 -71.6172 -21.2647 -76.7691C19.0134 -81.9209 52.051 -77.4616 61.4759 -66.4626C62.9683 8.33306 -78.3262 140.617 44.9959 263.804C70.6337 285.899 60.2369 288.931 33.9904 273.556C7.74386 258.181 -23.153 218.367 -39.8183 167.537C-35.1312 198.442 -26.9315 228.557 -10.3818 252.438C-26.9235 234.8 -35.0508 219.378 -43.4736 183.104C-51.8965 146.83 -47.4965 92.0562 -51.686 50.4724C-48.2437 63.2584 -47.2634 71.3639 -46.299 82.8774C-32.1812 -8.04945 -83.3953 -16.8821 -129.316 7.72391ZM-76.4418 -50.8088C-85.0537 -47.9475 -101.741 -39.796 -107.611 -33.5958C-97.2235 -39.3521 -86.8291 -45.0525 -76.4418 -50.8088ZM38.1669 -66.3763C47.3338 -59.6017 46.457 -46.1498 43.2873 -34.7319C43.7841 -35.7037 44.3294 -36.7384 44.9301 -37.7803C51.0856 -49.6936 47.1497 -60.5999 38.1669 -66.3763ZM38.4972 -59.3797C40.3355 -50.3053 40.3642 -42.1348 38.5984 -32.5427C44.711 -44.7911 44.6775 -54.3234 38.4972 -59.3797ZM-15.7597 -68.1637C-6.92636 -69.2936 1.85148 -70.4163 10.6849 -71.5462C3.09195 -71.3129 -8.24145 -69.8633 -15.7597 -68.1637ZM36.8044 -56.7222C25.4318 -76.3274 -9.17952 -67.9268 -27.6344 -62.5578C-6.9747 -65.2571 20.2857 -73.7392 36.8044 -56.7222ZM36.5325 -33.2435C32.1327 -19.9654 20.7208 -11.183 15.0813 1.2319C22.6908 -0.195535 36.8065 -24.48 36.5325 -33.2435ZM289.372 30.69C276.725 20.1032 275.891 17.996 280.724 9.43069C270.008 16.5914 281.134 27.2025 289.372 30.69ZM248.133 -95.276C260.826 -97.5806 274.213 -95.7735 287.314 -94.4407L287.25 -94.9434C274.121 -98.2594 261.089 -101.701 248.133 -95.276ZM313.317 108.858L312.46 102.156C297.854 99.6531 283.639 97.5545 269.598 97.7042C283.253 100.272 298.766 108.108 313.317 108.858ZM-92.3969 296.363C-67.3313 315.75 -42.1403 335.234 -15.9533 351.468L-4.61991 350.018C-35.5808 329.57 -65.0124 303.419 -93.8971 284.635L-92.3969 296.363ZM-91.8826 300.385L-88.5107 326.746C-71.489 332.687 -52.5189 341.5 -31.509 353.458L-22.8978 352.356C-45.8561 341.499 -69.0678 319.832 -91.8826 300.385ZM303.866 34.9667L299.687 2.29373C296.396 4.81501 292.82 7.31597 288.958 9.79661C286.717 20.528 293.62 29.4655 303.866 34.9667ZM272.606 10.4123C260.58 18.365 270.79 23.587 277.717 29.6263C271.111 19.913 265.142 19.598 272.606 10.4123ZM230.27 -61.884C257.804 -73.5232 272.061 -67.5699 291.665 -60.4273L291.493 -61.7677C271.418 -68.623 260.709 -77.3006 230.27 -61.884ZM297.029 -18.4829L297.022 -18.5388C296.814 -18.3987 296.606 -18.2585 296.399 -18.1184C296.606 -18.2585 296.814 -18.3987 297.029 -18.4829ZM334.882 306.594C336.019 305.767 337.163 304.996 338.299 304.17L337.906 301.098C335.683 303.142 333.39 305.082 331.105 307.077L334.882 306.594ZM-137.873 -64.9193C-138.033 -64.8421 -138.193 -64.7649 -138.296 -64.6949C-138.137 -64.772 -137.977 -64.8492 -137.818 -64.9264L-137.873 -64.9193ZM-138.567 -64.6035C-138.456 -64.6177 -138.408 -64.6807 -138.296 -64.6949C-138.408 -64.6807 -138.456 -64.6177 -138.567 -64.6035ZM-120.151 -67.1861C-126.69 -63.5682 -132.578 -60.6013 -137.753 -58.2365L-135.452 -40.2523C-113.014 -52.8859 -89.7238 -64.1526 -67.2619 -73.951L-120.151 -67.1861ZM85.9362 338.436L95.2697 337.242C81.5441 334.116 44.0777 318.87 39.3744 316.974C57.3819 326.648 73.6718 333.931 85.9362 338.436ZM-125.966 33.9182L-127.18 24.4234C-11.386 -21.6082 -98.184 211.388 6.47224 297.681C-85.2967 254.755 -64.0444 133.965 -82.4735 55.6592C-88.5462 29.8131 -106.223 29.3494 -125.966 33.9182ZM-94.713 26.6284C-62.3789 54.281 -72.6319 122.008 -64.9018 168.758C-69.3762 135.101 -46.1331 31.2 -94.713 26.6284ZM246.66 317.878C275.923 306.074 302.976 289.785 325.337 269.044C327.813 265.889 330.24 262.797 332.571 259.831L331.214 249.219C295.176 278.692 257.333 304.649 218.715 321.452L246.66 317.878ZM10.0461 300.46C17.3606 305.996 25.8599 310.642 35.8005 314.195L10.0461 300.46ZM238.029 111.79C202.002 92.7835 289.999 126.089 315.482 125.781L314.232 116.007C272.67 109.8 165.033 90.7002 238.029 111.79ZM-54.4417 250.978C-45.3041 267.236 -34.6528 293.121 12.2368 310.965C-25.2242 287.374 -39.177 270.994 -54.4417 250.978ZM-92.258 191.501C-87.591 214.745 -73.0692 228.952 -59.9157 241.291C-98.9395 160.453 -58.2221 31.1569 -125.387 38.4421L-124.43 45.9262C-119.141 44.455 -119.197 38.2748 -108.269 42.0427C-80.4259 53.1267 -84.1856 98.3384 -87.6646 120.581C-91.688 100.604 -84.5066 70.224 -105.271 58.859C-124.369 55.2279 -98.9034 81.7155 -101.309 91.1624C-106.734 79.6518 -113.623 72.5858 -121.486 68.9369L-119.7 82.8997C-96.6373 99.8743 -94.5324 155.178 -90.8098 178.543C-101.279 162.91 -107.014 144.116 -114.135 126.408L-102.834 214.765C-87.7613 235.486 -74.5299 258.146 -64.597 275.324C-76.4695 263.73 -88.2063 249.223 -100.241 235.039L-96.7475 262.35C-67.7278 283.955 -37.2636 313.323 -5.9845 331.404C-21.6062 324.49 -36.7255 316.206 -51.1758 306.531C-31.269 320.901 -9.78214 332.173 12.6468 340.658C15.8055 341.956 18.9429 343.088 22.1143 344.045C23.9437 344.662 25.7104 345.231 27.5398 345.848L82.0402 338.877C-37.1047 326.926 -92.2179 222.716 -92.258 191.501ZM324.16 307.965C328.749 304.994 333.261 301.863 337.585 298.585L333.777 268.816C309.391 288.738 285.4 304.238 261.937 315.924L324.16 307.965ZM272.837 137.593C290.222 144.168 304.927 149.213 318.239 147.339L316.418 133.097C315.022 133.219 310.893 132.726 303.1 131.395C335.079 154.949 293.93 145.34 272.837 137.593ZM-84.2316 360.201L-48.898 355.682C-61.6657 350.333 -74.4476 344.872 -86.789 340.207L-84.2316 360.201ZM78.6008 101.415C78.5937 101.359 78.6421 101.296 78.6349 101.24C78.6421 101.296 78.6492 101.352 78.6008 101.415ZM79.0961 99.9892C78.9238 100.409 78.8072 100.821 78.6349 101.24C78.8072 100.821 78.9238 100.409 79.0961 99.9892ZM79.2683 99.5699C79.227 99.6887 79.1786 99.7517 79.1373 99.8705C79.1786 99.7517 79.227 99.6887 79.2683 99.5699ZM79.1373 99.8705C79.1444 99.9263 79.0889 99.9334 79.0961 99.9892C79.0889 99.9334 79.1444 99.9263 79.1373 99.8705ZM83.8295 102.563C54.2266 140.408 80.2122 219.961 87.4642 191.9C101.647 137.238 144.695 83.9922 209.791 102.913C175.767 88.5327 235.516 92.5838 271.754 94.2497C231.604 90.246 189.539 83.1949 152.526 100.19C163.867 93.0632 170.678 89.8079 184.171 88.0253C152.146 88.8292 126.949 99.318 102.647 123.429C78.346 147.541 108.393 73.8766 102.409 71.2361C96.8418 68.7693 84.4498 85.3403 79.2683 99.5699C86.0339 81.3912 98.9214 83.2622 83.8295 102.563ZM78.2024 102.715C78.3119 102.247 78.4842 101.827 78.6008 101.415C78.4842 101.827 78.3191 102.302 78.2024 102.715ZM195.838 86.533C230.003 85.6824 251.605 92.1153 284.577 91.6445C250.573 88.8983 228.032 82.1881 195.838 86.533ZM272.837 137.593C271.891 137.26 270.994 136.864 270.047 136.531C270.89 136.934 271.836 137.267 272.837 137.593ZM-83.1079 -63.6365C-78.1841 -66.1963 -73.2603 -68.7561 -68.3364 -71.3159C-74.6492 -72.552 -78.7984 -67.026 -83.1079 -63.6365ZM-46.2617 -76.6371L-55.4285 -75.4646C-90.8658 -54.9809 -160.725 -17.5495 -46.2617 -76.6371ZM152.877 302.91C179.94 311.426 154.333 317.823 140.116 319.244C161.815 319.818 185.564 308.606 152.877 302.91ZM181.03 305.383C198.654 314.709 177.019 318.611 167.051 321.022C178.18 318.86 209.425 313.274 181.03 305.383ZM211.334 300.826C248.881 311.407 211.897 318.918 192.437 324.813L199.715 323.883C222.386 318.372 255.706 306.049 211.334 300.826ZM311.438 94.1691L311.167 92.0467C305.271 92.7441 299.221 93.1206 293.024 93.2321C299.292 93.6791 305.435 94.0287 311.438 94.1691ZM78.2916 227.019C87.0855 238.382 102.189 246.1 108.443 246.436C100.165 243.521 87.9109 236.006 78.2916 227.019ZM146.412 256.338C66.6942 192.854 125.362 118.253 172.068 103.765C139.433 109.074 77.5288 168.081 100.411 214.539C88.5796 214.747 72.7673 197.072 66.636 178.273C72.8706 206.709 96.7999 234.869 146.412 256.338ZM100.76 234.93C75.9661 217.666 62.302 188.534 59.6192 168.441C59.9092 189.691 68.4581 216.356 100.76 234.93ZM311.889 97.6877L311.696 96.1797C307.59 96.3075 303.415 96.3307 299.162 96.1934C303.735 96.6303 307.975 97.1097 311.889 97.6877ZM287.878 -90.0284L289.3 -78.914C274.42 -82.2332 272.9 -87.9423 237.732 -77.7108C202.564 -67.4794 109.034 -2.7814 92.3849 40.1054C123.177 -9.18845 259.088 -99.6858 292.879 -50.9325L296.194 -25.0175C262.64 3.56966 153.203 27.7851 167.771 47.2087C173.92 53.3475 191.091 58.2468 205.289 45.6454C173.876 42.8516 226.041 15.8574 233.925 11.2728C169.792 51.094 227.496 38.2638 258.064 37.9869C288.633 37.7099 292.094 44.0222 305.431 47.1982L305.609 48.5944C277.381 44.6553 271.892 36.6155 219.919 45.25C279.266 41.2921 254.472 63.7635 306.859 58.3684L310.06 83.3898C254.013 91.0695 235.815 76.8217 194.037 82.1654C152.259 87.5091 127.688 94.0579 112.169 106.488C85.0362 129.656 119.813 61.6305 122.627 51.8475C141.361 -8.73276 58.7141 98.6795 59.6192 168.441C51.819 109.666 94.2014 29.1444 153.773 18.1189C172.519 14.5858 69.9328 121.937 124.941 97.3042C77.9167 100.481 223.385 -2.70557 176.318 4.10934C95.9885 15.7464 67.2512 82.4313 51.8806 141.049C32.6957 53.303 197.024 -94.0179 287.878 -90.0284ZM207.615 49.2646C213.141 51.8503 223.629 49.0896 231.833 48.7782C223.71 48.3981 215.477 46.2724 207.615 49.2646ZM165.201 83.1858C147.385 84.2726 111.266 100.756 136.171 70.3236C105.441 103.772 145.646 87.9008 165.201 83.1858Z" fill="white" fill-opacity="0.88"/>
<path d="M-67.6217 11.5264C-78.2179 3.28842 -95.2419 2.62765 -122.348 13.6444C-95.1602 0.176304 -78.337 1.03305 -67.6217 11.5264ZM318.775 151.528L319.139 154.377C296.476 154.21 274.457 145.844 251.75 139.155C295.977 156.488 309.582 167.066 320.654 166.217L327.526 219.946C255.11 257.251 142.329 219.566 185.344 192.55C203.951 180.861 296.989 201.487 254.872 159.589C262.411 169.977 265.023 181.564 243.594 180.899C250.555 178.816 258.538 175.014 251.172 166.419C243.805 157.825 253.421 181.799 208.236 174.636C172.506 168.988 126.006 202.751 154.569 165.606C90.1013 226.644 240.261 270.503 319.269 236.613C309.771 240.496 294.211 243.337 276.346 244.487C294.755 241.849 312.122 235.483 328.285 226.32L330.471 243.411C273.901 292.028 217.489 308.78 107.594 281.739C205.032 326.608 97.3749 313.529 94.9558 313.157C103.527 314.388 145.444 314.987 140.626 308.224C135.808 301.46 105.338 307.799 80.4777 301.499C90.127 299.243 108.241 303.567 84.3545 287.663C130.632 317.052 93.3506 283.39 68.2271 269.29C64.662 267.022 61.2421 264.564 57.9118 261.925C61.2262 263.999 63.7976 264.237 65.2143 262.069C57.676 252.135 50.994 242.715 45.0502 233.768C46.6121 235.385 48.2368 237.05 49.9654 238.646C-59.3556 70.4129 148.428 -28.0853 150.214 -91.3797C149.75 -88.8227 148.842 -86.2089 147.427 -83.587C149.179 -91.0771 149.96 -96.456 148.469 -101.488L162.358 -103.264C162.729 -102.574 163.162 -101.834 163.484 -101.081C164.106 -101.955 164.617 -102.815 165.08 -103.612L183.858 -106.014C185.292 -95.2421 179.151 -81.4573 159.021 -62.2505C174.684 -75.323 187.324 -90.3931 188.518 -106.667L197.629 -107.832C178.129 -81.4969 150.649 -42.5039 132.888 -33.4771C74.735 3.64917 43.6643 70.6325 42.1661 132.641C46.6831 105.27 58.3225 76.1938 75.5706 47.7055C50.656 93.0686 39.0003 143.207 48.1955 183.753C51.5306 195.701 56.2459 206.962 62.354 217.193C81.6023 245.839 117.836 264.251 175.895 263.466C101.375 234 84.1348 138.059 172.443 115.524C200.447 107.117 228.282 111.958 255.802 117.861C220.931 113.636 173.137 105.501 148.989 131.693C178.15 124.387 209.128 123.774 238.857 129.735C206.431 127.411 161.436 116.875 140.066 148.899C146.156 143.976 154.045 135.02 171.823 132.746C146.354 141.113 148.95 148.16 173.639 143.413C131.051 151.698 93.3071 189.904 140.121 229.669C186.935 269.433 228.755 264.425 215.574 275.704C192.127 295.903 105.396 268.964 75.0552 235.266C74.1076 234.479 73.2155 233.685 72.2679 232.898C112.278 279.948 206.353 305.152 256.073 272.284C277.103 258.354 74.8473 235.406 136.167 164.327C152.739 145.121 201.607 138.7 229.143 157.089C211.688 148.65 153.167 150.232 173.045 164.378C187.951 174.96 248.095 174.59 236.828 159.342C230.657 153.036 223.2 148.597 215.096 145.717C215.215 145.758 215.326 145.744 215.444 145.786C146.271 117.509 221.972 129.283 292.774 148.667C302.075 152.075 310.748 152.782 318.775 151.528ZM77.445 237.174C77.445 237.174 105.101 262.247 146.602 271.073C179.218 277.97 206.475 272.554 206.492 271.36C206.494 270.054 173.356 274.519 131.912 262.166C97.9231 252.039 77.445 237.174 77.445 237.174ZM124.301 -33.514C134.44 -42.531 144.587 -51.4921 154.727 -60.5091C145.928 -55.5804 130.205 -41.6487 124.301 -33.514ZM47.394 192.938C46.2352 187.41 40.6642 169.901 40.3657 164.036C29.0973 106.839 47.1488 40.0446 99.8263 -7.22347C34.0893 46.54 17.5195 113.882 47.394 192.938ZM29.2853 103.011C34.6645 87.6779 40.2842 71.5757 45.9935 55.2919C39.4984 65.4321 28.1067 97.7694 29.2853 103.011ZM129.044 280.358C93.4718 268.446 59.737 247.5 39.5371 214.946C50.094 243.625 100.378 282.264 129.044 280.358ZM256.727 153.788C262.154 160.019 265.372 162.219 273.512 173.326C302.448 212.823 165.859 177.502 184.465 211.281C195.793 231.857 257.15 234.795 274.928 232.521C224.896 229.838 190.794 221.03 192.354 206.299C194.792 184.303 357.628 238.972 256.727 153.788ZM5.77428 172.15C4.16221 162.195 0.481688 140.925 1.04344 130.749C-1.03898 139.189 3.03202 160.864 5.77428 172.15ZM57.9047 261.869C55.5221 260.017 53.2435 258.094 51.0061 256.053C53.5371 258.624 55.8785 260.595 57.9047 261.869ZM51.0133 256.109C35.6946 240.528 15.0702 211.718 7.4014 180.456C12.5234 212.555 26.8214 234.283 51.0133 256.109ZM97.2465 -86.9889C100.68 -82.6598 102.615 -77.6849 103.744 -72.834C103.21 -78.3287 101.227 -83.2407 97.2465 -86.9889ZM89.2948 -93.9757L83.6836 -93.258C89.6488 -92.091 94.0472 -89.9289 97.191 -86.9818C95.1671 -89.5612 92.602 -91.9578 89.2948 -93.9757ZM39.3151 226.895C23.2082 202.503 20.0692 192.971 13.9093 173.947C17.589 196.978 20.6876 204.869 39.3151 226.895ZM28.3078 277.689C51.2369 298.03 100.73 305.323 71.7448 281.783C81.3245 299.29 45.6494 289.662 28.3078 277.689ZM60.7321 -74.4849C59.7614 -79.8669 57.8748 -84.9048 54.9056 -89.5771L42.85 -88.0351C46.6611 -86.9331 50.3072 -85.356 53.8097 -83.136C47.9898 -84.4919 42.177 -85.7919 36.1277 -87.1753L30.1832 -86.4149C44.3969 -84.7703 56.1724 -80.9973 60.7321 -74.4849ZM284.185 -118.904L286.992 -96.954C248.028 -107.581 218.337 -90.7269 202.502 -73.2615C186.668 -55.796 162.15 -49.7082 144.276 -35.3878C162.87 -52.4683 190.383 -62.0613 205.058 -81.5354C219.732 -101.01 213.022 -102.706 215.518 -110.121L284.185 -118.904ZM257.099 -108.173C245.176 -106.478 235.554 -100.479 226.254 -93.7263C236.302 -99.0419 246.637 -103.883 257.099 -108.173ZM272.909 239.25C259.691 240.089 245.226 240.009 231.062 238.756C245.487 241.168 259.438 241.2 272.909 239.25ZM234.562 244.041C226.254 242.663 217.854 240.559 209.229 237.575C121.419 202.202 191.586 181.307 226.836 182.758C205.117 176.738 143.197 173.816 165.993 215.631C161.608 211.367 152.903 205.555 152.927 192.496C145.745 224.635 196.637 240.661 234.562 244.041ZM135.622 -26.6744C108.069 -4.58797 92.9742 16.0184 75.619 47.6425C93.2886 18.4758 108.087 -1.3547 135.622 -26.6744ZM316.332 132.427L315.732 127.736C307.449 127.433 282.146 123.403 273.776 121.976C285.507 124.96 313.562 131.079 316.332 132.427ZM63.7946 -90.7141L83.0725 -93.1798C123.548 -77.808 78.1614 -37.5464 72.8839 -13.03C86.3514 -22.0753 105.63 -51.902 103.751 -72.7781C109 -49.8354 96.2157 -28.3891 137.516 -76.7564C144.837 -83.0855 145.23 -91.9343 141.017 -100.591L143.851 -100.954C155.001 -53.5054 61.9076 -16.7349 55.2698 8.18245C78.2096 -0.0876139 41.1834 22.9834 47.4954 25.9793C70.589 6.10949 87.0459 -20.1774 110.732 -39.3851C56.1326 10.513 0.446072 95.1767 12.3362 169.153C-17.0226 78.6786 86.1893 -36.5864 75.6267 -72.8138C70.4375 -90.4284 67.0685 -86.3078 63.7946 -90.7141ZM62.3466 -12.4202C59.0172 -12.8458 53.7386 -6.43738 54.3919 -0.447078C57.426 -4.97901 59.8863 -8.69959 62.3466 -12.4202ZM86.3443 -71.5735C85.3363 -73.7152 84.4124 -75.6405 83.2434 -78.159C81.1283 -73.0634 82.0665 -71.0263 86.3443 -71.5735ZM92.6444 -69.9952C90.6134 -72.6304 90.3331 -79.2361 87.372 -77.6653C88.9157 -75.3083 85.299 -70.4748 92.6444 -69.9952ZM70.3764 -90.0233C78.1156 -72.3375 78.4177 -91.1653 92.0307 -80.5318C90.0552 -87.1476 79.8733 -92.1462 70.3764 -90.0233ZM-8.02611 258.495C10.0602 284.677 21.7804 300.378 66.1975 304.631C38.3852 296.438 16.0404 284.196 -8.02611 258.495ZM-95.3544 273.241L-94.7472 277.988C-66.2593 302.5 -35.9506 331.093 -5.37722 340.125C0.510176 342.891 6.43169 345.483 12.3802 347.844L20.2691 346.835C-0.438281 339.89 -19.4442 330.798 -35.8453 319.556C-54.8599 309.954 -74.9849 290.787 -95.3544 273.241ZM-129.316 7.72391L-129.859 3.47921C-5.48343 -65.9587 -33.9733 90.9509 -35.3053 129.097C-36.6373 167.243 -12.963 237.556 -3.53223 218.582C5.89851 199.608 -37.7577 180.556 20.7776 18.8384C-7.06469 71.3311 -17.4087 158.653 -26.1024 159.992C-34.7961 161.331 -33.8299 131.803 -30.2586 119.994C-22.1536 231.919 28.5306 -101.984 -126.588 -10.6763C-127.828 -9.77973 -129.402 -8.84048 -131.302 -7.80275L-133.038 -21.3746C-87.8221 -52.8158 -61.5427 -71.6172 -21.2647 -76.7691C19.0134 -81.9209 52.051 -77.4616 61.4759 -66.4626C62.9683 8.33306 -78.3262 140.617 44.9959 263.804C70.6337 285.899 60.2369 288.931 33.9904 273.556C7.74386 258.181 -23.153 218.367 -39.8183 167.537C-35.1312 198.442 -26.9315 228.557 -10.3818 252.438C-26.9235 234.8 -35.0508 219.378 -43.4736 183.104C-51.8965 146.83 -47.4965 92.0562 -51.686 50.4724C-48.2437 63.2584 -47.2634 71.3639 -46.299 82.8774C-32.1812 -8.04945 -83.3953 -16.8821 -129.316 7.72391ZM-76.4418 -50.8088C-85.0537 -47.9475 -101.741 -39.796 -107.611 -33.5958C-97.2235 -39.3521 -86.8291 -45.0525 -76.4418 -50.8088ZM38.1669 -66.3763C47.3338 -59.6017 46.457 -46.1498 43.2873 -34.7319C43.7841 -35.7037 44.3294 -36.7384 44.9301 -37.7803C51.0856 -49.6936 47.1497 -60.5999 38.1669 -66.3763ZM38.4972 -59.3797C40.3355 -50.3053 40.3642 -42.1348 38.5984 -32.5427C44.711 -44.7911 44.6775 -54.3234 38.4972 -59.3797ZM-15.7597 -68.1637C-6.92636 -69.2936 1.85148 -70.4163 10.6849 -71.5462C3.09195 -71.3129 -8.24145 -69.8633 -15.7597 -68.1637ZM36.8044 -56.7222C25.4318 -76.3274 -9.17952 -67.9268 -27.6344 -62.5578C-6.9747 -65.2571 20.2857 -73.7392 36.8044 -56.7222ZM36.5325 -33.2435C32.1327 -19.9654 20.7208 -11.183 15.0813 1.2319C22.6908 -0.195535 36.8065 -24.48 36.5325 -33.2435ZM289.372 30.69C276.725 20.1032 275.891 17.996 280.724 9.43069C270.008 16.5914 281.134 27.2025 289.372 30.69ZM248.133 -95.276C260.826 -97.5806 274.213 -95.7735 287.314 -94.4407L287.25 -94.9434C274.121 -98.2594 261.089 -101.701 248.133 -95.276ZM313.317 108.858L312.46 102.156C297.854 99.6531 283.639 97.5545 269.598 97.7042C283.253 100.272 298.766 108.108 313.317 108.858ZM-92.3969 296.363C-67.3313 315.75 -42.1403 335.234 -15.9533 351.468L-4.61991 350.018C-35.5808 329.57 -65.0124 303.419 -93.8971 284.635L-92.3969 296.363ZM-91.8826 300.385L-88.5107 326.746C-71.489 332.687 -52.5189 341.5 -31.509 353.458L-22.8978 352.356C-45.8561 341.499 -69.0678 319.832 -91.8826 300.385ZM303.866 34.9667L299.687 2.29373C296.396 4.81501 292.82 7.31597 288.958 9.79661C286.717 20.528 293.62 29.4655 303.866 34.9667ZM272.606 10.4123C260.58 18.365 270.79 23.587 277.717 29.6263C271.111 19.913 265.142 19.598 272.606 10.4123ZM230.27 -61.884C257.804 -73.5232 272.061 -67.5699 291.665 -60.4273L291.493 -61.7677C271.418 -68.623 260.709 -77.3006 230.27 -61.884ZM297.029 -18.4829L297.022 -18.5388C296.814 -18.3987 296.606 -18.2585 296.399 -18.1184C296.606 -18.2585 296.814 -18.3987 297.029 -18.4829ZM334.882 306.594C336.019 305.767 337.163 304.996 338.299 304.17L337.906 301.098C335.683 303.142 333.39 305.082 331.105 307.077L334.882 306.594ZM-137.873 -64.9193C-138.033 -64.8421 -138.193 -64.7649 -138.296 -64.6949C-138.137 -64.772 -137.977 -64.8492 -137.818 -64.9264L-137.873 -64.9193ZM-138.567 -64.6035C-138.456 -64.6177 -138.408 -64.6807 -138.296 -64.6949C-138.408 -64.6807 -138.456 -64.6177 -138.567 -64.6035ZM-120.151 -67.1861C-126.69 -63.5682 -132.578 -60.6013 -137.753 -58.2365L-135.452 -40.2523C-113.014 -52.8859 -89.7238 -64.1526 -67.2619 -73.951L-120.151 -67.1861ZM85.9362 338.436L95.2697 337.242C81.5441 334.116 44.0777 318.87 39.3744 316.974C57.3819 326.648 73.6718 333.931 85.9362 338.436ZM-125.966 33.9182L-127.18 24.4234C-11.386 -21.6082 -98.184 211.388 6.47224 297.681C-85.2967 254.755 -64.0444 133.965 -82.4735 55.6592C-88.5462 29.8131 -106.223 29.3494 -125.966 33.9182ZM-94.713 26.6284C-62.3789 54.281 -72.6319 122.008 -64.9018 168.758C-69.3762 135.101 -46.1331 31.2 -94.713 26.6284ZM246.66 317.878C275.923 306.074 302.976 289.785 325.337 269.044C327.813 265.889 330.24 262.797 332.571 259.831L331.214 249.219C295.176 278.692 257.333 304.649 218.715 321.452L246.66 317.878ZM10.0461 300.46C17.3606 305.996 25.8599 310.642 35.8005 314.195L10.0461 300.46ZM238.029 111.79C202.002 92.7835 289.999 126.089 315.482 125.781L314.232 116.007C272.67 109.8 165.033 90.7002 238.029 111.79ZM-54.4417 250.978C-45.3041 267.236 -34.6528 293.121 12.2368 310.965C-25.2242 287.374 -39.177 270.994 -54.4417 250.978ZM-92.258 191.501C-87.591 214.745 -73.0692 228.952 -59.9157 241.291C-98.9395 160.453 -58.2221 31.1569 -125.387 38.4421L-124.43 45.9262C-119.141 44.455 -119.197 38.2748 -108.269 42.0427C-80.4259 53.1267 -84.1856 98.3384 -87.6646 120.581C-91.688 100.604 -84.5066 70.224 -105.271 58.859C-124.369 55.2279 -98.9034 81.7155 -101.309 91.1624C-106.734 79.6518 -113.623 72.5858 -121.486 68.9369L-119.7 82.8997C-96.6373 99.8743 -94.5324 155.178 -90.8098 178.543C-101.279 162.91 -107.014 144.116 -114.135 126.408L-102.834 214.765C-87.7613 235.486 -74.5299 258.146 -64.597 275.324C-76.4695 263.73 -88.2063 249.223 -100.241 235.039L-96.7475 262.35C-67.7278 283.955 -37.2636 313.323 -5.9845 331.404C-21.6062 324.49 -36.7255 316.206 -51.1758 306.531C-31.269 320.901 -9.78214 332.173 12.6468 340.658C15.8055 341.956 18.9429 343.088 22.1143 344.045C23.9437 344.662 25.7104 345.231 27.5398 345.848L82.0402 338.877C-37.1047 326.926 -92.2179 222.716 -92.258 191.501ZM324.16 307.965C328.749 304.994 333.261 301.863 337.585 298.585L333.777 268.816C309.391 288.738 285.4 304.238 261.937 315.924L324.16 307.965ZM272.837 137.593C290.222 144.168 304.927 149.213 318.239 147.339L316.418 133.097C315.022 133.219 310.893 132.726 303.1 131.395C335.079 154.949 293.93 145.34 272.837 137.593ZM-84.2316 360.201L-48.898 355.682C-61.6657 350.333 -74.4476 344.872 -86.789 340.207L-84.2316 360.201ZM78.6008 101.415C78.5937 101.359 78.6421 101.296 78.6349 101.24C78.6421 101.296 78.6492 101.352 78.6008 101.415ZM79.0961 99.9892C78.9238 100.409 78.8072 100.821 78.6349 101.24C78.8072 100.821 78.9238 100.409 79.0961 99.9892ZM79.2683 99.5699C79.227 99.6887 79.1786 99.7517 79.1373 99.8705C79.1786 99.7517 79.227 99.6887 79.2683 99.5699ZM79.1373 99.8705C79.1444 99.9263 79.0889 99.9334 79.0961 99.9892C79.0889 99.9334 79.1444 99.9263 79.1373 99.8705ZM83.8295 102.563C54.2266 140.408 80.2122 219.961 87.4642 191.9C101.647 137.238 144.695 83.9922 209.791 102.913C175.767 88.5327 235.516 92.5838 271.754 94.2497C231.604 90.246 189.539 83.1949 152.526 100.19C163.867 93.0632 170.678 89.8079 184.171 88.0253C152.146 88.8292 126.949 99.318 102.647 123.429C78.346 147.541 108.393 73.8766 102.409 71.2361C96.8418 68.7693 84.4498 85.3403 79.2683 99.5699C86.0339 81.3912 98.9214 83.2622 83.8295 102.563ZM78.2024 102.715C78.3119 102.247 78.4842 101.827 78.6008 101.415C78.4842 101.827 78.3191 102.302 78.2024 102.715ZM195.838 86.533C230.003 85.6824 251.605 92.1153 284.577 91.6445C250.573 88.8983 228.032 82.1881 195.838 86.533ZM272.837 137.593C271.891 137.26 270.994 136.864 270.047 136.531C270.89 136.934 271.836 137.267 272.837 137.593ZM-83.1079 -63.6365C-78.1841 -66.1963 -73.2603 -68.7561 -68.3364 -71.3159C-74.6492 -72.552 -78.7984 -67.026 -83.1079 -63.6365ZM-46.2617 -76.6371L-55.4285 -75.4646C-90.8658 -54.9809 -160.725 -17.5495 -46.2617 -76.6371ZM152.877 302.91C179.94 311.426 154.333 317.823 140.116 319.244C161.815 319.818 185.564 308.606 152.877 302.91ZM181.03 305.383C198.654 314.709 177.019 318.611 167.051 321.022C178.18 318.86 209.425 313.274 181.03 305.383ZM211.334 300.826C248.881 311.407 211.897 318.918 192.437 324.813L199.715 323.883C222.386 318.372 255.706 306.049 211.334 300.826ZM311.438 94.1691L311.167 92.0467C305.271 92.7441 299.221 93.1206 293.024 93.2321C299.292 93.6791 305.435 94.0287 311.438 94.1691ZM78.2916 227.019C87.0855 238.382 102.189 246.1 108.443 246.436C100.165 243.521 87.9109 236.006 78.2916 227.019ZM146.412 256.338C66.6942 192.854 125.362 118.253 172.068 103.765C139.433 109.074 77.5288 168.081 100.411 214.539C88.5796 214.747 72.7673 197.072 66.636 178.273C72.8706 206.709 96.7999 234.869 146.412 256.338ZM100.76 234.93C75.9661 217.666 62.302 188.534 59.6192 168.441C59.9092 189.691 68.4581 216.356 100.76 234.93ZM311.889 97.6877L311.696 96.1797C307.59 96.3075 303.415 96.3307 299.162 96.1934C303.735 96.6303 307.975 97.1097 311.889 97.6877ZM287.878 -90.0284L289.3 -78.914C274.42 -82.2332 272.9 -87.9423 237.732 -77.7108C202.564 -67.4794 109.034 -2.7814 92.3849 40.1054C123.177 -9.18845 259.088 -99.6858 292.879 -50.9325L296.194 -25.0175C262.64 3.56966 153.203 27.7851 167.771 47.2087C173.92 53.3475 191.091 58.2468 205.289 45.6454C173.876 42.8516 226.041 15.8574 233.925 11.2728C169.792 51.094 227.496 38.2638 258.064 37.9869C288.633 37.7099 292.094 44.0222 305.431 47.1982L305.609 48.5944C277.381 44.6553 271.892 36.6155 219.919 45.25C279.266 41.2921 254.472 63.7635 306.859 58.3684L310.06 83.3898C254.013 91.0695 235.815 76.8217 194.037 82.1654C152.259 87.5091 127.688 94.0579 112.169 106.488C85.0362 129.656 119.813 61.6305 122.627 51.8475C141.361 -8.73276 58.7141 98.6795 59.6192 168.441C51.819 109.666 94.2014 29.1444 153.773 18.1189C172.519 14.5858 69.9328 121.937 124.941 97.3042C77.9167 100.481 223.385 -2.70557 176.318 4.10934C95.9885 15.7464 67.2512 82.4313 51.8806 141.049C32.6957 53.303 197.024 -94.0179 287.878 -90.0284ZM207.615 49.2646C213.141 51.8503 223.629 49.0896 231.833 48.7782C223.71 48.3981 215.477 46.2724 207.615 49.2646ZM165.201 83.1858C147.385 84.2726 111.266 100.756 136.171 70.3236C105.441 103.772 145.646 87.9008 165.201 83.1858Z" fill="url(#paint2_linear_733_1110)"/>
<rect x="-138.596" y="-64.8269" width="426.225" height="428.491" transform="rotate(-7.28896 -138.596 -64.8269)" fill="white" fill-opacity="0.88"/>
</g>
<path d="M128.734 12.1672C128.463 10.0476 126.525 8.54916 124.405 8.82027L74.9093 15.1511L46.2115 73.3162L54.4361 137.617C54.7072 139.736 56.6452 141.235 58.7648 140.964L139.979 130.576C142.098 130.305 143.597 128.367 143.326 126.247L128.734 12.1672Z" fill="url(#paint3_linear_733_1110)"/>
<path d="M128.734 12.1672C128.463 10.0476 126.525 8.54916 124.405 8.82027L74.9093 15.1511L46.2115 73.3162L54.4361 137.617C54.7072 139.736 56.6452 141.235 58.7648 140.964L139.979 130.576C142.098 130.305 143.597 128.367 143.326 126.247L128.734 12.1672Z" fill="url(#paint4_radial_733_1110)"/>
</g>
</g>
<g filter="url(#filter4_ddddd_733_1110)">
<path d="M74.9093 15.1502L88.7849 32.8344C90.0751 34.4787 89.8262 36.8505 88.2227 38.1911L46.2115 73.3152L74.9093 15.1502Z" fill="#B9B9B9"/>
</g>
<g filter="url(#filter5_d_733_1110)">
<g filter="url(#filter6_biii_733_1110)">
<ellipse cx="114.491" cy="83.1429" rx="37.7346" ry="37.9352" transform="rotate(-7.28896 114.491 83.1429)" fill="url(#paint5_linear_733_1110)"/>
</g>
<g filter="url(#filter7_ddddd_733_1110)">
<path fill-rule="evenodd" clip-rule="evenodd" d="M140.008 112.878C134.407 117.742 127.366 121.058 119.469 122.068C98.0845 124.803 78.5197 109.593 75.7699 88.0944C73.0202 66.596 88.1267 46.9509 109.511 44.2156C130.896 41.4804 150.461 56.6908 153.211 78.1892C154.225 86.118 152.81 93.7948 149.547 100.464L170.479 116.738C173.892 119.391 174.523 124.32 171.888 127.748C169.252 131.175 164.349 131.802 160.936 129.148L140.008 112.878ZM149.984 78.6019C152.504 98.3087 138.657 116.317 119.054 118.824C99.4517 121.331 81.5173 107.388 78.9966 87.6816C76.476 67.9749 90.3236 49.9668 109.926 47.4595C129.529 44.9522 147.463 58.8951 149.984 78.6019Z" fill="#B9B9B9"/>
</g>
</g>
</g>
<defs>
<filter id="filter0_ddddiii_733_1110" x="0.959059" y="4.97339" width="156.15" height="201.481" filterUnits="userSpaceOnUse" color-interpolation-filters="sRGB">
<feFlood flood-opacity="0" result="BackgroundImageFix"/>
<feColorMatrix in="SourceAlpha" type="matrix" values="0 0 0 0 0 0 0 0 0 0 0 0 0 0 0 0 0 0 127 0" result="hardAlpha"/>
<feOffset dy="1.93456"/>
<feGaussianBlur stdDeviation="0.967282"/>
<feColorMatrix type="matrix" values="0 0 0 0 0 0 0 0 0 0 0 0 0 0 0 0 0 0 0.1 0"/>
<feBlend mode="normal" in2="BackgroundImageFix" result="effect1_dropShadow_733_1110"/>
<feColorMatrix in="SourceAlpha" type="matrix" values="0 0 0 0 0 0 0 0 0 0 0 0 0 0 0 0 0 0 127 0" result="hardAlpha"/>
<feOffset dy="3.86913"/>
<feGaussianBlur stdDeviation="1.93456"/>
<feColorMatrix type="matrix" values="0 0 0 0 0 0 0 0 0 0 0 0 0 0 0 0 0 0 0.1 0"/>
<feBlend mode="normal" in2="effect1_dropShadow_733_1110" result="effect2_dropShadow_733_1110"/>
<feColorMatrix in="SourceAlpha" type="matrix" values="0 0 0 0 0 0 0 0 0 0 0 0 0 0 0 0 0 0 127 0" result="hardAlpha"/>
<feOffset dy="7.73826"/>
<feGaussianBlur stdDeviation="3.86913"/>
<feColorMatrix type="matrix" values="0 0 0 0 0 0 0 0 0 0 0 0 0 0 0 0 0 0 0.1 0"/>
<feBlend mode="normal" in2="effect2_dropShadow_733_1110" result="effect3_dropShadow_733_1110"/>
<feColorMatrix in="SourceAlpha" type="matrix" values="0 0 0 0 0 0 0 0 0 0 0 0 0 0 0 0 0 0 127 0" result="hardAlpha"/>
<feOffset dy="23.2148"/>
<feGaussianBlur stdDeviation="11.6074"/>
<feColorMatrix type="matrix" values="0 0 0 0 0 0 0 0 0 0 0 0 0 0 0 0 0 0 0.1 0"/>
<feBlend mode="normal" in2="effect3_dropShadow_733_1110" result="effect4_dropShadow_733_1110"/>
<feBlend mode="normal" in="SourceGraphic" in2="effect4_dropShadow_733_1110" result="shape"/>
<feColorMatrix in="SourceAlpha" type="matrix" values="0 0 0 0 0 0 0 0 0 0 0 0 0 0 0 0 0 0 127 0" result="hardAlpha"/>
<feOffset dy="-1.93456"/>
<feGaussianBlur stdDeviation="0.241821"/>
<feComposite in2="hardAlpha" operator="arithmetic" k2="-1" k3="1"/>
<feColorMatrix type="matrix" values="0 0 0 0 0 0 0 0 0 0 0 0 0 0 0 0 0 0 0.4 0"/>
<feBlend mode="normal" in2="shape" result="effect5_innerShadow_733_1110"/>
<feColorMatrix in="SourceAlpha" type="matrix" values="0 0 0 0 0 0 0 0 0 0 0 0 0 0 0 0 0 0 127 0" result="hardAlpha"/>
<feOffset dx="-0.483641"/>
<feGaussianBlur stdDeviation="0.241821"/>
<feComposite in2="hardAlpha" operator="arithmetic" k2="-1" k3="1"/>
<feColorMatrix type="matrix" values="0 0 0 0 1 0 0 0 0 1 0 0 0 0 1 0 0 0 0.3 0"/>
<feBlend mode="normal" in2="effect5_innerShadow_733_1110" result="effect6_innerShadow_733_1110"/>
<feColorMatrix in="SourceAlpha" type="matrix" values="0 0 0 0 0 0 0 0 0 0 0 0 0 0 0 0 0 0 127 0" result="hardAlpha"/>
<feOffset dx="0.483641"/>
<feGaussianBlur stdDeviation="0.241821"/>
<feComposite in2="hardAlpha" operator="arithmetic" k2="-1" k3="1"/>
<feColorMatrix type="matrix" values="0 0 0 0 1 0 0 0 0 1 0 0 0 0 1 0 0 0 0.3 0"/>
<feBlend mode="normal" in2="effect6_innerShadow_733_1110" result="effect7_innerShadow_733_1110"/>
</filter>
<filter id="filter1_biii_733_1110" x="25.5132" y="0.620621" width="113.218" height="141.88" filterUnits="userSpaceOnUse" color-interpolation-filters="sRGB">
<feFlood flood-opacity="0" result="BackgroundImageFix"/>
<feGaussianBlur in="BackgroundImageFix" stdDeviation="2.41821"/>
<feComposite in2="SourceAlpha" operator="in" result="effect1_backgroundBlur_733_1110"/>
<feBlend mode="normal" in="SourceGraphic" in2="effect1_backgroundBlur_733_1110" result="shape"/>
<feColorMatrix in="SourceAlpha" type="matrix" values="0 0 0 0 0 0 0 0 0 0 0 0 0 0 0 0 0 0 127 0" result="hardAlpha"/>
<feOffset dy="-1.93456"/>
<feGaussianBlur stdDeviation="0.241821"/>
<feComposite in2="hardAlpha" operator="arithmetic" k2="-1" k3="1"/>
<feColorMatrix type="matrix" values="0 0 0 0 0.920833 0 0 0 0 0.920833 0 0 0 0 0.920833 0 0 0 0.1 0"/>
<feBlend mode="normal" in2="shape" result="effect2_innerShadow_733_1110"/>
<feColorMatrix in="SourceAlpha" type="matrix" values="0 0 0 0 0 0 0 0 0 0 0 0 0 0 0 0 0 0 127 0" result="hardAlpha"/>
<feOffset dx="-0.483641"/>
<feGaussianBlur stdDeviation="0.241821"/>
<feComposite in2="hardAlpha" operator="arithmetic" k2="-1" k3="1"/>
<feColorMatrix type="matrix" values="0 0 0 0 0.920833 0 0 0 0 0.920833 0 0 0 0 0.920833 0 0 0 0.1 0"/>
<feBlend mode="normal" in2="effect2_innerShadow_733_1110" result="effect3_innerShadow_733_1110"/>
<feColorMatrix in="SourceAlpha" type="matrix" values="0 0 0 0 0 0 0 0 0 0 0 0 0 0 0 0 0 0 127 0" result="hardAlpha"/>
<feOffset dx="0.483641"/>
<feGaussianBlur stdDeviation="0.241821"/>
<feComposite in2="hardAlpha" operator="arithmetic" k2="-1" k3="1"/>
<feColorMatrix type="matrix" values="0 0 0 0 0.920833 0 0 0 0 0.920833 0 0 0 0 0.920833 0 0 0 0.1 0"/>
<feBlend mode="normal" in2="effect3_innerShadow_733_1110" result="effect4_innerShadow_733_1110"/>
</filter>
<filter id="filter2_biii_733_1110" x="19.3374" y="22.9815" width="113.218" height="141.88" filterUnits="userSpaceOnUse" color-interpolation-filters="sRGB">
<feFlood flood-opacity="0" result="BackgroundImageFix"/>
<feGaussianBlur in="BackgroundImageFix" stdDeviation="2.41821"/>
<feComposite in2="SourceAlpha" operator="in" result="effect1_backgroundBlur_733_1110"/>
<feBlend mode="normal" in="SourceGraphic" in2="effect1_backgroundBlur_733_1110" result="shape"/>
<feColorMatrix in="SourceAlpha" type="matrix" values="0 0 0 0 0 0 0 0 0 0 0 0 0 0 0 0 0 0 127 0" result="hardAlpha"/>
<feOffset dy="-1.93456"/>
<feGaussianBlur stdDeviation="0.241821"/>
<feComposite in2="hardAlpha" operator="arithmetic" k2="-1" k3="1"/>
<feColorMatrix type="matrix" values="0 0 0 0 0.920833 0 0 0 0 0.920833 0 0 0 0 0.920833 0 0 0 0.1 0"/>
<feBlend mode="normal" in2="shape" result="effect2_innerShadow_733_1110"/>
<feColorMatrix in="SourceAlpha" type="matrix" values="0 0 0 0 0 0 0 0 0 0 0 0 0 0 0 0 0 0 127 0" result="hardAlpha"/>
<feOffset dx="-0.483641"/>
<feGaussianBlur stdDeviation="0.241821"/>
<feComposite in2="hardAlpha" operator="arithmetic" k2="-1" k3="1"/>
<feColorMatrix type="matrix" values="0 0 0 0 0.920833 0 0 0 0 0.920833 0 0 0 0 0.920833 0 0 0 0.1 0"/>
<feBlend mode="normal" in2="effect2_innerShadow_733_1110" result="effect3_innerShadow_733_1110"/>
<feColorMatrix in="SourceAlpha" type="matrix" values="0 0 0 0 0 0 0 0 0 0 0 0 0 0 0 0 0 0 127 0" result="hardAlpha"/>
<feOffset dx="0.483641"/>
<feGaussianBlur stdDeviation="0.241821"/>
<feComposite in2="hardAlpha" operator="arithmetic" k2="-1" k3="1"/>
<feColorMatrix type="matrix" values="0 0 0 0 0.920833 0 0 0 0 0.920833 0 0 0 0 0.920833 0 0 0 0.1 0"/>
<feBlend mode="normal" in2="effect3_innerShadow_733_1110" result="effect4_innerShadow_733_1110"/>
</filter>
<filter id="filter3_ddddiii_733_1110" x="22.9967" y="8.30493" width="143.576" height="179.12" filterUnits="userSpaceOnUse" color-interpolation-filters="sRGB">
<feFlood flood-opacity="0" result="BackgroundImageFix"/>
<feColorMatrix in="SourceAlpha" type="matrix" values="0 0 0 0 0 0 0 0 0 0 0 0 0 0 0 0 0 0 127 0" result="hardAlpha"/>
<feOffset dy="1.93456"/>
<feGaussianBlur stdDeviation="0.967282"/>
<feColorMatrix type="matrix" values="0 0 0 0 0 0 0 0 0 0 0 0 0 0 0 0 0 0 0.1 0"/>
<feBlend mode="normal" in2="BackgroundImageFix" result="effect1_dropShadow_733_1110"/>
<feColorMatrix in="SourceAlpha" type="matrix" values="0 0 0 0 0 0 0 0 0 0 0 0 0 0 0 0 0 0 127 0" result="hardAlpha"/>
<feOffset dy="3.86913"/>
<feGaussianBlur stdDeviation="1.93456"/>
<feColorMatrix type="matrix" values="0 0 0 0 0 0 0 0 0 0 0 0 0 0 0 0 0 0 0.1 0"/>
<feBlend mode="normal" in2="effect1_dropShadow_733_1110" result="effect2_dropShadow_733_1110"/>
<feColorMatrix in="SourceAlpha" type="matrix" values="0 0 0 0 0 0 0 0 0 0 0 0 0 0 0 0 0 0 127 0" result="hardAlpha"/>
<feOffset dy="7.73826"/>
<feGaussianBlur stdDeviation="3.86913"/>
<feColorMatrix type="matrix" values="0 0 0 0 0 0 0 0 0 0 0 0 0 0 0 0 0 0 0.1 0"/>
<feBlend mode="normal" in2="effect2_dropShadow_733_1110" result="effect3_dropShadow_733_1110"/>
<feColorMatrix in="SourceAlpha" type="matrix" values="0 0 0 0 0 0 0 0 0 0 0 0 0 0 0 0 0 0 127 0" result="hardAlpha"/>
<feOffset dy="23.2148"/>
<feGaussianBlur stdDeviation="11.6074"/>
<feColorMatrix type="matrix" values="0 0 0 0 0 0 0 0 0 0 0 0 0 0 0 0 0 0 0.1 0"/>
<feBlend mode="normal" in2="effect3_dropShadow_733_1110" result="effect4_dropShadow_733_1110"/>
<feBlend mode="normal" in="SourceGraphic" in2="effect4_dropShadow_733_1110" result="shape"/>
<feColorMatrix in="SourceAlpha" type="matrix" values="0 0 0 0 0 0 0 0 0 0 0 0 0 0 0 0 0 0 127 0" result="hardAlpha"/>
<feOffset dy="-1.93456"/>
<feGaussianBlur stdDeviation="0.241821"/>
<feComposite in2="hardAlpha" operator="arithmetic" k2="-1" k3="1"/>
<feColorMatrix type="matrix" values="0 0 0 0 0 0 0 0 0 0 0 0 0 0 0 0 0 0 0.4 0"/>
<feBlend mode="normal" in2="shape" result="effect5_innerShadow_733_1110"/>
<feColorMatrix in="SourceAlpha" type="matrix" values="0 0 0 0 0 0 0 0 0 0 0 0 0 0 0 0 0 0 127 0" result="hardAlpha"/>
<feOffset dx="-0.483641"/>
<feGaussianBlur stdDeviation="0.241821"/>
<feComposite in2="hardAlpha" operator="arithmetic" k2="-1" k3="1"/>
<feColorMatrix type="matrix" values="0 0 0 0 1 0 0 0 0 1 0 0 0 0 1 0 0 0 0.3 0"/>
<feBlend mode="normal" in2="effect5_innerShadow_733_1110" result="effect6_innerShadow_733_1110"/>
<feColorMatrix in="SourceAlpha" type="matrix" values="0 0 0 0 0 0 0 0 0 0 0 0 0 0 0 0 0 0 127 0" result="hardAlpha"/>
<feOffset dx="0.483641"/>
<feGaussianBlur stdDeviation="0.241821"/>
<feComposite in2="hardAlpha" operator="arithmetic" k2="-1" k3="1"/>
<feColorMatrix type="matrix" values="0 0 0 0 1 0 0 0 0 1 0 0 0 0 1 0 0 0 0.3 0"/>
<feBlend mode="normal" in2="effect6_innerShadow_733_1110" result="effect7_innerShadow_733_1110"/>
</filter>
<filter id="filter4_ddddd_733_1110" x="22.9967" y="15.1501" width="89.8285" height="104.595" filterUnits="userSpaceOnUse" color-interpolation-filters="sRGB">
<feFlood flood-opacity="0" result="BackgroundImageFix"/>
<feColorMatrix in="SourceAlpha" type="matrix" values="0 0 0 0 0 0 0 0 0 0 0 0 0 0 0 0 0 0 127 0" result="hardAlpha"/>
<feOffset dy="0.967282"/>
<feGaussianBlur stdDeviation="0.483641"/>
<feColorMatrix type="matrix" values="0 0 0 0 0 0 0 0 0 0 0 0 0 0 0 0 0 0 0.1 0"/>
<feBlend mode="normal" in2="BackgroundImageFix" result="effect1_dropShadow_733_1110"/>
<feColorMatrix in="SourceAlpha" type="matrix" values="0 0 0 0 0 0 0 0 0 0 0 0 0 0 0 0 0 0 127 0" result="hardAlpha"/>
<feOffset dy="1.93456"/>
<feGaussianBlur stdDeviation="0.967282"/>
<feColorMatrix type="matrix" values="0 0 0 0 0 0 0 0 0 0 0 0 0 0 0 0 0 0 0.1 0"/>
<feBlend mode="normal" in2="effect1_dropShadow_733_1110" result="effect2_dropShadow_733_1110"/>
<feColorMatrix in="SourceAlpha" type="matrix" values="0 0 0 0 0 0 0 0 0 0 0 0 0 0 0 0 0 0 127 0" result="hardAlpha"/>
<feOffset dy="3.86913"/>
<feGaussianBlur stdDeviation="1.93456"/>
<feColorMatrix type="matrix" values="0 0 0 0 0 0 0 0 0 0 0 0 0 0 0 0 0 0 0.1 0"/>
<feBlend mode="normal" in2="effect2_dropShadow_733_1110" result="effect3_dropShadow_733_1110"/>
<feColorMatrix in="SourceAlpha" type="matrix" values="0 0 0 0 0 0 0 0 0 0 0 0 0 0 0 0 0 0 127 0" result="hardAlpha"/>
<feOffset dy="7.73826"/>
<feGaussianBlur stdDeviation="3.86913"/>
<feColorMatrix type="matrix" values="0 0 0 0 0 0 0 0 0 0 0 0 0 0 0 0 0 0 0.1 0"/>
<feBlend mode="normal" in2="effect3_dropShadow_733_1110" result="effect4_dropShadow_733_1110"/>
<feColorMatrix in="SourceAlpha" type="matrix" values="0 0 0 0 0 0 0 0 0 0 0 0 0 0 0 0 0 0 127 0" result="hardAlpha"/>
<feOffset dy="23.2148"/>
<feGaussianBlur stdDeviation="11.6074"/>
<feColorMatrix type="matrix" values="0 0 0 0 0 0 0 0 0 0 0 0 0 0 0 0 0 0 0.1 0"/>
<feBlend mode="normal" in2="effect4_dropShadow_733_1110" result="effect5_dropShadow_733_1110"/>
<feBlend mode="normal" in="SourceGraphic" in2="effect5_dropShadow_733_1110" result="shape"/>
</filter>
<filter id="filter5_d_733_1110" x="64.9468" y="35.3975" width="111.069" height="99.8938" filterUnits="userSpaceOnUse" color-interpolation-filters="sRGB">
<feFlood flood-opacity="0" result="BackgroundImageFix"/>
<feColorMatrix in="SourceAlpha" type="matrix" values="0 0 0 0 0 0 0 0 0 0 0 0 0 0 0 0 0 0 127 0" result="hardAlpha"/>
<feOffset dx="-4" dy="-2"/>
<feGaussianBlur stdDeviation="3.25"/>
<feComposite in2="hardAlpha" operator="out"/>
<feColorMatrix type="matrix" values="0 0 0 0 0 0 0 0 0 0 0 0 0 0 0 0 0 0 1 0"/>
<feBlend mode="normal" in2="BackgroundImageFix" result="effect1_dropShadow_733_1110"/>
<feBlend mode="normal" in="SourceGraphic" in2="effect1_dropShadow_733_1110" result="shape"/>
</filter>
<filter id="filter6_biii_733_1110" x="71.9121" y="40.3704" width="85.1567" height="85.5449" filterUnits="userSpaceOnUse" color-interpolation-filters="sRGB">
<feFlood flood-opacity="0" result="BackgroundImageFix"/>
<feGaussianBlur in="BackgroundImageFix" stdDeviation="2.41821"/>
<feComposite in2="SourceAlpha" operator="in" result="effect1_backgroundBlur_733_1110"/>
<feBlend mode="normal" in="SourceGraphic" in2="effect1_backgroundBlur_733_1110" result="shape"/>
<feColorMatrix in="SourceAlpha" type="matrix" values="0 0 0 0 0 0 0 0 0 0 0 0 0 0 0 0 0 0 127 0" result="hardAlpha"/>
<feOffset dy="-1.93456"/>
<feGaussianBlur stdDeviation="0.241821"/>
<feComposite in2="hardAlpha" operator="arithmetic" k2="-1" k3="1"/>
<feColorMatrix type="matrix" values="0 0 0 0 0.920833 0 0 0 0 0.920833 0 0 0 0 0.920833 0 0 0 0.1 0"/>
<feBlend mode="normal" in2="shape" result="effect2_innerShadow_733_1110"/>
<feColorMatrix in="SourceAlpha" type="matrix" values="0 0 0 0 0 0 0 0 0 0 0 0 0 0 0 0 0 0 127 0" result="hardAlpha"/>
<feOffset dx="-0.483641"/>
<feGaussianBlur stdDeviation="0.241821"/>
<feComposite in2="hardAlpha" operator="arithmetic" k2="-1" k3="1"/>
<feColorMatrix type="matrix" values="0 0 0 0 0.920833 0 0 0 0 0.920833 0 0 0 0 0.920833 0 0 0 0.1 0"/>
<feBlend mode="normal" in2="effect2_innerShadow_733_1110" result="effect3_innerShadow_733_1110"/>
<feColorMatrix in="SourceAlpha" type="matrix" values="0 0 0 0 0 0 0 0 0 0 0 0 0 0 0 0 0 0 127 0" result="hardAlpha"/>
<feOffset dx="0.483641"/>
<feGaussianBlur stdDeviation="0.241821"/>
<feComposite in2="hardAlpha" operator="arithmetic" k2="-1" k3="1"/>
<feColorMatrix type="matrix" values="0 0 0 0 0.920833 0 0 0 0 0.920833 0 0 0 0 0.920833 0 0 0 0.1 0"/>
<feBlend mode="normal" in2="effect3_innerShadow_733_1110" result="effect4_innerShadow_733_1110"/>
</filter>
<filter id="filter7_ddddd_733_1110" x="52.232" y="43.8975" width="144.498" height="133.323" filterUnits="userSpaceOnUse" color-interpolation-filters="sRGB">
<feFlood flood-opacity="0" result="BackgroundImageFix"/>
<feColorMatrix in="SourceAlpha" type="matrix" values="0 0 0 0 0 0 0 0 0 0 0 0 0 0 0 0 0 0 127 0" result="hardAlpha"/>
<feOffset dy="0.967282"/>
<feGaussianBlur stdDeviation="0.483641"/>
<feColorMatrix type="matrix" values="0 0 0 0 0 0 0 0 0 0 0 0 0 0 0 0 0 0 0.1 0"/>
<feBlend mode="normal" in2="BackgroundImageFix" result="effect1_dropShadow_733_1110"/>
<feColorMatrix in="SourceAlpha" type="matrix" values="0 0 0 0 0 0 0 0 0 0 0 0 0 0 0 0 0 0 127 0" result="hardAlpha"/>
<feOffset dy="1.93456"/>
<feGaussianBlur stdDeviation="0.967282"/>
<feColorMatrix type="matrix" values="0 0 0 0 0 0 0 0 0 0 0 0 0 0 0 0 0 0 0.1 0"/>
<feBlend mode="normal" in2="effect1_dropShadow_733_1110" result="effect2_dropShadow_733_1110"/>
<feColorMatrix in="SourceAlpha" type="matrix" values="0 0 0 0 0 0 0 0 0 0 0 0 0 0 0 0 0 0 127 0" result="hardAlpha"/>
<feOffset dy="3.86913"/>
<feGaussianBlur stdDeviation="1.93456"/>
<feColorMatrix type="matrix" values="0 0 0 0 0 0 0 0 0 0 0 0 0 0 0 0 0 0 0.1 0"/>
<feBlend mode="normal" in2="effect2_dropShadow_733_1110" result="effect3_dropShadow_733_1110"/>
<feColorMatrix in="SourceAlpha" type="matrix" values="0 0 0 0 0 0 0 0 0 0 0 0 0 0 0 0 0 0 127 0" result="hardAlpha"/>
<feOffset dy="7.73826"/>
<feGaussianBlur stdDeviation="3.86913"/>
<feColorMatrix type="matrix" values="0 0 0 0 0 0 0 0 0 0 0 0 0 0 0 0 0 0 0.1 0"/>
<feBlend mode="normal" in2="effect3_dropShadow_733_1110" result="effect4_dropShadow_733_1110"/>
<feColorMatrix in="SourceAlpha" type="matrix" values="0 0 0 0 0 0 0 0 0 0 0 0 0 0 0 0 0 0 127 0" result="hardAlpha"/>
<feOffset dy="23.2148"/>
<feGaussianBlur stdDeviation="11.6074"/>
<feColorMatrix type="matrix" values="0 0 0 0 0 0 0 0 0 0 0 0 0 0 0 0 0 0 0.1 0"/>
<feBlend mode="normal" in2="effect4_dropShadow_733_1110" result="effect5_dropShadow_733_1110"/>
<feBlend mode="normal" in="SourceGraphic" in2="effect5_dropShadow_733_1110" result="shape"/>
</filter>
<linearGradient id="paint0_linear_733_1110" x1="74.3354" y1="10.6826" x2="89.9088" y2="132.438" gradientUnits="userSpaceOnUse">
<stop stop-color="#B7B7B7" stop-opacity="0.19"/>
<stop offset="1" stop-color="white" stop-opacity="0.2"/>
</linearGradient>
<linearGradient id="paint1_linear_733_1110" x1="68.1596" y1="33.0435" x2="83.733" y2="154.799" gradientUnits="userSpaceOnUse">
<stop stop-color="#A6A0BA" stop-opacity="0.15"/>
<stop offset="1" stop-opacity="0.2"/>
</linearGradient>
<linearGradient id="paint2_linear_733_1110" x1="72.7946" y1="-91.8652" x2="127.159" y2="333.163" gradientUnits="userSpaceOnUse">
<stop stop-color="white" stop-opacity="0.48"/>
<stop offset="1" stop-color="white" stop-opacity="0"/>
</linearGradient>
<linearGradient id="paint3_linear_733_1110" x1="83.7277" y1="13.4316" x2="99.2535" y2="134.814" gradientUnits="userSpaceOnUse">
<stop stop-color="white" stop-opacity="0.4"/>
<stop offset="0.833333" stop-color="white" stop-opacity="0"/>
<stop offset="1" stop-color="white" stop-opacity="0.3"/>
</linearGradient>
<radialGradient id="paint4_radial_733_1110" cx="0" cy="0" r="1" gradientUnits="userSpaceOnUse" gradientTransform="translate(41.3981 35.6837) rotate(-7.28896) scale(68.7172 146.087)">
<stop stop-color="white" stop-opacity="0.7"/>
<stop offset="1" stop-color="white" stop-opacity="0"/>
</radialGradient>
<linearGradient id="paint5_linear_733_1110" x1="114.491" y1="45.2077" x2="114.491" y2="121.078" gradientUnits="userSpaceOnUse">
<stop stop-color="#A6A0BA" stop-opacity="0.15"/>
<stop offset="1" stop-opacity="0.2"/>
</linearGradient>
<clipPath id="clip0_733_1110">
<rect width="426.225" height="428.491" fill="white" transform="translate(-138.596 -64.8274) rotate(-7.28896)"/>
</clipPath>
</defs>
</svg>
