<svg xmlns="http://www.w3.org/2000/svg" width="44" height="36" fill="none"><rect width="44" height="36" fill="#323232" rx="5"/><path fill="#CCC" d="M8.532 23V12.979h6.87v1.695h-4.846v2.372h4.183v1.695h-4.183V23zm8.552 0V12.979h4.259q1.606 0 2.33.273.733.267 1.17.957t.437 1.58q0 1.127-.663 1.865-.663.732-1.982.923.656.383 1.08.841.43.458 1.155 1.627L26.094 23h-2.42l-1.463-2.18q-.78-1.17-1.066-1.47a1.5 1.5 0 0 0-.609-.417q-.322-.117-1.018-.117h-.41V23zm2.023-5.783h1.498q1.455 0 1.818-.123a1.1 1.1 0 0 0 .567-.424q.205-.3.205-.752 0-.506-.273-.813-.266-.315-.759-.397-.246-.034-1.477-.034h-1.579zM36.231 23h-2.2l-.876-2.276H29.15L28.322 23h-2.146l3.903-10.021h2.14zm-3.725-3.965-1.381-3.719-1.354 3.72z"/></svg>