<svg xmlns="http://www.w3.org/2000/svg" width="44" height="36" fill="none"><rect width="44" height="36" fill="#323232" rx="5"/><path fill="#CCC" d="M8.012 12.979h3.698q1.251 0 1.907.19a3.35 3.35 0 0 1 1.51.924q.63.663.958 1.627.328.957.328 2.365 0 1.238-.308 2.133-.375 1.094-1.073 1.77-.526.513-1.422.8-.67.212-1.79.212H8.011zm2.023 1.695v6.637h1.51q.849 0 1.225-.095.492-.123.813-.417.328-.294.533-.964.205-.677.205-1.839 0-1.163-.205-1.784-.204-.622-.574-.97a1.93 1.93 0 0 0-.937-.473q-.424-.095-1.66-.095zm8.1 8.326V12.979h7.431v1.695H20.16v2.221h5.031v1.689h-5.03v2.727h5.598V23zm9.325-10.021h2.023v5.427q0 1.293.076 1.675.129.615.615.991.492.37 1.34.37.861 0 1.299-.35.437-.355.526-.867.09-.513.089-1.703V12.98h2.023v5.263q0 1.805-.164 2.55t-.608 1.258q-.438.513-1.176.82-.738.3-1.928.3-1.436 0-2.18-.327-.739-.335-1.17-.862a2.8 2.8 0 0 1-.567-1.114q-.198-.861-.198-2.543z"/></svg>