<svg xmlns="http://www.w3.org/2000/svg" width="44" height="36" fill="none"><rect width="44" height="36" fill="#323232" rx="5"/><path fill="#CCC" d="M8.519 23V12.979h3.247q1.845 0 2.406.15.861.225 1.442.984.581.753.581 1.948 0 .924-.335 1.552-.335.63-.854.992-.512.355-1.046.471-.725.144-2.099.144h-1.319V23zm2.023-8.326v2.844h1.107q1.197 0 1.6-.158a1.333 1.333 0 0 0 .861-1.271q0-.547-.32-.902a1.4 1.4 0 0 0-.814-.445q-.362-.068-1.457-.068zM20.112 23v-8.326H17.14v-1.695h7.964v1.695h-2.967V23zm6.31-10.021h4.006q1.19 0 1.77.102.588.096 1.046.41.465.315.773.841.307.52.307 1.169 0 .705-.383 1.292a2.33 2.33 0 0 1-1.025.882q.915.265 1.408.909.492.642.492 1.51 0 .683-.32 1.334-.315.642-.869 1.032-.547.382-1.354.472-.505.054-2.44.068h-3.411zm2.023 1.668v2.317h1.326q1.183 0 1.47-.034.52-.062.814-.356.3-.3.3-.786 0-.464-.26-.752-.252-.294-.758-.355-.3-.034-1.73-.034zm0 3.985v2.68h1.873q1.095 0 1.388-.062.45-.083.732-.396.286-.323.287-.855 0-.45-.22-.766a1.24 1.24 0 0 0-.635-.458q-.41-.143-1.79-.143z"/></svg>