<svg xmlns="http://www.w3.org/2000/svg" width="44" height="36" fill="none"><rect width="44" height="36" fill="#323232" rx="5"/><path fill="#CCC" d="M8.519 23V12.979h7.43v1.695h-5.407v2.221h5.031v1.689h-5.031v2.727h5.599V23zm8.825-3.26 1.968-.192q.178.99.718 1.456.547.465 1.47.465.978 0 1.47-.41.498-.417.499-.971a.9.9 0 0 0-.212-.602q-.205-.252-.725-.437-.355-.123-1.62-.438-1.627-.404-2.283-.99-.923-.828-.923-2.017 0-.765.43-1.43.439-.669 1.252-1.018.82-.348 1.975-.348 1.887 0 2.837.827.957.827 1.005 2.208l-2.023.089q-.13-.773-.56-1.108-.425-.342-1.28-.342-.88 0-1.38.363a.73.73 0 0 0-.321.622q0 .356.3.608.383.322 1.86.67 1.476.348 2.18.725.71.369 1.108 1.018.403.643.403 1.593 0 .861-.478 1.613-.479.753-1.354 1.121-.875.363-2.18.363-1.9 0-2.92-.875-1.017-.882-1.216-2.564m9.85 3.26V12.979h3.247q1.846 0 2.407.15.861.225 1.442.984.58.753.581 1.948 0 .924-.335 1.552-.335.63-.854.992a2.9 2.9 0 0 1-1.046.471q-.725.144-2.099.144h-1.32V23zm2.024-8.326v2.844h1.107q1.196 0 1.6-.158a1.333 1.333 0 0 0 .861-1.271q0-.547-.321-.902a1.4 1.4 0 0 0-.814-.445q-.362-.068-1.456-.068z"/></svg>