<svg width="143" height="172" viewBox="0 0 143 172" fill="none" xmlns="http://www.w3.org/2000/svg">
<g opacity="0.05">
<g filter="url(#filter0_ddddd_733_1156)">
<g filter="url(#filter1_biii_733_1156)">
<rect width="79.6751" height="26.3369" rx="3.86913" transform="matrix(0.999996 -0.00280781 0.0035653 0.999994 31.6572 51.3398)" fill="url(#paint0_linear_733_1156)"/>
</g>
</g>
<g filter="url(#filter2_ddddd_733_1156)">
<g opacity="0.6" filter="url(#filter3_biii_733_1156)">
<path d="M71.2247 11.4809C54.066 11.5582 39.7279 26.5212 39.515 43.8982C39.4392 52.5958 39.4018 61.293 39.4036 69.9904C44.6831 69.9434 49.9626 69.9042 55.2421 69.873C55.2257 61.1115 55.2291 52.3503 55.2518 43.5887C55.2879 34.7102 62.493 27.3184 71.2811 27.2909C80.0695 27.2694 87.3269 34.6206 87.4262 43.4984C87.5114 52.2596 87.5773 61.0206 87.6233 69.782C92.903 69.7833 98.1827 69.7932 103.462 69.8106C103.402 61.1133 103.303 52.4165 103.165 43.7195C102.828 26.3444 88.3839 11.4622 71.2247 11.4809Z" fill="#CCCCCC"/>
</g>
</g>
<g filter="url(#filter4_dddddiii_733_1156)">
<mask id="mask0_733_1156" style="mask-type:alpha" maskUnits="userSpaceOnUse" x="23" y="57" width="97" height="78">
<path fill-rule="evenodd" clip-rule="evenodd" d="M27.3916 57.5756C25.2547 57.5816 23.5286 59.3187 23.5363 61.4555L23.7818 130.333C23.7894 132.47 25.5279 134.197 27.6647 134.191L115.92 133.944C118.057 133.938 119.783 132.201 119.776 130.064L119.53 61.186C119.522 59.0491 117.784 57.3218 115.647 57.3278L27.3916 57.5756ZM71.3794 83.5171C75.5074 83.2509 78.9443 86.5002 78.9511 90.5629C78.9548 92.6613 78.0446 94.552 76.5985 95.8586C76.6047 98.8241 76.6104 101.79 76.6151 104.755C76.617 106.061 75.5657 107.126 74.2675 107.132C72.6999 107.14 71.1326 107.144 69.565 107.145C68.2671 107.146 67.208 106.087 67.2005 104.782C67.1841 101.816 67.1686 98.8506 67.1537 95.8851C65.6061 94.5045 64.6591 92.4585 64.7728 90.1993C64.9509 86.6508 67.824 83.7473 71.3794 83.5171Z" fill="#C4C4C4"/>
</mask>
<g mask="url(#mask0_733_1156)">
<g clip-path="url(#clip0_733_1156)">
<rect width="365.258" height="364.407" transform="matrix(0.999996 -0.00280781 0.0035653 0.999994 -229.045 -104.037)" fill="#CCCCCC"/>
<path d="M-176.76 -32.1162C-184.9 -40.186 -199.308 -42.5398 -223.523 -36.1031C-198.979 -44.5998 -184.763 -42.1018 -176.76 -32.1162ZM137.038 126.796L137.046 129.238C117.79 126.707 99.9498 117.323 81.3461 109.283C117.125 128.576 127.577 138.938 137.082 139.39L137.247 185.455C71.7192 209.295 -20.2075 165.594 19.2292 147.335C36.2881 139.434 113.229 166.656 81.8408 126.856C87.1545 136.418 88.1504 146.471 69.9973 143.649C76.1373 142.626 83.3285 140.259 77.9721 132.23C72.6158 124.2 78.2592 145.445 40.5907 134.633C10.802 126.097 -32.3116 149.682 -4.09415 121.351C-65.3714 166.056 57.6903 218.911 128.462 198.649C119.975 200.923 106.442 201.679 91.1278 200.765C107.062 200.48 122.504 196.941 137.218 190.914L137.27 205.567C84.0223 240.625 34.2782 248.81 -56.3195 214.395C21.7998 262.54 -68.3711 240.143 -70.389 239.574C-63.2305 241.518 -27.6468 246.446 -31.0288 240.23C-34.4108 234.014 -60.9937 236.148 -81.4689 228.209C-73.0245 227.323 -58.0775 232.884 -76.7093 216.942C-40.4615 246.625 -68.6072 214.286 -88.482 199.737C-91.274 197.446 -93.9226 195.011 -96.4756 192.433C-93.8763 194.532 -91.7147 195.005 -90.2808 193.325C-95.6412 184.146 -100.328 175.492 -104.437 167.315C-103.279 168.844 -102.074 170.421 -100.772 171.95C-175.956 18.4485 11.1599 -42.7477 19.3697 -95.9715C18.7052 -93.8626 17.6568 -91.7527 16.1763 -89.6895C18.4583 -95.8252 19.6903 -100.282 18.9547 -104.685L30.9539 -104.719C31.1961 -104.097 31.4864 -103.428 31.6808 -102.758C32.3024 -103.43 32.8279 -104.102 33.3057 -104.726L49.5287 -104.771C49.6096 -95.5296 42.9291 -84.5451 23.7804 -70.4609C38.4822 -79.8398 50.8249 -91.2234 53.5602 -104.83L61.4317 -104.853C42.0647 -84.6863 14.5732 -54.6807 -1.48546 -48.9373C-54.8647 -23.7433 -88.369 29.5036 -96.1986 81.6728C-89.4636 59.052 -76.4914 35.7432 -58.8116 13.5226C-84.7951 49.1744 -100.008 90.255 -96.4745 125.441C-94.9014 135.875 -92.0819 145.876 -87.969 155.154C-74.6283 181.358 -45.7609 200.718 3.69589 206.182C-56.5615 173.454 -61.0804 90.6724 16.4007 80.9735C41.1046 76.8339 64.2644 83.8559 87.0433 91.741C57.835 84.4965 18.0508 72.589 -5.25423 92.1438C20.3173 89.0552 46.7257 91.8063 71.3775 99.9733C44.0478 94.5912 6.8972 80.9523 -14.6613 105.722C-8.96214 102.21 -1.30653 95.4847 14.0525 95.4415C-8.49071 99.8145 -7.02861 106.036 14.4692 104.634C-22.6238 107.133 -58.7611 135.391 -23.1538 173.887C12.4535 212.382 48.5482 212.568 36.1458 220.696C14.071 235.267 -56.8388 203.383 -79.0784 171.745C-79.801 170.981 -80.4757 170.217 -81.1984 169.453C-52.1474 213.378 25.1916 244.573 70.9489 222.082C90.3058 212.547 -79.27 171.841 -19.6081 118.33C-3.4845 103.871 38.7522 103.608 60.2247 122.032C46.2735 113.069 -3.66097 108.229 11.7482 122.264C23.305 132.766 74.4917 138.8 66.522 124.744C61.941 118.771 56.0692 114.238 49.4818 110.953C49.578 111 49.674 111 49.7701 111.048C-6.06589 79.8874 57.0666 97.8108 115.228 121.638C122.778 125.496 130.079 127.007 137.038 126.796ZM-77.2478 173.608C-77.2478 173.608 -56.3791 197.683 -22.0188 209.51C4.9887 218.772 28.7414 217.077 28.8818 216.071C29.0218 214.969 0.368371 215.241 -33.5705 200.444C-61.4043 188.312 -77.2478 173.608 -77.2478 173.608ZM-8.78441 -49.8745C0.791749 -56.4138 10.3681 -62.9052 19.9442 -69.4445C11.9402 -66.2137 -2.90298 -56.1161 -8.78441 -49.8745ZM-98.1271 133.107C-98.5281 128.32 -101.415 112.957 -101.049 107.976C-104.585 58.5198 -82.1721 4.059 -32.3772 -30.271C-93.9648 8.16238 -115.175 63.2423 -98.1271 133.107ZM-104.02 55.3099C-97.8246 42.938 -91.3433 29.9429 -84.7665 16.8038C-91.3621 24.6755 -104.468 50.762 -104.02 55.3099ZM-37.9326 215.493C-66.9243 201.687 -93.3985 180.453 -107.135 150.85C-101.189 176.165 -62.5123 214.077 -37.9326 215.493ZM84.0319 122.157C87.9884 127.988 90.4921 130.183 96.2403 140.415C116.673 176.798 4.24943 132.58 16.5014 163.049C23.9592 181.608 75.8282 190.56 91.1872 190.517C48.9227 182.974 20.8529 171.943 23.737 159.677C28.1355 141.372 160.834 204.687 84.0319 122.157ZM-131.323 111.173C-131.642 102.602 -132.523 84.2648 -130.97 75.7369C-133.633 82.6398 -132.462 101.36 -131.323 111.173ZM-96.4758 192.385C-98.3062 190.57 -100.041 188.708 -101.728 186.749C-99.847 189.186 -98.0643 191.096 -96.4758 192.385ZM-101.727 186.797C-113.107 172.032 -127.601 145.544 -130.818 118.354C-129.855 145.982 -119.993 165.826 -101.727 186.797ZM-26.1385 -97.8549C-23.6763 -93.8394 -22.5567 -89.4371 -22.1097 -85.2244C-21.9825 -89.9176 -23.1499 -94.2719 -26.1385 -97.8549ZM-32.1622 -104.59L-37.0099 -104.576C-32.0604 -102.962 -28.5484 -100.673 -26.1865 -97.8547C-27.635 -100.245 -29.563 -102.538 -32.1622 -104.59ZM-108.587 160.91C-119.706 138.627 -121.368 130.251 -124.595 113.548C-123.901 133.371 -122.1 140.357 -108.587 160.91ZM-123.318 202.612C-105.969 222.196 -64.6507 233.573 -86.8112 210.65C-80.5153 226.434 -109.836 214.545 -123.318 202.612ZM-58.5128 -91.1558C-58.7694 -95.7999 -59.8412 -100.25 -61.8723 -104.506L-72.2876 -104.477C-69.163 -103.145 -66.2291 -101.429 -63.4852 -99.1866C-68.2912 -100.945 -73.0971 -102.655 -78.0952 -104.461L-83.2309 -104.446C-71.3173 -101.559 -61.702 -97.1325 -58.5128 -91.1558ZM136.211 -105.063L136.278 -86.2438C104.265 -99.3224 77.2341 -88.2328 61.9215 -75.165C46.609 -62.0972 25.1152 -59.5468 8.40053 -49.3481C26.0192 -61.7999 50.4313 -66.9922 64.9694 -81.8775C79.5076 -96.7628 73.9802 -98.9022 76.8867 -104.896L136.211 -105.063ZM112.042 -98.8654C101.723 -98.6927 92.9064 -94.6456 84.2837 -89.9286C93.3909 -93.3541 102.692 -96.3491 112.042 -98.8654ZM88.7589 195.983C77.429 195.296 65.136 193.703 53.2236 191.15C65.2356 194.708 77.0963 196.207 88.7589 195.983ZM55.6407 195.98C48.7218 193.94 41.8006 191.278 34.7808 187.85C-36.1547 148.735 25.7254 138.506 55.5494 143.45C37.7161 136.078 -14.6331 127.079 0.332408 164.77C-2.94588 160.709 -9.73428 154.886 -8.33364 143.869C-17.8391 170.232 23.746 189.126 55.6407 195.98ZM0.119941 -42.9082C-25.6465 -27.1774 -40.6614 -11.3809 -58.7638 13.4746C-40.6539 -9.27395 -25.9728 -24.447 0.119941 -42.9082ZM136.979 110.42L136.965 106.397C129.953 105.268 108.861 99.1977 101.894 97.1103C111.554 100.866 134.766 108.989 136.979 110.42ZM-54.1928 -104.528L-37.5379 -104.575C-4.74218 -87.3323 -47.5958 -58.1455 -54.6756 -38.0137C-42.2664 -44.2258 -22.718 -67.3615 -22.1095 -85.1765C-20.0706 -65.2619 -33.2102 -48.513 7.0256 -84.971C13.9209 -89.5395 15.1904 -96.9653 12.5229 -104.715L14.9707 -104.722C19.4374 -63.5053 -63.6184 -42.2983 -71.8974 -21.9716C-51.5148 -26.5301 -85.4415 -10.9678 -80.3903 -7.7737C-58.6506 -22.1046 -41.8765 -42.5509 -19.7026 -56.2605C-71.4101 -19.9139 -127.717 45.6557 -125.426 109.337C-140.829 29.8903 -40.8702 -56.4884 -46.0229 -88.1741C-48.5737 -103.586 -51.8744 -100.464 -54.1928 -104.528ZM-63.7012 -38.6109C-66.4876 -39.3213 -71.654 -34.4704 -71.7317 -29.3465C-68.6724 -32.8507 -66.1868 -35.7308 -63.7012 -38.6109ZM-37.0396 -85.9966C-37.6704 -87.9102 -38.2525 -89.6324 -38.9805 -91.881C-41.3179 -87.8042 -40.7354 -85.9862 -37.0396 -85.9966ZM-31.8488 -83.9999C-33.2974 -86.438 -32.8374 -92.0419 -35.5217 -91.0288C-34.4581 -88.8769 -38.0447 -85.1797 -31.8488 -83.9999ZM-48.6685 -103.251C-43.9567 -87.5095 -41.7093 -103.366 -31.2568 -92.9562C-32.2374 -98.7476 -40.3678 -104.04 -48.6685 -103.251ZM-152.188 182.581C-139.575 206.584 -131.268 221.07 -93.9442 229.345C-116.73 219.497 -134.438 206.809 -152.188 182.581ZM-228.012 185.811L-227.997 189.881C-206.362 213.571 -183.61 240.898 -158.565 251.745C-153.85 254.701 -149.089 257.513 -144.28 260.133L-137.464 260.114C-154.34 252.069 -169.541 242.391 -182.301 231.173C-197.456 221.064 -212.544 202.767 -228.012 185.811ZM-228.824 -41.8344L-228.837 -45.4737C-115.725 -90.9473 -156.541 38.458 -161.707 70.5079C-166.872 102.558 -154.172 164.39 -144.147 149.374C-134.121 134.357 -169.232 113.674 -102.357 -16.6187C-131.584 24.7406 -149.612 97.3376 -157.147 97.5503C-164.681 97.763 -160.738 72.9473 -156.453 63.3582C-161.392 158.664 -82.9904 -117.759 -224.558 -57.074C-225.708 -56.4482 -227.146 -55.8217 -228.871 -55.1465L-228.913 -66.7825C-187.136 -88.544 -162.8 -101.637 -128.003 -101.735C-93.205 -101.833 -65.5807 -94.5837 -58.7284 -84.3076C-65.3665 -21.0323 -199.51 75.6899 -107.658 192.656C-88.1912 214.006 -97.3535 215.468 -118.048 199.724C-138.743 183.98 -160.81 147.122 -169.608 102.47C-168.89 129.044 -165.1 155.322 -153.551 177.222C-165.753 160.592 -171.035 146.72 -174.363 115.221C-177.691 83.7212 -168.158 37.9639 -167.325 2.43057C-165.75 13.5834 -165.773 20.5269 -166.17 30.3445C-144.551 -44.8963 -187.171 -57.7536 -228.824 -41.8344ZM-177.671 -85.6496C-185.297 -84.1437 -200.35 -79.0256 -205.997 -74.4127C-196.555 -78.1743 -187.113 -81.888 -177.671 -85.6496ZM-78.5599 -86.694C-71.4804 -80.0099 -73.6481 -68.7508 -77.5508 -59.4501C-77.0255 -60.2177 -76.4525 -61.0334 -75.8314 -61.8492C-69.3373 -71.2529 -71.5315 -80.8717 -78.5599 -86.694ZM-79.0186 -80.7549C-78.4147 -72.9034 -79.254 -66.0056 -81.7697 -58.0974C-75.2766 -67.7885 -74.2974 -75.836 -79.0186 -80.7549ZM-124.231 -93.8923C-116.599 -93.9137 -109.016 -93.935 -101.384 -93.9564C-107.866 -94.5607 -117.658 -94.5332 -124.231 -93.8923ZM-80.7392 -78.691C-88.338 -96.4352 -118.66 -92.9981 -134.922 -90.4145C-117.067 -90.5125 -92.9879 -94.794 -80.7392 -78.691ZM-83.4525 -58.9067C-88.5979 -48.166 -99.2312 -41.9589 -105.34 -32.0773C-98.7174 -32.479 -84.146 -51.4826 -83.4525 -58.9067ZM124.808 21.7222C115.171 11.4539 114.685 9.58772 119.701 2.86967C109.831 7.7817 118.17 17.91 124.808 21.7222ZM103.054 -88.9278C114.091 -89.5335 125.285 -86.596 136.286 -84.089L136.284 -84.5199C125.47 -88.7035 114.751 -92.9831 103.054 -88.9278ZM136.907 90.2123L136.887 84.4661C124.73 80.813 112.863 77.5422 100.907 76.1871C112.247 79.7946 124.612 88.0441 136.907 90.2123ZM-227.941 205.635C-208.675 224.639 -189.312 243.739 -168.758 260.202L-158.967 260.174C-183.135 239.651 -205.399 214.478 -227.977 195.579L-227.941 205.635ZM-227.929 209.083L-227.848 231.684C-214.001 238.493 -198.8 247.932 -182.197 260.24L-174.758 260.219C-193.134 248.634 -210.583 227.901 -227.929 209.083ZM136.681 26.8605L136.581 -1.15221C133.516 0.628151 130.21 2.36131 126.664 4.04726C123.624 12.8667 128.549 21.1371 136.681 26.8605ZM112.693 2.84146C101.625 8.28359 109.756 13.7676 115.008 19.5949C110.417 10.7011 105.374 9.8054 112.693 2.84146ZM84.333 -62.6341C108.979 -69.5509 120.474 -63.0229 136.39 -54.927L136.386 -56.0763C120.038 -63.9793 111.849 -72.4321 84.333 -62.6341ZM136.518 -18.9654L136.518 -19.0133C136.326 -18.917 136.134 -18.8207 135.943 -18.7244C136.134 -18.8207 136.326 -18.917 136.518 -18.9654ZM134.342 259.351C135.396 258.773 136.45 258.244 137.504 257.666L137.495 255.032C135.388 256.523 133.233 257.917 131.078 259.36L134.342 259.351ZM-228.421 -104.039C-228.565 -103.99 -228.709 -103.942 -228.805 -103.894C-228.661 -103.942 -228.517 -103.991 -228.373 -104.039L-228.421 -104.039ZM-229.045 -103.845C-228.949 -103.846 -228.901 -103.894 -228.805 -103.894C-228.901 -103.894 -228.949 -103.846 -229.045 -103.845ZM-213.11 -104.082C-219.054 -101.719 -224.375 -99.8362 -229.025 -98.3866L-228.97 -82.9676C-208.553 -91.2612 -187.555 -98.3115 -167.417 -104.21L-213.11 -104.082ZM-80.7317 259.955L-72.6683 259.932C-84.0102 255.846 -114.261 239.027 -118.06 236.931C-103.769 246.995 -90.6854 254.859 -80.7317 259.955ZM-228.744 -19.3764L-228.773 -27.5168C-125.433 -54.144 -223.879 133.317 -144.001 217.179C-217.504 171.272 -186.662 71.5835 -194.056 3.5591C-196.488 -18.8923 -211.471 -21.1488 -228.744 -19.3764ZM-201.395 -22.2305C-176.821 4.5163 -192.7 60.5868 -191.069 100.854C-191.316 71.9797 -160.565 -13.2469 -201.395 -22.2305ZM58.1232 259.565C84.2573 252.692 108.985 241.8 130.194 226.657C132.633 224.256 135.025 221.902 137.321 219.645L137.288 210.547C103.525 231.616 68.5989 249.527 33.9808 259.633L58.1232 259.565ZM-141.255 219.901C-135.62 225.344 -128.883 230.162 -120.805 234.209L-141.255 219.901ZM72.5711 84.7424C43.9419 64.9025 115.255 102.292 136.959 104.721L136.929 96.3415C102.241 86.7182 12.7235 59.2439 72.5711 84.7424ZM-190.866 171.341C-184.814 186.025 -178.492 208.992 -140.503 228.997C-169.866 205.137 -180 189.842 -190.866 171.341ZM-216.737 117.159C-215.226 137.267 -204.378 150.788 -194.497 162.588C-219.137 90.2543 -170.842 -14.5589 -228.73 -15.4977L-228.707 -9.08113C-224.054 -9.76459 -223.448 -14.9858 -214.553 -10.6532C-192.047 1.63804 -200.024 39.3942 -205.334 57.7971C-206.643 40.5141 -197.324 15.6354 -213.782 3.85391C-229.639 -1.2253 -210.783 23.8137 -213.827 31.5318C-217.223 21.246 -222.335 14.5564 -228.637 10.6475L-228.594 22.6187C-210.775 39.3765 -214.832 86.2677 -214.136 106.378C-221.387 92.0802 -224.277 75.6158 -228.461 59.9211L-228.191 135.675C-217.563 154.752 -208.707 175.27 -202.076 190.814C-210.946 179.777 -219.394 166.297 -228.129 153.057L-228.045 176.473C-205.651 197.767 -182.848 225.764 -158.159 244.322C-170.713 236.839 -182.695 228.254 -193.961 218.564C-178.551 232.791 -161.47 244.571 -143.293 254.097C-140.744 255.526 -138.196 256.812 -135.6 257.954C-134.109 258.668 -132.667 259.334 -131.177 260.048L-84.0917 259.916C-184.151 237.26 -220.003 143.505 -216.737 117.159ZM125.079 259.377C129.295 257.354 133.463 255.187 137.487 252.877L137.396 227.355C114.552 241.593 92.5109 252.142 71.3223 259.528L125.079 259.377ZM99.4443 110.19C113.534 117.573 125.506 123.381 137.025 123.205L136.981 110.994C135.781 110.95 132.322 110.098 125.836 108.153C150.541 131.403 116.563 118.953 99.4443 110.19ZM-227.746 260.367L-197.22 260.282C-207.513 254.421 -217.805 248.464 -227.807 243.225L-227.746 260.367ZM-61.9127 59.1661C-61.9129 59.1182 -61.865 59.0702 -61.8652 59.0223C-61.865 59.0702 -61.8649 59.1181 -61.9127 59.1661ZM-61.3408 58.0153C-61.5316 58.351 -61.6744 58.6866 -61.8652 59.0223C-61.6744 58.6866 -61.5316 58.351 -61.3408 58.0153ZM-61.15 57.6796C-61.1977 57.7755 -61.2455 57.8235 -61.2932 57.9194C-61.2455 57.8235 -61.1977 57.7755 -61.15 57.6796ZM-61.2932 57.9194C-61.293 57.9673 -61.341 57.9674 -61.3408 58.0153C-61.341 57.9674 -61.293 57.9673 -61.2932 57.9194ZM-57.5875 60.6863C-86.7632 89.4995 -73.0748 159.374 -63.941 136.459C-46.1011 91.8275 -3.86345 51.4373 49.495 74.2724C22.0805 58.5472 72.4644 68.2701 103.105 73.4994C69.384 65.8845 34.3569 55.496 1.08397 65.9326C11.4822 61.1149 17.6187 59.0865 29.2817 59.0058C1.96159 56.3052 -20.5751 62.4978 -43.7904 80.2806C-67.0057 98.0634 -33.6659 39.0707 -38.4758 36.2111C-42.9491 33.5421 -55.2392 46.2183 -61.15 57.6796C-53.4746 43.0529 -42.7127 45.9916 -57.5875 60.6863ZM-62.3889 60.221C-62.2463 59.8375 -62.0555 59.5017 -61.9127 59.1661C-62.0555 59.5017 -62.2461 59.8854 -62.3889 60.221ZM39.3611 58.9775C68.5058 61.8646 86.1963 69.5724 114.286 72.6539C85.6582 66.7486 67.1986 58.7078 39.3611 58.9775ZM99.4443 110.19C98.675 109.809 97.9535 109.38 97.1842 108.999C97.8577 109.428 98.627 109.809 99.4443 110.19ZM-181.984 -97.1779C-177.526 -98.8185 -173.068 -100.459 -168.61 -102.1C-173.848 -103.809 -177.96 -99.5834 -181.984 -97.1779ZM-149.275 -104.261L-157.194 -104.239C-189.496 -90.6922 -252.862 -66.4758 -149.275 -104.261ZM-20.0488 237.039C2.06579 247.08 -20.3873 249.777 -32.6278 249.476C-14.2349 252.25 7.14714 245.294 -20.0488 237.039ZM3.63195 242.096C17.6339 251.825 -1.1775 252.836 -9.90953 253.818C-0.216367 253.168 26.9451 251.751 3.63195 242.096ZM29.8842 241.448C60.6964 254.338 28.4509 256.775 11.2783 259.696L17.5659 259.679C37.4287 257.42 67.0666 250.537 29.8842 241.448ZM136.862 77.6185L136.856 75.7989C131.768 75.7653 126.583 75.4447 121.301 74.8849C126.585 75.9235 131.772 76.8667 136.862 77.6185ZM-75.4541 165.127C-69.177 175.644 -57.1487 183.751 -51.8657 184.694C-58.5972 181.36 -68.2239 173.726 -75.4541 165.127ZM-20.6233 197.056C-81.705 135.072 -23.9265 78.3094 17.3252 71.0108C-10.9896 72.048 -69.8721 115.31 -55.3245 156.93C-65.4078 155.857 -76.9862 139.273 -80.2129 122.761C-77.9172 147.416 -60.5444 173.704 -20.6233 197.056ZM-57.1829 174.174C-76.4431 156.989 -84.9834 130.963 -85.1409 113.725C-87.1407 131.688 -82.6895 155.091 -57.1829 174.174ZM136.873 80.6353L136.868 79.3424C133.363 79.017 129.81 78.596 126.208 78.0315C130.051 78.8827 133.606 79.7346 136.873 80.6353ZM136.299 -80.306L136.333 -70.7769C124.03 -75.1479 123.34 -80.126 92.3517 -75.2026C61.363 -70.2791 -25.0168 -25.551 -43.709 8.8832C-12.3115 -29.4654 112.837 -91.4932 136.419 -46.7866L136.498 -24.568C104.941 -3.98438 9.31393 4.90349 19.6493 22.8315C24.2298 28.6607 38.3142 34.6068 51.7209 25.4709C25.3021 19.7989 72.518 2.5233 79.7067 -0.513667C20.9576 26.3235 71.386 21.5849 97.4112 24.5765C123.436 27.5681 125.713 33.26 136.719 37.3473L136.723 38.5444C113.134 32.2419 109.316 24.8782 64.2045 26.6809C115.092 29.6027 91.6317 45.9496 136.753 46.9243L136.829 68.3767C88.3539 68.9438 74.3849 55.0005 38.2913 55.1018C2.19764 55.2032 -19.3907 58.1369 -33.9023 66.9886C-59.4254 83.6765 -22.6591 29.9416 -19.2316 21.983C3.10392 -27.1623 -78.5355 54.7595 -85.1409 113.725C-85.5606 63.3028 -41.0054 -0.174729 10.821 -3.19337C27.1365 -4.1969 -71.4537 75.5697 -22.0698 60.5866C-62.3957 58.3056 72.2211 -13.4217 31.4741 -12.6369C-38.0692 -11.2924 -69.5577 41.9489 -88.826 89.7926C-95.8649 13.7224 59.4572 -93.2588 136.299 -80.306ZM53.3166 28.7705C57.7422 31.5355 66.9533 30.3125 73.9631 30.9153C67.0953 29.7374 60.3182 27.0749 53.3166 28.7705ZM13.6609 52.9204C-1.60572 51.9576 -34.0639 62.0568 -9.66746 39.0033C-39.3368 63.9871 -3.46735 54.836 13.6609 52.9204Z" fill="#161616"/>
<path d="M-176.76 -32.1162C-184.9 -40.186 -199.308 -42.5398 -223.523 -36.1031C-198.979 -44.5998 -184.763 -42.1018 -176.76 -32.1162ZM137.038 126.796L137.046 129.238C117.79 126.707 99.9498 117.323 81.3461 109.283C117.125 128.576 127.577 138.938 137.082 139.39L137.247 185.455C71.7192 209.295 -20.2075 165.594 19.2292 147.335C36.2881 139.434 113.229 166.656 81.8408 126.856C87.1545 136.418 88.1504 146.471 69.9973 143.649C76.1373 142.626 83.3285 140.259 77.9721 132.23C72.6158 124.2 78.2592 145.445 40.5907 134.633C10.802 126.097 -32.3116 149.682 -4.09415 121.351C-65.3714 166.056 57.6903 218.911 128.462 198.649C119.975 200.923 106.442 201.679 91.1278 200.765C107.062 200.48 122.504 196.941 137.218 190.914L137.27 205.567C84.0223 240.625 34.2782 248.81 -56.3195 214.395C21.7998 262.54 -68.3711 240.143 -70.389 239.574C-63.2305 241.518 -27.6468 246.446 -31.0288 240.23C-34.4108 234.014 -60.9937 236.148 -81.4689 228.209C-73.0245 227.323 -58.0775 232.884 -76.7093 216.942C-40.4615 246.625 -68.6072 214.286 -88.482 199.737C-91.274 197.446 -93.9226 195.011 -96.4756 192.433C-93.8763 194.532 -91.7147 195.005 -90.2808 193.325C-95.6412 184.146 -100.328 175.492 -104.437 167.315C-103.279 168.844 -102.074 170.421 -100.772 171.95C-175.956 18.4485 11.1599 -42.7477 19.3697 -95.9715C18.7052 -93.8626 17.6568 -91.7527 16.1763 -89.6895C18.4583 -95.8252 19.6903 -100.282 18.9547 -104.685L30.9539 -104.719C31.1961 -104.097 31.4864 -103.428 31.6808 -102.758C32.3024 -103.43 32.8279 -104.102 33.3057 -104.726L49.5287 -104.771C49.6096 -95.5296 42.9291 -84.5451 23.7804 -70.4609C38.4822 -79.8398 50.8249 -91.2234 53.5602 -104.83L61.4317 -104.853C42.0647 -84.6863 14.5732 -54.6807 -1.48546 -48.9373C-54.8647 -23.7433 -88.369 29.5036 -96.1986 81.6728C-89.4636 59.052 -76.4914 35.7432 -58.8116 13.5226C-84.7951 49.1744 -100.008 90.255 -96.4745 125.441C-94.9014 135.875 -92.0819 145.876 -87.969 155.154C-74.6283 181.358 -45.7609 200.718 3.69589 206.182C-56.5615 173.454 -61.0804 90.6724 16.4007 80.9735C41.1046 76.8339 64.2644 83.8559 87.0433 91.741C57.835 84.4965 18.0508 72.589 -5.25423 92.1438C20.3173 89.0552 46.7257 91.8063 71.3775 99.9733C44.0478 94.5912 6.8972 80.9523 -14.6613 105.722C-8.96214 102.21 -1.30653 95.4847 14.0525 95.4415C-8.49071 99.8145 -7.02861 106.036 14.4692 104.634C-22.6238 107.133 -58.7611 135.391 -23.1538 173.887C12.4535 212.382 48.5482 212.568 36.1458 220.696C14.071 235.267 -56.8388 203.383 -79.0784 171.745C-79.801 170.981 -80.4757 170.217 -81.1984 169.453C-52.1474 213.378 25.1916 244.573 70.9489 222.082C90.3058 212.547 -79.27 171.841 -19.6081 118.33C-3.4845 103.871 38.7522 103.608 60.2247 122.032C46.2735 113.069 -3.66097 108.229 11.7482 122.264C23.305 132.766 74.4917 138.8 66.522 124.744C61.941 118.771 56.0692 114.238 49.4818 110.953C49.578 111 49.674 111 49.7701 111.048C-6.06589 79.8874 57.0666 97.8108 115.228 121.638C122.778 125.496 130.079 127.007 137.038 126.796ZM-77.2478 173.608C-77.2478 173.608 -56.3791 197.683 -22.0188 209.51C4.9887 218.772 28.7414 217.077 28.8818 216.071C29.0218 214.969 0.368371 215.241 -33.5705 200.444C-61.4043 188.312 -77.2478 173.608 -77.2478 173.608ZM-8.78441 -49.8745C0.791749 -56.4138 10.3681 -62.9052 19.9442 -69.4445C11.9402 -66.2137 -2.90298 -56.1161 -8.78441 -49.8745ZM-98.1271 133.107C-98.5281 128.32 -101.415 112.957 -101.049 107.976C-104.585 58.5198 -82.1721 4.059 -32.3772 -30.271C-93.9648 8.16238 -115.175 63.2423 -98.1271 133.107ZM-104.02 55.3099C-97.8246 42.938 -91.3433 29.9429 -84.7665 16.8038C-91.3621 24.6755 -104.468 50.762 -104.02 55.3099ZM-37.9326 215.493C-66.9243 201.687 -93.3985 180.453 -107.135 150.85C-101.189 176.165 -62.5123 214.077 -37.9326 215.493ZM84.0319 122.157C87.9884 127.988 90.4921 130.183 96.2403 140.415C116.673 176.798 4.24943 132.58 16.5014 163.049C23.9592 181.608 75.8282 190.56 91.1872 190.517C48.9227 182.974 20.8529 171.943 23.737 159.677C28.1355 141.372 160.834 204.687 84.0319 122.157ZM-131.323 111.173C-131.642 102.602 -132.523 84.2648 -130.97 75.7369C-133.633 82.6398 -132.462 101.36 -131.323 111.173ZM-96.4758 192.385C-98.3062 190.57 -100.041 188.708 -101.728 186.749C-99.847 189.186 -98.0643 191.096 -96.4758 192.385ZM-101.727 186.797C-113.107 172.032 -127.601 145.544 -130.818 118.354C-129.855 145.982 -119.993 165.826 -101.727 186.797ZM-26.1385 -97.8549C-23.6763 -93.8394 -22.5567 -89.4371 -22.1097 -85.2244C-21.9825 -89.9176 -23.1499 -94.2719 -26.1385 -97.8549ZM-32.1622 -104.59L-37.0099 -104.576C-32.0604 -102.962 -28.5484 -100.673 -26.1865 -97.8547C-27.635 -100.245 -29.563 -102.538 -32.1622 -104.59ZM-108.587 160.91C-119.706 138.627 -121.368 130.251 -124.595 113.548C-123.901 133.371 -122.1 140.357 -108.587 160.91ZM-123.318 202.612C-105.969 222.196 -64.6507 233.573 -86.8112 210.65C-80.5153 226.434 -109.836 214.545 -123.318 202.612ZM-58.5128 -91.1558C-58.7694 -95.7999 -59.8412 -100.25 -61.8723 -104.506L-72.2876 -104.477C-69.163 -103.145 -66.2291 -101.429 -63.4852 -99.1866C-68.2912 -100.945 -73.0971 -102.655 -78.0952 -104.461L-83.2309 -104.446C-71.3173 -101.559 -61.702 -97.1325 -58.5128 -91.1558ZM136.211 -105.063L136.278 -86.2438C104.265 -99.3224 77.2341 -88.2328 61.9215 -75.165C46.609 -62.0972 25.1152 -59.5468 8.40053 -49.3481C26.0192 -61.7999 50.4313 -66.9922 64.9694 -81.8775C79.5076 -96.7628 73.9802 -98.9022 76.8867 -104.896L136.211 -105.063ZM112.042 -98.8654C101.723 -98.6927 92.9064 -94.6456 84.2837 -89.9286C93.3909 -93.3541 102.692 -96.3491 112.042 -98.8654ZM88.7589 195.983C77.429 195.296 65.136 193.703 53.2236 191.15C65.2356 194.708 77.0963 196.207 88.7589 195.983ZM55.6407 195.98C48.7218 193.94 41.8006 191.278 34.7808 187.85C-36.1547 148.735 25.7254 138.506 55.5494 143.45C37.7161 136.078 -14.6331 127.079 0.332408 164.77C-2.94588 160.709 -9.73428 154.886 -8.33364 143.869C-17.8391 170.232 23.746 189.126 55.6407 195.98ZM0.119941 -42.9082C-25.6465 -27.1774 -40.6614 -11.3809 -58.7638 13.4746C-40.6539 -9.27395 -25.9728 -24.447 0.119941 -42.9082ZM136.979 110.42L136.965 106.397C129.953 105.268 108.861 99.1977 101.894 97.1103C111.554 100.866 134.766 108.989 136.979 110.42ZM-54.1928 -104.528L-37.5379 -104.575C-4.74218 -87.3323 -47.5958 -58.1455 -54.6756 -38.0137C-42.2664 -44.2258 -22.718 -67.3615 -22.1095 -85.1765C-20.0706 -65.2619 -33.2102 -48.513 7.0256 -84.971C13.9209 -89.5395 15.1904 -96.9653 12.5229 -104.715L14.9707 -104.722C19.4374 -63.5053 -63.6184 -42.2983 -71.8974 -21.9716C-51.5148 -26.5301 -85.4415 -10.9678 -80.3903 -7.7737C-58.6506 -22.1046 -41.8765 -42.5509 -19.7026 -56.2605C-71.4101 -19.9139 -127.717 45.6557 -125.426 109.337C-140.829 29.8903 -40.8702 -56.4884 -46.0229 -88.1741C-48.5737 -103.586 -51.8744 -100.464 -54.1928 -104.528ZM-63.7012 -38.6109C-66.4876 -39.3213 -71.654 -34.4704 -71.7317 -29.3465C-68.6724 -32.8507 -66.1868 -35.7308 -63.7012 -38.6109ZM-37.0396 -85.9966C-37.6704 -87.9102 -38.2525 -89.6324 -38.9805 -91.881C-41.3179 -87.8042 -40.7354 -85.9862 -37.0396 -85.9966ZM-31.8488 -83.9999C-33.2974 -86.438 -32.8374 -92.0419 -35.5217 -91.0288C-34.4581 -88.8769 -38.0447 -85.1797 -31.8488 -83.9999ZM-48.6685 -103.251C-43.9567 -87.5095 -41.7093 -103.366 -31.2568 -92.9562C-32.2374 -98.7476 -40.3678 -104.04 -48.6685 -103.251ZM-152.188 182.581C-139.575 206.584 -131.268 221.07 -93.9442 229.345C-116.73 219.497 -134.438 206.809 -152.188 182.581ZM-228.012 185.811L-227.997 189.881C-206.362 213.571 -183.61 240.898 -158.565 251.745C-153.85 254.701 -149.089 257.513 -144.28 260.133L-137.464 260.114C-154.34 252.069 -169.541 242.391 -182.301 231.173C-197.456 221.064 -212.544 202.767 -228.012 185.811ZM-228.824 -41.8344L-228.837 -45.4737C-115.725 -90.9473 -156.541 38.458 -161.707 70.5079C-166.872 102.558 -154.172 164.39 -144.147 149.374C-134.121 134.357 -169.232 113.674 -102.357 -16.6187C-131.584 24.7406 -149.612 97.3376 -157.147 97.5503C-164.681 97.763 -160.738 72.9473 -156.453 63.3582C-161.392 158.664 -82.9904 -117.759 -224.558 -57.074C-225.708 -56.4482 -227.146 -55.8217 -228.871 -55.1465L-228.913 -66.7825C-187.136 -88.544 -162.8 -101.637 -128.003 -101.735C-93.205 -101.833 -65.5807 -94.5837 -58.7284 -84.3076C-65.3665 -21.0323 -199.51 75.6899 -107.658 192.656C-88.1912 214.006 -97.3535 215.468 -118.048 199.724C-138.743 183.98 -160.81 147.122 -169.608 102.47C-168.89 129.044 -165.1 155.322 -153.551 177.222C-165.753 160.592 -171.035 146.72 -174.363 115.221C-177.691 83.7212 -168.158 37.9639 -167.325 2.43057C-165.75 13.5834 -165.773 20.5269 -166.17 30.3445C-144.551 -44.8963 -187.171 -57.7536 -228.824 -41.8344ZM-177.671 -85.6496C-185.297 -84.1437 -200.35 -79.0256 -205.997 -74.4127C-196.555 -78.1743 -187.113 -81.888 -177.671 -85.6496ZM-78.5599 -86.694C-71.4804 -80.0099 -73.6481 -68.7508 -77.5508 -59.4501C-77.0255 -60.2177 -76.4525 -61.0334 -75.8314 -61.8492C-69.3373 -71.2529 -71.5315 -80.8717 -78.5599 -86.694ZM-79.0186 -80.7549C-78.4147 -72.9034 -79.254 -66.0056 -81.7697 -58.0974C-75.2766 -67.7885 -74.2974 -75.836 -79.0186 -80.7549ZM-124.231 -93.8923C-116.599 -93.9137 -109.016 -93.935 -101.384 -93.9564C-107.866 -94.5607 -117.658 -94.5332 -124.231 -93.8923ZM-80.7392 -78.691C-88.338 -96.4352 -118.66 -92.9981 -134.922 -90.4145C-117.067 -90.5125 -92.9879 -94.794 -80.7392 -78.691ZM-83.4525 -58.9067C-88.5979 -48.166 -99.2312 -41.9589 -105.34 -32.0773C-98.7174 -32.479 -84.146 -51.4826 -83.4525 -58.9067ZM124.808 21.7222C115.171 11.4539 114.685 9.58772 119.701 2.86967C109.831 7.7817 118.17 17.91 124.808 21.7222ZM103.054 -88.9278C114.091 -89.5335 125.285 -86.596 136.286 -84.089L136.284 -84.5199C125.47 -88.7035 114.751 -92.9831 103.054 -88.9278ZM136.907 90.2123L136.887 84.4661C124.73 80.813 112.863 77.5422 100.907 76.1871C112.247 79.7946 124.612 88.0441 136.907 90.2123ZM-227.941 205.635C-208.675 224.639 -189.312 243.739 -168.758 260.202L-158.967 260.174C-183.135 239.651 -205.399 214.478 -227.977 195.579L-227.941 205.635ZM-227.929 209.083L-227.848 231.684C-214.001 238.493 -198.8 247.932 -182.197 260.24L-174.758 260.219C-193.134 248.634 -210.583 227.901 -227.929 209.083ZM136.681 26.8605L136.581 -1.15221C133.516 0.628151 130.21 2.36131 126.664 4.04726C123.624 12.8667 128.549 21.1371 136.681 26.8605ZM112.693 2.84146C101.625 8.28359 109.756 13.7676 115.008 19.5949C110.417 10.7011 105.374 9.8054 112.693 2.84146ZM84.333 -62.6341C108.979 -69.5509 120.474 -63.0229 136.39 -54.927L136.386 -56.0763C120.038 -63.9793 111.849 -72.4321 84.333 -62.6341ZM136.518 -18.9654L136.518 -19.0133C136.326 -18.917 136.134 -18.8207 135.943 -18.7244C136.134 -18.8207 136.326 -18.917 136.518 -18.9654ZM134.342 259.351C135.396 258.773 136.45 258.244 137.504 257.666L137.495 255.032C135.388 256.523 133.233 257.917 131.078 259.36L134.342 259.351ZM-228.421 -104.039C-228.565 -103.99 -228.709 -103.942 -228.805 -103.894C-228.661 -103.942 -228.517 -103.991 -228.373 -104.039L-228.421 -104.039ZM-229.045 -103.845C-228.949 -103.846 -228.901 -103.894 -228.805 -103.894C-228.901 -103.894 -228.949 -103.846 -229.045 -103.845ZM-213.11 -104.082C-219.054 -101.719 -224.375 -99.8362 -229.025 -98.3866L-228.97 -82.9676C-208.553 -91.2612 -187.555 -98.3115 -167.417 -104.21L-213.11 -104.082ZM-80.7317 259.955L-72.6683 259.932C-84.0102 255.846 -114.261 239.027 -118.06 236.931C-103.769 246.995 -90.6854 254.859 -80.7317 259.955ZM-228.744 -19.3764L-228.773 -27.5168C-125.433 -54.144 -223.879 133.317 -144.001 217.179C-217.504 171.272 -186.662 71.5835 -194.056 3.5591C-196.488 -18.8923 -211.471 -21.1488 -228.744 -19.3764ZM-201.395 -22.2305C-176.821 4.5163 -192.7 60.5868 -191.069 100.854C-191.316 71.9797 -160.565 -13.2469 -201.395 -22.2305ZM58.1232 259.565C84.2573 252.692 108.985 241.8 130.194 226.657C132.633 224.256 135.025 221.902 137.321 219.645L137.288 210.547C103.525 231.616 68.5989 249.527 33.9808 259.633L58.1232 259.565ZM-141.255 219.901C-135.62 225.344 -128.883 230.162 -120.805 234.209L-141.255 219.901ZM72.5711 84.7424C43.9419 64.9025 115.255 102.292 136.959 104.721L136.929 96.3415C102.241 86.7182 12.7235 59.2439 72.5711 84.7424ZM-190.866 171.341C-184.814 186.025 -178.492 208.992 -140.503 228.997C-169.866 205.137 -180 189.842 -190.866 171.341ZM-216.737 117.159C-215.226 137.267 -204.378 150.788 -194.497 162.588C-219.137 90.2543 -170.842 -14.5589 -228.73 -15.4977L-228.707 -9.08113C-224.054 -9.76459 -223.448 -14.9858 -214.553 -10.6532C-192.047 1.63804 -200.024 39.3942 -205.334 57.7971C-206.643 40.5141 -197.324 15.6354 -213.782 3.85391C-229.639 -1.2253 -210.783 23.8137 -213.827 31.5318C-217.223 21.246 -222.335 14.5564 -228.637 10.6475L-228.594 22.6187C-210.775 39.3765 -214.832 86.2677 -214.136 106.378C-221.387 92.0802 -224.277 75.6158 -228.461 59.9211L-228.191 135.675C-217.563 154.752 -208.707 175.27 -202.076 190.814C-210.946 179.777 -219.394 166.297 -228.129 153.057L-228.045 176.473C-205.651 197.767 -182.848 225.764 -158.159 244.322C-170.713 236.839 -182.695 228.254 -193.961 218.564C-178.551 232.791 -161.47 244.571 -143.293 254.097C-140.744 255.526 -138.196 256.812 -135.6 257.954C-134.109 258.668 -132.667 259.334 -131.177 260.048L-84.0917 259.916C-184.151 237.26 -220.003 143.505 -216.737 117.159ZM125.079 259.377C129.295 257.354 133.463 255.187 137.487 252.877L137.396 227.355C114.552 241.593 92.5109 252.142 71.3223 259.528L125.079 259.377ZM99.4443 110.19C113.534 117.573 125.506 123.381 137.025 123.205L136.981 110.994C135.781 110.95 132.322 110.098 125.836 108.153C150.541 131.403 116.563 118.953 99.4443 110.19ZM-227.746 260.367L-197.22 260.282C-207.513 254.421 -217.805 248.464 -227.807 243.225L-227.746 260.367ZM-61.9127 59.1661C-61.9129 59.1182 -61.865 59.0702 -61.8652 59.0223C-61.865 59.0702 -61.8649 59.1181 -61.9127 59.1661ZM-61.3408 58.0153C-61.5316 58.351 -61.6744 58.6866 -61.8652 59.0223C-61.6744 58.6866 -61.5316 58.351 -61.3408 58.0153ZM-61.15 57.6796C-61.1977 57.7755 -61.2455 57.8235 -61.2932 57.9194C-61.2455 57.8235 -61.1977 57.7755 -61.15 57.6796ZM-61.2932 57.9194C-61.293 57.9673 -61.341 57.9674 -61.3408 58.0153C-61.341 57.9674 -61.293 57.9673 -61.2932 57.9194ZM-57.5875 60.6863C-86.7632 89.4995 -73.0748 159.374 -63.941 136.459C-46.1011 91.8275 -3.86345 51.4373 49.495 74.2724C22.0805 58.5472 72.4644 68.2701 103.105 73.4994C69.384 65.8845 34.3569 55.496 1.08397 65.9326C11.4822 61.1149 17.6187 59.0865 29.2817 59.0058C1.96159 56.3052 -20.5751 62.4978 -43.7904 80.2806C-67.0057 98.0634 -33.6659 39.0707 -38.4758 36.2111C-42.9491 33.5421 -55.2392 46.2183 -61.15 57.6796C-53.4746 43.0529 -42.7127 45.9916 -57.5875 60.6863ZM-62.3889 60.221C-62.2463 59.8375 -62.0555 59.5017 -61.9127 59.1661C-62.0555 59.5017 -62.2461 59.8854 -62.3889 60.221ZM39.3611 58.9775C68.5058 61.8646 86.1963 69.5724 114.286 72.6539C85.6582 66.7486 67.1986 58.7078 39.3611 58.9775ZM99.4443 110.19C98.675 109.809 97.9535 109.38 97.1842 108.999C97.8577 109.428 98.627 109.809 99.4443 110.19ZM-181.984 -97.1779C-177.526 -98.8185 -173.068 -100.459 -168.61 -102.1C-173.848 -103.809 -177.96 -99.5834 -181.984 -97.1779ZM-149.275 -104.261L-157.194 -104.239C-189.496 -90.6922 -252.862 -66.4758 -149.275 -104.261ZM-20.0488 237.039C2.06579 247.08 -20.3873 249.777 -32.6278 249.476C-14.2349 252.25 7.14714 245.294 -20.0488 237.039ZM3.63195 242.096C17.6339 251.825 -1.1775 252.836 -9.90953 253.818C-0.216367 253.168 26.9451 251.751 3.63195 242.096ZM29.8842 241.448C60.6964 254.338 28.4509 256.775 11.2783 259.696L17.5659 259.679C37.4287 257.42 67.0666 250.537 29.8842 241.448ZM136.862 77.6185L136.856 75.7989C131.768 75.7653 126.583 75.4447 121.301 74.8849C126.585 75.9235 131.772 76.8667 136.862 77.6185ZM-75.4541 165.127C-69.177 175.644 -57.1487 183.751 -51.8657 184.694C-58.5972 181.36 -68.2239 173.726 -75.4541 165.127ZM-20.6233 197.056C-81.705 135.072 -23.9265 78.3094 17.3252 71.0108C-10.9896 72.048 -69.8721 115.31 -55.3245 156.93C-65.4078 155.857 -76.9862 139.273 -80.2129 122.761C-77.9172 147.416 -60.5444 173.704 -20.6233 197.056ZM-57.1829 174.174C-76.4431 156.989 -84.9834 130.963 -85.1409 113.725C-87.1407 131.688 -82.6895 155.091 -57.1829 174.174ZM136.873 80.6353L136.868 79.3424C133.363 79.017 129.81 78.596 126.208 78.0315C130.051 78.8827 133.606 79.7346 136.873 80.6353ZM136.299 -80.306L136.333 -70.7769C124.03 -75.1479 123.34 -80.126 92.3517 -75.2026C61.363 -70.2791 -25.0168 -25.551 -43.709 8.8832C-12.3115 -29.4654 112.837 -91.4932 136.419 -46.7866L136.498 -24.568C104.941 -3.98438 9.31393 4.90349 19.6493 22.8315C24.2298 28.6607 38.3142 34.6068 51.7209 25.4709C25.3021 19.7989 72.518 2.5233 79.7067 -0.513667C20.9576 26.3235 71.386 21.5849 97.4112 24.5765C123.436 27.5681 125.713 33.26 136.719 37.3473L136.723 38.5444C113.134 32.2419 109.316 24.8782 64.2045 26.6809C115.092 29.6027 91.6317 45.9496 136.753 46.9243L136.829 68.3767C88.3539 68.9438 74.3849 55.0005 38.2913 55.1018C2.19764 55.2032 -19.3907 58.1369 -33.9023 66.9886C-59.4254 83.6765 -22.6591 29.9416 -19.2316 21.983C3.10392 -27.1623 -78.5355 54.7595 -85.1409 113.725C-85.5606 63.3028 -41.0054 -0.174729 10.821 -3.19337C27.1365 -4.1969 -71.4537 75.5697 -22.0698 60.5866C-62.3957 58.3056 72.2211 -13.4217 31.4741 -12.6369C-38.0692 -11.2924 -69.5577 41.9489 -88.826 89.7926C-95.8649 13.7224 59.4572 -93.2588 136.299 -80.306ZM53.3166 28.7705C57.7422 31.5355 66.9533 30.3125 73.9631 30.9153C67.0953 29.7374 60.3182 27.0749 53.3166 28.7705ZM13.6609 52.9204C-1.60572 51.9576 -34.0639 62.0568 -9.66746 39.0033C-39.3368 63.9871 -3.46735 54.836 13.6609 52.9204Z" fill="url(#paint1_linear_733_1156)"/>
<rect width="365.258" height="364.407" transform="matrix(0.999996 -0.00280781 0.0035653 0.999994 -229.045 -104.037)" fill="#CCCCCC"/>
</g>
<g filter="url(#filter5_d_733_1156)">
<path fill-rule="evenodd" clip-rule="evenodd" d="M27.3916 57.5756C25.2547 57.5816 23.5286 59.3187 23.5363 61.4555L23.7818 130.333C23.7894 132.47 25.5279 134.197 27.6647 134.191L115.92 133.944C118.057 133.938 119.783 132.201 119.776 130.064L119.53 61.186C119.522 59.0491 117.784 57.3218 115.647 57.3278L27.3916 57.5756ZM71.3794 83.5171C75.5074 83.2509 78.9443 86.5002 78.9511 90.5629C78.9548 92.6613 78.0446 94.552 76.5985 95.8586C76.6047 98.8241 76.6104 101.79 76.6151 104.755C76.617 106.061 75.5657 107.126 74.2675 107.132C72.6999 107.14 71.1326 107.144 69.565 107.145C68.2671 107.146 67.208 106.087 67.2005 104.782C67.1841 101.816 67.1686 98.8506 67.1537 95.8851C65.6061 94.5045 64.6591 92.4585 64.7728 90.1993C64.9509 86.6508 67.824 83.7473 71.3794 83.5171Z" fill="url(#paint2_linear_733_1156)" shape-rendering="crispEdges"/>
<path fill-rule="evenodd" clip-rule="evenodd" d="M27.3916 57.5756C25.2547 57.5816 23.5286 59.3187 23.5363 61.4555L23.7818 130.333C23.7894 132.47 25.5279 134.197 27.6647 134.191L115.92 133.944C118.057 133.938 119.783 132.201 119.776 130.064L119.53 61.186C119.522 59.0491 117.784 57.3218 115.647 57.3278L27.3916 57.5756ZM71.3794 83.5171C75.5074 83.2509 78.9443 86.5002 78.9511 90.5629C78.9548 92.6613 78.0446 94.552 76.5985 95.8586C76.6047 98.8241 76.6104 101.79 76.6151 104.755C76.617 106.061 75.5657 107.126 74.2675 107.132C72.6999 107.14 71.1326 107.144 69.565 107.145C68.2671 107.146 67.208 106.087 67.2005 104.782C67.1841 101.816 67.1686 98.8506 67.1537 95.8851C65.6061 94.5045 64.6591 92.4585 64.7728 90.1993C64.9509 86.6508 67.824 83.7473 71.3794 83.5171Z" fill="url(#paint3_radial_733_1156)" shape-rendering="crispEdges"/>
</g>
</g>
</g>
</g>
<defs>
<filter id="filter0_ddddd_733_1156" x="8.45613" y="51.127" width="126.171" height="72.9684" filterUnits="userSpaceOnUse" color-interpolation-filters="sRGB">
<feFlood flood-opacity="0" result="BackgroundImageFix"/>
<feColorMatrix in="SourceAlpha" type="matrix" values="0 0 0 0 0 0 0 0 0 0 0 0 0 0 0 0 0 0 127 0" result="hardAlpha"/>
<feOffset dy="0.967282"/>
<feGaussianBlur stdDeviation="0.483641"/>
<feColorMatrix type="matrix" values="0 0 0 0 0 0 0 0 0 0 0 0 0 0 0 0 0 0 0.1 0"/>
<feBlend mode="normal" in2="BackgroundImageFix" result="effect1_dropShadow_733_1156"/>
<feColorMatrix in="SourceAlpha" type="matrix" values="0 0 0 0 0 0 0 0 0 0 0 0 0 0 0 0 0 0 127 0" result="hardAlpha"/>
<feOffset dy="1.93456"/>
<feGaussianBlur stdDeviation="0.967282"/>
<feColorMatrix type="matrix" values="0 0 0 0 0 0 0 0 0 0 0 0 0 0 0 0 0 0 0.1 0"/>
<feBlend mode="normal" in2="effect1_dropShadow_733_1156" result="effect2_dropShadow_733_1156"/>
<feColorMatrix in="SourceAlpha" type="matrix" values="0 0 0 0 0 0 0 0 0 0 0 0 0 0 0 0 0 0 127 0" result="hardAlpha"/>
<feOffset dy="3.86913"/>
<feGaussianBlur stdDeviation="1.93456"/>
<feColorMatrix type="matrix" values="0 0 0 0 0 0 0 0 0 0 0 0 0 0 0 0 0 0 0.1 0"/>
<feBlend mode="normal" in2="effect2_dropShadow_733_1156" result="effect3_dropShadow_733_1156"/>
<feColorMatrix in="SourceAlpha" type="matrix" values="0 0 0 0 0 0 0 0 0 0 0 0 0 0 0 0 0 0 127 0" result="hardAlpha"/>
<feOffset dy="7.73826"/>
<feGaussianBlur stdDeviation="3.86913"/>
<feColorMatrix type="matrix" values="0 0 0 0 0 0 0 0 0 0 0 0 0 0 0 0 0 0 0.1 0"/>
<feBlend mode="normal" in2="effect3_dropShadow_733_1156" result="effect4_dropShadow_733_1156"/>
<feColorMatrix in="SourceAlpha" type="matrix" values="0 0 0 0 0 0 0 0 0 0 0 0 0 0 0 0 0 0 127 0" result="hardAlpha"/>
<feOffset dy="23.2148"/>
<feGaussianBlur stdDeviation="11.6074"/>
<feColorMatrix type="matrix" values="0 0 0 0 0 0 0 0 0 0 0 0 0 0 0 0 0 0 0.1 0"/>
<feBlend mode="normal" in2="effect4_dropShadow_733_1156" result="effect5_dropShadow_733_1156"/>
<feBlend mode="normal" in="SourceGraphic" in2="effect5_dropShadow_733_1156" result="shape"/>
</filter>
<filter id="filter1_biii_733_1156" x="26.8345" y="46.2905" width="89.414" height="36.2116" filterUnits="userSpaceOnUse" color-interpolation-filters="sRGB">
<feFlood flood-opacity="0" result="BackgroundImageFix"/>
<feGaussianBlur in="BackgroundImageFix" stdDeviation="2.41821"/>
<feComposite in2="SourceAlpha" operator="in" result="effect1_backgroundBlur_733_1156"/>
<feBlend mode="normal" in="SourceGraphic" in2="effect1_backgroundBlur_733_1156" result="shape"/>
<feColorMatrix in="SourceAlpha" type="matrix" values="0 0 0 0 0 0 0 0 0 0 0 0 0 0 0 0 0 0 127 0" result="hardAlpha"/>
<feOffset dy="-1.93456"/>
<feGaussianBlur stdDeviation="0.241821"/>
<feComposite in2="hardAlpha" operator="arithmetic" k2="-1" k3="1"/>
<feColorMatrix type="matrix" values="0 0 0 0 0.920833 0 0 0 0 0.920833 0 0 0 0 0.920833 0 0 0 0.1 0"/>
<feBlend mode="normal" in2="shape" result="effect2_innerShadow_733_1156"/>
<feColorMatrix in="SourceAlpha" type="matrix" values="0 0 0 0 0 0 0 0 0 0 0 0 0 0 0 0 0 0 127 0" result="hardAlpha"/>
<feOffset dx="-0.483641"/>
<feGaussianBlur stdDeviation="0.241821"/>
<feComposite in2="hardAlpha" operator="arithmetic" k2="-1" k3="1"/>
<feColorMatrix type="matrix" values="0 0 0 0 0.920833 0 0 0 0 0.920833 0 0 0 0 0.920833 0 0 0 0.1 0"/>
<feBlend mode="normal" in2="effect2_innerShadow_733_1156" result="effect3_innerShadow_733_1156"/>
<feColorMatrix in="SourceAlpha" type="matrix" values="0 0 0 0 0 0 0 0 0 0 0 0 0 0 0 0 0 0 127 0" result="hardAlpha"/>
<feOffset dx="0.483641"/>
<feGaussianBlur stdDeviation="0.241821"/>
<feComposite in2="hardAlpha" operator="arithmetic" k2="-1" k3="1"/>
<feColorMatrix type="matrix" values="0 0 0 0 0.920833 0 0 0 0 0.920833 0 0 0 0 0.920833 0 0 0 0.1 0"/>
<feBlend mode="normal" in2="effect3_innerShadow_733_1156" result="effect4_innerShadow_733_1156"/>
</filter>
<filter id="filter2_ddddd_733_1156" x="16.1886" y="11.481" width="110.489" height="104.939" filterUnits="userSpaceOnUse" color-interpolation-filters="sRGB">
<feFlood flood-opacity="0" result="BackgroundImageFix"/>
<feColorMatrix in="SourceAlpha" type="matrix" values="0 0 0 0 0 0 0 0 0 0 0 0 0 0 0 0 0 0 127 0" result="hardAlpha"/>
<feOffset dy="0.967282"/>
<feGaussianBlur stdDeviation="0.483641"/>
<feColorMatrix type="matrix" values="0 0 0 0 0 0 0 0 0 0 0 0 0 0 0 0 0 0 0.1 0"/>
<feBlend mode="normal" in2="BackgroundImageFix" result="effect1_dropShadow_733_1156"/>
<feColorMatrix in="SourceAlpha" type="matrix" values="0 0 0 0 0 0 0 0 0 0 0 0 0 0 0 0 0 0 127 0" result="hardAlpha"/>
<feOffset dy="1.93456"/>
<feGaussianBlur stdDeviation="0.967282"/>
<feColorMatrix type="matrix" values="0 0 0 0 0 0 0 0 0 0 0 0 0 0 0 0 0 0 0.1 0"/>
<feBlend mode="normal" in2="effect1_dropShadow_733_1156" result="effect2_dropShadow_733_1156"/>
<feColorMatrix in="SourceAlpha" type="matrix" values="0 0 0 0 0 0 0 0 0 0 0 0 0 0 0 0 0 0 127 0" result="hardAlpha"/>
<feOffset dy="3.86913"/>
<feGaussianBlur stdDeviation="1.93456"/>
<feColorMatrix type="matrix" values="0 0 0 0 0 0 0 0 0 0 0 0 0 0 0 0 0 0 0.1 0"/>
<feBlend mode="normal" in2="effect2_dropShadow_733_1156" result="effect3_dropShadow_733_1156"/>
<feColorMatrix in="SourceAlpha" type="matrix" values="0 0 0 0 0 0 0 0 0 0 0 0 0 0 0 0 0 0 127 0" result="hardAlpha"/>
<feOffset dy="7.73826"/>
<feGaussianBlur stdDeviation="3.86913"/>
<feColorMatrix type="matrix" values="0 0 0 0 0 0 0 0 0 0 0 0 0 0 0 0 0 0 0.1 0"/>
<feBlend mode="normal" in2="effect3_dropShadow_733_1156" result="effect4_dropShadow_733_1156"/>
<feColorMatrix in="SourceAlpha" type="matrix" values="0 0 0 0 0 0 0 0 0 0 0 0 0 0 0 0 0 0 127 0" result="hardAlpha"/>
<feOffset dy="23.2148"/>
<feGaussianBlur stdDeviation="11.6074"/>
<feColorMatrix type="matrix" values="0 0 0 0 0 0 0 0 0 0 0 0 0 0 0 0 0 0 0.1 0"/>
<feBlend mode="normal" in2="effect4_dropShadow_733_1156" result="effect5_dropShadow_733_1156"/>
<feBlend mode="normal" in="SourceGraphic" in2="effect5_dropShadow_733_1156" result="shape"/>
</filter>
<filter id="filter3_biii_733_1156" x="34.5669" y="6.64455" width="73.7319" height="68.1823" filterUnits="userSpaceOnUse" color-interpolation-filters="sRGB">
<feFlood flood-opacity="0" result="BackgroundImageFix"/>
<feGaussianBlur in="BackgroundImageFix" stdDeviation="2.41821"/>
<feComposite in2="SourceAlpha" operator="in" result="effect1_backgroundBlur_733_1156"/>
<feBlend mode="normal" in="SourceGraphic" in2="effect1_backgroundBlur_733_1156" result="shape"/>
<feColorMatrix in="SourceAlpha" type="matrix" values="0 0 0 0 0 0 0 0 0 0 0 0 0 0 0 0 0 0 127 0" result="hardAlpha"/>
<feOffset dy="-1.93456"/>
<feGaussianBlur stdDeviation="0.241821"/>
<feComposite in2="hardAlpha" operator="arithmetic" k2="-1" k3="1"/>
<feColorMatrix type="matrix" values="0 0 0 0 0.920833 0 0 0 0 0.920833 0 0 0 0 0.920833 0 0 0 0.1 0"/>
<feBlend mode="normal" in2="shape" result="effect2_innerShadow_733_1156"/>
<feColorMatrix in="SourceAlpha" type="matrix" values="0 0 0 0 0 0 0 0 0 0 0 0 0 0 0 0 0 0 127 0" result="hardAlpha"/>
<feOffset dx="-0.483641"/>
<feGaussianBlur stdDeviation="0.241821"/>
<feComposite in2="hardAlpha" operator="arithmetic" k2="-1" k3="1"/>
<feColorMatrix type="matrix" values="0 0 0 0 0.920833 0 0 0 0 0.920833 0 0 0 0 0.920833 0 0 0 0.1 0"/>
<feBlend mode="normal" in2="effect2_innerShadow_733_1156" result="effect3_innerShadow_733_1156"/>
<feColorMatrix in="SourceAlpha" type="matrix" values="0 0 0 0 0 0 0 0 0 0 0 0 0 0 0 0 0 0 127 0" result="hardAlpha"/>
<feOffset dx="0.483641"/>
<feGaussianBlur stdDeviation="0.241821"/>
<feComposite in2="hardAlpha" operator="arithmetic" k2="-1" k3="1"/>
<feColorMatrix type="matrix" values="0 0 0 0 0.920833 0 0 0 0 0.920833 0 0 0 0 0.920833 0 0 0 0.1 0"/>
<feBlend mode="normal" in2="effect3_innerShadow_733_1156" result="effect4_innerShadow_733_1156"/>
</filter>
<filter id="filter4_dddddiii_733_1156" x="0.321363" y="49.3276" width="142.669" height="131.293" filterUnits="userSpaceOnUse" color-interpolation-filters="sRGB">
<feFlood flood-opacity="0" result="BackgroundImageFix"/>
<feColorMatrix in="SourceAlpha" type="matrix" values="0 0 0 0 0 0 0 0 0 0 0 0 0 0 0 0 0 0 127 0" result="hardAlpha"/>
<feOffset dy="1.93456"/>
<feGaussianBlur stdDeviation="0.967282"/>
<feColorMatrix type="matrix" values="0 0 0 0 0 0 0 0 0 0 0 0 0 0 0 0 0 0 0.1 0"/>
<feBlend mode="normal" in2="BackgroundImageFix" result="effect1_dropShadow_733_1156"/>
<feColorMatrix in="SourceAlpha" type="matrix" values="0 0 0 0 0 0 0 0 0 0 0 0 0 0 0 0 0 0 127 0" result="hardAlpha"/>
<feOffset dy="3.86913"/>
<feGaussianBlur stdDeviation="1.93456"/>
<feColorMatrix type="matrix" values="0 0 0 0 0 0 0 0 0 0 0 0 0 0 0 0 0 0 0.1 0"/>
<feBlend mode="normal" in2="effect1_dropShadow_733_1156" result="effect2_dropShadow_733_1156"/>
<feColorMatrix in="SourceAlpha" type="matrix" values="0 0 0 0 0 0 0 0 0 0 0 0 0 0 0 0 0 0 127 0" result="hardAlpha"/>
<feOffset dy="7.73826"/>
<feGaussianBlur stdDeviation="3.86913"/>
<feColorMatrix type="matrix" values="0 0 0 0 0 0 0 0 0 0 0 0 0 0 0 0 0 0 0.1 0"/>
<feBlend mode="normal" in2="effect2_dropShadow_733_1156" result="effect3_dropShadow_733_1156"/>
<feColorMatrix in="SourceAlpha" type="matrix" values="0 0 0 0 0 0 0 0 0 0 0 0 0 0 0 0 0 0 127 0" result="hardAlpha"/>
<feOffset dy="23.2148"/>
<feGaussianBlur stdDeviation="11.6074"/>
<feColorMatrix type="matrix" values="0 0 0 0 0 0 0 0 0 0 0 0 0 0 0 0 0 0 0.1 0"/>
<feBlend mode="normal" in2="effect3_dropShadow_733_1156" result="effect4_dropShadow_733_1156"/>
<feColorMatrix in="SourceAlpha" type="matrix" values="0 0 0 0 0 0 0 0 0 0 0 0 0 0 0 0 0 0 127 0" result="hardAlpha"/>
<feOffset dy="-2"/>
<feGaussianBlur stdDeviation="3"/>
<feComposite in2="hardAlpha" operator="out"/>
<feColorMatrix type="matrix" values="0 0 0 0 0 0 0 0 0 0 0 0 0 0 0 0 0 0 0.8 0"/>
<feBlend mode="normal" in2="effect4_dropShadow_733_1156" result="effect5_dropShadow_733_1156"/>
<feBlend mode="normal" in="SourceGraphic" in2="effect5_dropShadow_733_1156" result="shape"/>
<feColorMatrix in="SourceAlpha" type="matrix" values="0 0 0 0 0 0 0 0 0 0 0 0 0 0 0 0 0 0 127 0" result="hardAlpha"/>
<feOffset dy="-1.93456"/>
<feGaussianBlur stdDeviation="0.241821"/>
<feComposite in2="hardAlpha" operator="arithmetic" k2="-1" k3="1"/>
<feColorMatrix type="matrix" values="0 0 0 0 0 0 0 0 0 0 0 0 0 0 0 0 0 0 0.4 0"/>
<feBlend mode="normal" in2="shape" result="effect6_innerShadow_733_1156"/>
<feColorMatrix in="SourceAlpha" type="matrix" values="0 0 0 0 0 0 0 0 0 0 0 0 0 0 0 0 0 0 127 0" result="hardAlpha"/>
<feOffset dx="-0.483641"/>
<feGaussianBlur stdDeviation="0.241821"/>
<feComposite in2="hardAlpha" operator="arithmetic" k2="-1" k3="1"/>
<feColorMatrix type="matrix" values="0 0 0 0 1 0 0 0 0 1 0 0 0 0 1 0 0 0 0.3 0"/>
<feBlend mode="normal" in2="effect6_innerShadow_733_1156" result="effect7_innerShadow_733_1156"/>
<feColorMatrix in="SourceAlpha" type="matrix" values="0 0 0 0 0 0 0 0 0 0 0 0 0 0 0 0 0 0 127 0" result="hardAlpha"/>
<feOffset dx="0.483641"/>
<feGaussianBlur stdDeviation="0.241821"/>
<feComposite in2="hardAlpha" operator="arithmetic" k2="-1" k3="1"/>
<feColorMatrix type="matrix" values="0 0 0 0 1 0 0 0 0 1 0 0 0 0 1 0 0 0 0.3 0"/>
<feBlend mode="normal" in2="effect7_innerShadow_733_1156" result="effect8_innerShadow_733_1156"/>
</filter>
<filter id="filter5_d_733_1156" x="19.5361" y="57.3276" width="104.24" height="109.864" filterUnits="userSpaceOnUse" color-interpolation-filters="sRGB">
<feFlood flood-opacity="0" result="BackgroundImageFix"/>
<feColorMatrix in="SourceAlpha" type="matrix" values="0 0 0 0 0 0 0 0 0 0 0 0 0 0 0 0 0 0 127 0" result="hardAlpha"/>
<feOffset dy="29"/>
<feGaussianBlur stdDeviation="2"/>
<feComposite in2="hardAlpha" operator="out"/>
<feColorMatrix type="matrix" values="0 0 0 0 0 0 0 0 0 0 0 0 0 0 0 0 0 0 1 0"/>
<feBlend mode="normal" in2="BackgroundImageFix" result="effect1_dropShadow_733_1156"/>
<feBlend mode="normal" in="SourceGraphic" in2="effect1_dropShadow_733_1156" result="shape"/>
</filter>
<linearGradient id="paint0_linear_733_1156" x1="39.8376" y1="0" x2="39.8376" y2="26.3369" gradientUnits="userSpaceOnUse">
<stop stop-color="white" stop-opacity="0.22"/>
<stop offset="1" stop-color="white" stop-opacity="0.56"/>
</linearGradient>
<linearGradient id="paint1_linear_733_1156" x1="-46.4173" y1="-104.55" x2="-45.3941" y2="259.855" gradientUnits="userSpaceOnUse">
<stop stop-color="white" stop-opacity="0.48"/>
<stop offset="1" stop-color="white" stop-opacity="0"/>
</linearGradient>
<linearGradient id="paint2_linear_733_1156" x1="71.5223" y1="57.0854" x2="71.7367" y2="133.467" gradientUnits="userSpaceOnUse">
<stop stop-color="white" stop-opacity="0.4"/>
<stop offset="0.833333" stop-color="white" stop-opacity="0"/>
<stop offset="1" stop-color="white" stop-opacity="0.3"/>
</linearGradient>
<radialGradient id="paint3_radial_733_1156" cx="0" cy="0" r="1" gradientUnits="userSpaceOnUse" gradientTransform="translate(23.5583 67.645) rotate(-0.160876) scale(73.6099 91.1841)">
<stop stop-color="white" stop-opacity="0.7"/>
<stop offset="1" stop-color="white" stop-opacity="0"/>
</radialGradient>
<clipPath id="clip0_733_1156">
<rect width="365.258" height="364.407" fill="white" transform="matrix(0.999996 -0.00280781 0.0035653 0.999994 -229.045 -104.037)"/>
</clipPath>
</defs>
</svg>
