<svg xmlns="http://www.w3.org/2000/svg" width="28" height="46" fill="none"><path fill="#CCC" d="M5.881 37.832c-.934-.218-1.642-.61-2.374-1.308C2.406 35.455 2 34.365 2 32.479v-1.035h4.388c4.185 0 4.42-.011 4.837-.218.506-.251.9-.872.9-1.418s-.394-1.166-.9-1.417c-.416-.207-.652-.218-4.837-.218H2v-3.271h4.388c4.185 0 4.42-.01 4.837-.218.506-.25.9-.872.9-1.417s-.394-1.166-.9-1.417c-.416-.207-.652-.218-4.837-.218H2v-3.271h4.388c4.185 0 4.42-.01 4.837-.218.506-.25.9-.872.9-1.417s-.394-1.166-.9-1.417c-.416-.207-.652-.218-4.837-.218H2V11.82h4.388c4.185 0 4.42-.01 4.837-.218.506-.25.9-.872.9-1.417s-.394-1.167-.9-1.417c-.416-.207-.652-.218-4.837-.218H2V7.514c0-1.886.405-2.965 1.507-4.045.743-.708 1.553-1.144 2.52-1.34.833-.164 14.738-.164 15.57 0 .968.196 1.778.632 2.52 1.34 1.103 1.08 1.508 2.159 1.508 4.045V8.55h-4.399c-4.353 0-4.41 0-4.848.24-.507.272-.878.872-.878 1.395s.371 1.123.878 1.395c.438.24.494.24 4.848.24h4.399v3.271h-4.399c-4.353 0-4.41 0-4.848.24a1.569 1.569 0 0 0 0 2.79c.438.24.494.24 4.848.24h4.399v3.271h-4.399c-4.353 0-4.41 0-4.848.24a1.569 1.569 0 0 0 0 2.79c.438.24.494.24 4.848.24h4.399v3.271h-4.399c-4.353 0-4.41 0-4.848.24a1.569 1.569 0 0 0 0 2.79c.438.24.494.24 4.848.24h4.399v1.036c0 1.886-.405 2.966-1.508 4.045-.742.72-1.62 1.177-2.553 1.352-.889.163-14.974.12-15.683-.044"/><g filter="url(#a)"><path fill="#CCC" d="M7.392 37.853c-.756-.218-1.33-.61-1.922-1.309-.892-1.07-1.22-2.16-1.22-4.048V31.46h3.552c3.388 0 3.579-.01 3.916-.218.41-.251.728-.873.728-1.419 0-.545-.318-1.167-.728-1.418-.337-.207-.528-.218-3.916-.218H4.25v-3.273h3.552c3.388 0 3.579-.011 3.916-.218.41-.251.728-.873.728-1.419 0-.545-.318-1.167-.728-1.418-.337-.207-.528-.218-3.916-.218H4.25v-3.273h3.552c3.388 0 3.579-.011 3.916-.218.41-.251.728-.873.728-1.419 0-.545-.318-1.167-.728-1.418-.337-.207-.528-.218-3.916-.218H4.25v-3.273h3.552c3.388 0 3.579-.011 3.916-.218.41-.251.728-.873.728-1.419 0-.545-.318-1.167-.728-1.418-.337-.207-.528-.218-3.916-.218H4.25V7.512c0-1.887.328-2.967 1.22-4.047.601-.71 1.257-1.146 2.04-1.342.674-.164 11.93-.164 12.605 0 .783.196 1.439.633 2.04 1.342.892 1.08 1.22 2.16 1.22 4.047V8.55h-3.56c-3.525 0-3.57 0-3.926.24-.41.273-.71.873-.71 1.396 0 .524.3 1.124.71 1.397.355.24.4.24 3.925.24h3.561v3.273h-3.56c-3.525 0-3.57 0-3.926.24-.92.622-.92 2.171 0 2.793.355.24.4.24 3.925.24h3.561v3.273h-3.56c-3.525 0-3.57 0-3.926.24-.92.622-.92 2.171 0 2.793.355.24.4.24 3.925.24h3.561v3.273h-3.56c-3.525 0-3.57 0-3.926.24-.92.622-.92 2.171 0 2.793.355.24.4.24 3.925.24h3.561v1.036c0 1.888-.328 2.968-1.22 4.048-.601.72-1.312 1.178-2.068 1.353-.72.164-12.121.12-12.695-.044"/></g><defs><filter id="a" width="27.125" height="46" x=".25" y="0" color-interpolation-filters="sRGB" filterUnits="userSpaceOnUse"><feFlood flood-opacity="0" result="BackgroundImageFix"/><feColorMatrix in="SourceAlpha" result="hardAlpha" values="0 0 0 0 0 0 0 0 0 0 0 0 0 0 0 0 0 0 127 0"/><feOffset/><feGaussianBlur stdDeviation="1"/><feComposite in2="hardAlpha" operator="out"/><feColorMatrix values="0 0 0 0 0 0 0 0 0 0 0 0 0 0 0 0 0 0 1 0"/><feBlend in2="BackgroundImageFix" result="effect1_dropShadow_7590_2891"/><feColorMatrix in="SourceAlpha" result="hardAlpha" values="0 0 0 0 0 0 0 0 0 0 0 0 0 0 0 0 0 0 127 0"/><feOffset dy="4"/><feGaussianBlur stdDeviation="2"/><feComposite in2="hardAlpha" operator="out"/><feColorMatrix values="0 0 0 0 0 0 0 0 0 0 0 0 0 0 0 0 0 0 0.25 0"/><feBlend in2="effect1_dropShadow_7590_2891" result="effect2_dropShadow_7590_2891"/><feBlend in="SourceGraphic" in2="effect2_dropShadow_7590_2891" result="shape"/></filter></defs></svg>