<svg xmlns="http://www.w3.org/2000/svg" width="54" height="60" fill="none"><path fill="url(#a)" stroke="url(#b)" stroke-width=".186" d="M8.642 2.722A2.63 2.63 0 0 1 11.27.094h27.38l14.984 14.888V57.28a2.63 2.63 0 0 1-2.627 2.628H11.27a2.63 2.63 0 0 1-2.628-2.628z"/><path fill="#BDBDBD" d="m38.746.001 14.981 14.883h-12.26a2.72 2.72 0 0 1-2.72-2.72z"/><path fill="#868686" d="M53.727 25.9 42.64 14.884h11.088zM8.55 31.83c0-.75.608-1.36 1.36-1.36h34.908c.751 0 1.36.61 1.36 1.36v19.663a1.36 1.36 0 0 1-1.36 1.36H8.55z"/><g filter="url(#c)"><rect width="45.178" height="22.383" x="1" y="28.127" fill="url(#d)" rx="1.36"/><rect width="45.132" height="22.337" x="1.023" y="28.149" stroke="url(#e)" stroke-width=".045" rx="1.338"/></g><g filter="url(#f)"><path fill="#CCC" d="M6.934 45.048V33.083h3.876q2.205 0 2.873.18 1.029.27 1.722 1.175.694.898.694 2.326 0 1.102-.4 1.853t-1.02 1.183q-.612.425-1.249.564-.866.17-2.505.17H9.349v4.514zm2.415-9.94v3.395h1.322q1.43 0 1.91-.188.482-.187.751-.588.278-.399.278-.93 0-.652-.384-1.077a1.67 1.67 0 0 0-.971-.53q-.433-.082-1.739-.082zm8.725-2.024h4.415q1.494 0 2.277.228a4 4 0 0 1 1.804 1.102q.75.792 1.142 1.942.392 1.143.392 2.824 0 1.478-.367 2.546-.45 1.307-1.281 2.114-.63.612-1.698.955-.8.253-2.138.253h-4.546zm2.416 2.023v7.925h1.803q1.012 0 1.461-.114a2.2 2.2 0 0 0 .971-.498q.393-.35.637-1.15.245-.81.245-2.196t-.245-2.13q-.245-.743-.685-1.16-.441-.415-1.119-.562-.506-.114-1.983-.114zm9.687 9.941V33.083h8.202v2.025h-5.786v2.832h4.995v2.024h-4.995v5.084z"/></g><defs><linearGradient id="a" x1="8.55" x2="66.213" y1=".001" y2="43.42" gradientUnits="userSpaceOnUse"><stop offset="1" stop-color="#C5C5C5"/><stop stop-color="#7C7C7C"/></linearGradient><linearGradient id="b" x1="10.358" x2="51.55" y1=".001" y2="60.254" gradientUnits="userSpaceOnUse"><stop stop-color="#fff"/><stop offset="1" stop-color="#747474"/></linearGradient><linearGradient id="d" x1="1.663" x2="45.394" y1="28.127" y2="50.742" gradientUnits="userSpaceOnUse"><stop stop-color="#DD0212"/><stop offset=".14" stop-color="#EF0012"/><stop offset="1" stop-color="#DF0011"/></linearGradient><linearGradient id="e" x1="23.589" x2="36.907" y1="28.127" y2="50.586" gradientUnits="userSpaceOnUse"><stop stop-color="#F0F0F0"/><stop offset="1" stop-color="#7C7C7C"/></linearGradient><filter id="c" width="45.813" height="23.018" x=".728" y="27.854" color-interpolation-filters="sRGB" filterUnits="userSpaceOnUse"><feFlood flood-opacity="0" result="BackgroundImageFix"/><feColorMatrix in="SourceAlpha" result="hardAlpha" values="0 0 0 0 0 0 0 0 0 0 0 0 0 0 0 0 0 0 127 0"/><feOffset dx=".091" dy=".091"/><feGaussianBlur stdDeviation=".136"/><feColorMatrix values="0 0 0 0 0.682353 0 0 0 0 0.682353 0 0 0 0 0.682353 0 0 0 0.9 0"/><feBlend in2="BackgroundImageFix" result="effect1_dropShadow_7482_4343"/><feColorMatrix in="SourceAlpha" result="hardAlpha" values="0 0 0 0 0 0 0 0 0 0 0 0 0 0 0 0 0 0 127 0"/><feOffset dx="-.091" dy="-.091"/><feGaussianBlur stdDeviation=".091"/><feColorMatrix values="0 0 0 0 1 0 0 0 0 1 0 0 0 0 1 0 0 0 0.9 0"/><feBlend in2="effect1_dropShadow_7482_4343" result="effect2_dropShadow_7482_4343"/><feColorMatrix in="SourceAlpha" result="hardAlpha" values="0 0 0 0 0 0 0 0 0 0 0 0 0 0 0 0 0 0 127 0"/><feOffset dx=".091" dy="-.091"/><feGaussianBlur stdDeviation=".091"/><feColorMatrix values="0 0 0 0 0.682353 0 0 0 0 0.682353 0 0 0 0 0.682353 0 0 0 0.2 0"/><feBlend in2="effect2_dropShadow_7482_4343" result="effect3_dropShadow_7482_4343"/><feColorMatrix in="SourceAlpha" result="hardAlpha" values="0 0 0 0 0 0 0 0 0 0 0 0 0 0 0 0 0 0 127 0"/><feOffset dx="-.091" dy=".091"/><feGaussianBlur stdDeviation=".091"/><feColorMatrix values="0 0 0 0 0.682353 0 0 0 0 0.682353 0 0 0 0 0.682353 0 0 0 0.2 0"/><feBlend in2="effect3_dropShadow_7482_4343" result="effect4_dropShadow_7482_4343"/><feBlend in="SourceGraphic" in2="effect4_dropShadow_7482_4343" result="shape"/><feColorMatrix in="SourceAlpha" result="hardAlpha" values="0 0 0 0 0 0 0 0 0 0 0 0 0 0 0 0 0 0 127 0"/><feOffset dx="-.091" dy="-.091"/><feGaussianBlur stdDeviation=".091"/><feComposite in2="hardAlpha" k2="-1" k3="1" operator="arithmetic"/><feColorMatrix values="0 0 0 0 0.682353 0 0 0 0 0.682353 0 0 0 0 0.682353 0 0 0 0.5 0"/><feBlend in2="shape" result="effect5_innerShadow_7482_4343"/><feColorMatrix in="SourceAlpha" result="hardAlpha" values="0 0 0 0 0 0 0 0 0 0 0 0 0 0 0 0 0 0 127 0"/><feOffset dx=".091" dy=".091"/><feGaussianBlur stdDeviation=".091"/><feComposite in2="hardAlpha" k2="-1" k3="1" operator="arithmetic"/><feColorMatrix values="0 0 0 0 1 0 0 0 0 1 0 0 0 0 1 0 0 0 0.3 0"/><feBlend in2="effect5_innerShadow_7482_4343" result="effect6_innerShadow_7482_4343"/></filter><filter id="f" width="32.353" height="12.871" x="6.48" y="32.63" color-interpolation-filters="sRGB" filterUnits="userSpaceOnUse"><feFlood flood-opacity="0" result="BackgroundImageFix"/><feColorMatrix in="SourceAlpha" result="hardAlpha" values="0 0 0 0 0 0 0 0 0 0 0 0 0 0 0 0 0 0 127 0"/><feOffset dx="-.091" dy="-.091"/><feGaussianBlur stdDeviation=".091"/><feColorMatrix values="0 0 0 0 0.85098 0 0 0 0 0.85098 0 0 0 0 0.85098 0 0 0 0.5 0"/><feBlend in2="BackgroundImageFix" result="effect1_dropShadow_7482_4343"/><feColorMatrix in="SourceAlpha" result="hardAlpha" values="0 0 0 0 0 0 0 0 0 0 0 0 0 0 0 0 0 0 127 0"/><feOffset dx=".091" dy=".091"/><feGaussianBlur stdDeviation=".091"/><feColorMatrix values="0 0 0 0 1 0 0 0 0 1 0 0 0 0 1 0 0 0 0.3 0"/><feBlend in2="effect1_dropShadow_7482_4343" result="effect2_dropShadow_7482_4343"/><feBlend in="SourceGraphic" in2="effect2_dropShadow_7482_4343" result="shape"/><feColorMatrix in="SourceAlpha" result="hardAlpha" values="0 0 0 0 0 0 0 0 0 0 0 0 0 0 0 0 0 0 127 0"/><feOffset dx=".453" dy=".453"/><feGaussianBlur stdDeviation=".589"/><feComposite in2="hardAlpha" k2="-1" k3="1" operator="arithmetic"/><feColorMatrix values="0 0 0 0 0.85098 0 0 0 0 0.85098 0 0 0 0 0.85098 0 0 0 0.9 0"/><feBlend in2="shape" result="effect3_innerShadow_7482_4343"/><feColorMatrix in="SourceAlpha" result="hardAlpha" values="0 0 0 0 0 0 0 0 0 0 0 0 0 0 0 0 0 0 127 0"/><feOffset dx="-.453" dy="-.453"/><feGaussianBlur stdDeviation=".453"/><feComposite in2="hardAlpha" k2="-1" k3="1" operator="arithmetic"/><feColorMatrix values="0 0 0 0 1 0 0 0 0 1 0 0 0 0 1 0 0 0 0.9 0"/><feBlend in2="effect3_innerShadow_7482_4343" result="effect4_innerShadow_7482_4343"/><feColorMatrix in="SourceAlpha" result="hardAlpha" values="0 0 0 0 0 0 0 0 0 0 0 0 0 0 0 0 0 0 127 0"/><feOffset dx=".453" dy="-.453"/><feGaussianBlur stdDeviation=".453"/><feComposite in2="hardAlpha" k2="-1" k3="1" operator="arithmetic"/><feColorMatrix values="0 0 0 0 0.85098 0 0 0 0 0.85098 0 0 0 0 0.85098 0 0 0 0.2 0"/><feBlend in2="effect4_innerShadow_7482_4343" result="effect5_innerShadow_7482_4343"/><feColorMatrix in="SourceAlpha" result="hardAlpha" values="0 0 0 0 0 0 0 0 0 0 0 0 0 0 0 0 0 0 127 0"/><feOffset dx="-.453" dy=".453"/><feGaussianBlur stdDeviation=".453"/><feComposite in2="hardAlpha" k2="-1" k3="1" operator="arithmetic"/><feColorMatrix values="0 0 0 0 0.85098 0 0 0 0 0.85098 0 0 0 0 0.85098 0 0 0 0.2 0"/><feBlend in2="effect5_innerShadow_7482_4343" result="effect6_innerShadow_7482_4343"/></filter></defs></svg>