<svg width="182" height="168" viewBox="0 0 182 168" fill="none" xmlns="http://www.w3.org/2000/svg">
<g opacity="0.05">
<g filter="url(#filter0_ddddd_733_1135)">
<g filter="url(#filter1_biii_733_1135)">
<path d="M86.7668 42.5836C87.0004 43.8668 87.8587 44.8875 88.8019 45.6708C90.7834 47.3164 92.1213 50.4441 92.1213 54.0317C92.1213 58.1504 90.358 61.6628 87.8821 63.0226C86.7243 63.6585 85.569 64.5383 85.1053 65.8786C83.432 70.7156 80.9657 74.8908 77.9496 78.056L92.558 86.2159C97.7643 89.124 101.847 97.5887 104.339 104.112C106.183 108.939 103.905 114.055 98.9254 115.432C92.2704 117.273 81.1738 119.267 64.3271 119.267C47.4804 119.267 36.3838 117.273 29.7288 115.432C24.7489 114.055 22.4716 108.939 24.3153 104.112C26.807 97.5887 30.8899 89.124 36.0962 86.2159L50.455 78.1954C47.3781 75.0138 44.8635 70.7869 43.1655 65.8786C42.7019 64.5383 41.5466 63.6585 40.3888 63.0226C37.9128 61.6628 36.1495 58.1504 36.1495 54.0317C36.1495 50.4441 37.4874 47.3164 39.4689 45.6708C40.4121 44.8875 41.2705 43.8668 41.5041 42.5836C41.5142 42.5282 41.5244 42.4728 41.5347 42.4175C41.6477 41.8092 41.6228 41.1796 41.4613 40.585C39.8944 34.8159 39.2484 27.8898 42.6668 23.9728C44.5923 21.7665 46.5974 20.8893 48.4624 20.7825C49.443 20.7263 50.4154 20.3893 51.159 19.6763C54.2332 16.7286 58.562 14.5928 64.5188 14.5928C77.8013 14.5928 85.8105 27.6256 88.7863 35.6774C89.1655 36.7033 88.5883 37.8233 87.614 38.0603C86.6508 38.2946 86.0793 39.3969 86.3264 40.4584C86.489 41.1568 86.636 41.8655 86.7668 42.5836Z" fill="url(#paint0_linear_733_1135)"/>
</g>
</g>
<g filter="url(#filter2_ddddiii_733_1135)">
<mask id="mask0_733_1135" style="mask-type:alpha" maskUnits="userSpaceOnUse" x="38" y="0" width="105" height="134">
<path d="M118.66 36.0756C118.956 37.7018 120.043 38.9953 121.238 39.9881C123.748 42.0736 125.443 46.0374 125.443 50.5841C125.443 55.8038 123.209 60.2552 120.073 61.9785C118.606 62.7844 117.143 63.8993 116.556 65.5979C114.436 71.728 111.312 77.0193 107.492 81.0307L125.996 91.3719C133.191 95.3933 138.693 107.799 141.731 116.244C143.479 121.105 141.232 126.227 136.295 127.747C128.215 130.233 113.586 133.258 90.2367 133.258C66.8873 133.258 52.2582 130.233 44.1782 127.747C39.2413 126.227 36.9946 121.105 38.7428 116.244C41.7804 107.799 47.2818 95.3933 54.4775 91.3719L72.6654 81.2074C68.7679 77.1752 65.5828 71.8184 63.432 65.5979C62.8447 63.8993 61.3813 62.7844 59.9148 61.9785C56.7786 60.2552 54.5451 55.8038 54.5451 50.5841C54.5451 46.0374 56.2398 42.0736 58.7496 39.9881C59.9443 38.9953 61.0316 37.7018 61.3275 36.0756C61.3403 36.0054 61.3532 35.9352 61.3662 35.8651C61.5095 35.0942 61.4779 34.2963 61.2733 33.5427C59.2885 26.2314 58.4703 17.4538 62.8003 12.4897C65.2393 9.69346 67.779 8.58186 70.1413 8.4464C71.3834 8.37518 72.6151 7.9482 73.5571 7.04451C77.451 3.30882 82.9342 0.602051 90.4795 0.602051C107.304 0.602051 117.449 17.1188 121.218 27.3231C121.699 28.6233 120.967 30.0427 119.733 30.3431C118.513 30.64 117.789 32.037 118.102 33.3822C118.308 34.2674 118.495 35.1655 118.66 36.0756Z" fill="#EE9C2D"/>
</mask>
<g mask="url(#mask0_733_1135)">
<g clip-path="url(#clip0_733_1135)">
<rect width="394.295" height="437.019" transform="translate(-246.29 -140.67)" fill="#CCCCCC"/>
<path d="M-190.125 -54.2423C-198.881 -63.9474 -214.425 -66.8188 -240.591 -59.181C-214.062 -69.2881 -198.726 -66.2445 -190.125 -54.2423ZM148.005 137.391V140.32C127.228 137.219 108.006 125.906 87.9543 116.201C126.503 139.459 137.746 151.92 148.005 152.495V207.739C77.1772 236.108 -21.8888 183.39 20.7531 161.626C39.1985 152.208 122.151 185.113 88.4206 137.277C94.1201 148.762 95.1563 160.822 75.5711 157.376C82.2031 156.17 89.975 153.356 84.2238 143.708C78.4726 134.061 84.4828 159.558 43.8616 146.465C11.7377 136.128 -34.8938 164.267 -4.32428 130.385C-70.6447 183.792 61.9961 247.594 138.472 223.532C129.301 226.231 114.69 227.092 98.1614 225.944C115.363 225.657 132.047 221.464 147.954 214.286V231.859C90.3377 273.723 36.6078 283.371 -61.0593 241.794C23.0847 299.795 -74.1679 272.632 -76.3441 271.943C-68.624 274.297 -30.2307 280.327 -33.8576 272.862C-37.4845 265.396 -66.1888 267.865 -88.261 258.275C-79.142 257.241 -63.0282 263.96 -83.0797 244.78C-44.0647 280.499 -74.3234 241.621 -95.722 224.106C-98.7272 221.35 -101.577 218.421 -104.323 215.32C-101.525 217.847 -99.1935 218.421 -97.6391 216.411C-103.39 205.385 -108.416 194.991 -112.82 185.171C-111.577 187.008 -110.281 188.903 -108.882 190.741C-189.451 6.40057 12.774 -66.3593 21.8412 -130.161C21.1158 -127.634 19.9759 -125.107 18.3697 -122.638C20.8568 -129.988 22.2039 -135.329 21.4267 -140.612H34.3799C34.6389 -139.866 34.9498 -139.062 35.1571 -138.258C35.8307 -139.062 36.4006 -139.866 36.9187 -140.612H54.4315C54.4833 -129.529 47.2295 -116.378 26.5043 -99.5521C42.4109 -110.75 55.7786 -124.361 58.7837 -140.67H67.281C46.2968 -116.55 16.5045 -80.6586 -0.852814 -73.8248C-58.5723 -43.7906 -94.9449 19.9533 -103.598 82.4913C-96.2402 55.3858 -82.1471 27.4763 -62.9764 0.887589C-91.1625 43.5558 -107.743 92.7707 -104.064 134.979C-102.406 147.499 -99.4008 159.501 -94.9967 170.642C-80.6963 202.112 -49.6087 225.427 3.75853 232.146C-61.1629 192.694 -65.7224 93.4024 17.9552 82.0318C44.6388 77.1506 69.6126 85.6498 94.1718 95.1826C62.6696 86.3963 19.7687 71.9821 -5.46416 95.3549C22.1521 91.737 50.6491 95.1252 77.2291 105.003C47.7476 98.4559 7.6963 81.9744 -15.6713 111.607C-9.50555 107.415 -1.2155 99.3748 15.3646 99.3748C-8.98743 104.543 -7.43304 112.009 15.7791 110.401C-24.2722 113.272 -63.3909 147.039 -25.1012 193.325C13.1884 239.611 52.1517 239.956 38.7321 249.661C14.8464 267.061 -61.5774 228.585 -85.4631 190.569C-86.2403 189.65 -86.9657 188.731 -87.7429 187.812C-56.5516 240.588 26.8152 278.26 76.2964 251.441C97.2288 240.071 -85.6704 190.684 -21.0598 126.71C-3.59889 109.425 41.9964 109.252 65.1049 131.419C50.0792 120.623 -3.80615 114.65 12.774 131.534C25.209 144.168 80.4414 151.576 71.8923 134.692C66.9701 127.514 60.649 122.058 53.5506 118.096C53.6543 118.153 53.7579 118.153 53.8615 118.211C-6.29317 80.6536 61.7888 102.361 124.482 131.132C132.617 135.783 140.492 137.621 148.005 137.391ZM-83.4942 192.808C-83.4942 192.808 -61.0593 221.752 -24.0131 236.051C5.10565 247.249 30.753 245.297 30.9084 244.091C31.0639 242.77 0.131622 243 -36.4482 225.14C-66.4478 210.496 -83.4942 192.808 -83.4942 192.808ZM-8.72836 -74.9734C1.6342 -82.7834 11.9968 -90.5361 22.3593 -98.3461C13.7066 -94.4985 -2.35539 -82.4389 -8.72836 -74.9734ZM-105.877 144.168C-106.292 138.425 -109.349 119.991 -108.934 114.019C-112.561 54.6966 -88.1574 -10.5404 -34.2721 -51.5432C-100.903 -5.65907 -124.012 60.3245 -105.877 144.168ZM-111.939 50.849C-105.204 36.0329 -98.1572 20.4702 -91.0071 4.7352C-98.1572 14.1532 -112.406 45.3935 -111.939 50.849ZM-41.215 243.172C-72.4581 226.518 -100.955 200.963 -115.67 165.416C-109.349 195.795 -67.7431 241.392 -41.215 243.172ZM90.804 131.649C95.0527 138.655 97.7469 141.296 103.913 153.586C125.829 197.288 4.63934 143.881 17.748 180.462C25.7271 202.743 81.685 213.654 98.2651 213.654C52.6698 204.466 22.4111 191.143 25.5717 176.442C30.3903 154.505 173.394 230.882 90.804 131.649ZM-141.628 117.751C-141.939 107.472 -142.82 85.4775 -141.11 75.2555C-144.012 83.525 -142.82 105.979 -141.628 117.751ZM-104.323 215.262C-106.292 213.08 -108.157 210.84 -109.971 208.486C-107.95 211.415 -106.033 213.712 -104.323 215.262ZM-109.971 208.543C-122.198 190.798 -137.742 158.984 -141.11 126.365C-140.177 159.501 -129.608 183.333 -109.971 208.543ZM-27.2773 -132.573C-24.6349 -127.749 -23.4432 -122.465 -22.9769 -117.412C-22.8214 -123.04 -24.0649 -128.266 -27.2773 -132.573ZM-33.7539 -140.67H-38.987C-33.6503 -138.717 -29.868 -135.961 -27.3291 -132.573C-28.8835 -135.444 -30.956 -138.2 -33.7539 -140.67ZM-117.276 177.475C-129.193 150.714 -130.955 140.665 -134.374 120.623C-133.701 144.398 -131.784 152.782 -117.276 177.475ZM-133.338 227.437C-114.686 250.982 -70.1265 264.764 -93.9604 237.199C-87.2247 256.15 -118.831 241.794 -133.338 227.437ZM-62.251 -124.648C-62.51 -130.218 -63.6499 -135.559 -65.8261 -140.67H-77.0694C-73.7016 -139.062 -70.541 -136.994 -67.5877 -134.295C-72.769 -136.42 -77.9503 -138.488 -83.3388 -140.67H-88.8828C-76.0332 -137.167 -65.6706 -131.826 -62.251 -124.648ZM148.005 -140.67V-118.101C113.498 -133.893 84.2756 -120.685 67.6955 -105.065C51.1154 -89.445 27.9033 -86.4588 9.82062 -74.2843C28.8877 -89.1578 55.2605 -95.3025 71.0115 -113.105C86.7626 -130.907 80.8042 -133.491 83.9648 -140.67H148.005ZM121.892 -133.319C110.752 -133.147 101.218 -128.323 91.8921 -122.695C101.737 -126.772 111.788 -130.333 121.892 -133.319ZM95.6226 220.201C83.3948 219.34 70.1307 217.387 57.2812 214.286C70.2343 218.593 83.0321 220.431 95.6226 220.201ZM59.8718 220.086C52.4108 217.617 44.9497 214.401 37.385 210.266C-39.0388 163.119 27.7997 151.059 59.9754 157.089C40.7528 148.188 -15.7231 137.219 0.287064 182.472C-3.23621 177.59 -10.5418 170.584 -8.98743 157.376C-19.35 188.961 25.4681 211.759 59.8718 220.086ZM0.85701 -66.5891C-27.0183 -47.8104 -43.2875 -28.917 -62.9245 0.83017C-43.2875 -26.3902 -27.381 -44.5371 0.85701 -66.5891ZM148.005 117.751V112.928C140.441 111.549 117.695 104.199 110.182 101.672C120.596 106.209 145.622 116.029 148.005 117.751ZM-57.536 -140.67H-39.557C-4.22064 -119.881 -50.5931 -85.0231 -58.3132 -60.9038C-44.8937 -68.3119 -23.7023 -95.9916 -22.9769 -117.354C-20.8526 -93.4649 -35.1011 -73.4229 8.4735 -117.01C15.9345 -122.465 17.3335 -131.367 14.4838 -140.67H17.1262C21.7894 -91.2252 -67.9504 -66.0722 -76.9658 -41.7232C-54.9454 -47.1213 -91.6288 -28.5724 -86.1885 -24.7248C-62.6655 -41.838 -44.4792 -66.3019 -20.4899 -82.6686C-76.4477 -39.2538 -137.483 39.1914 -135.255 115.569C-151.576 20.2405 -43.3393 -83.0132 -48.7796 -121.03C-51.4739 -139.521 -55.049 -135.789 -57.536 -140.67ZM-68.054 -61.6503C-71.0592 -62.5117 -76.6549 -56.7116 -76.7586 -50.5669C-73.4425 -54.7591 -70.7483 -58.2047 -68.054 -61.6503ZM-39.0907 -118.388C-39.7642 -120.685 -40.386 -122.753 -41.1632 -125.452C-43.702 -120.57 -43.0802 -118.388 -39.0907 -118.388ZM-33.4949 -115.976C-35.0493 -118.905 -34.5311 -125.624 -37.4326 -124.418C-36.2928 -121.834 -40.1787 -117.412 -33.4949 -115.976ZM-51.5775 -139.119C-46.5517 -120.226 -44.0647 -139.234 -32.8213 -126.715C-33.8576 -133.664 -42.6139 -140.038 -51.5775 -139.119ZM-164.426 203.318C-150.903 232.146 -141.991 249.546 -101.732 259.596C-126.292 247.709 -145.359 232.433 -164.426 203.318ZM-246.29 206.935V211.817C-223.026 240.3 -198.57 273.149 -171.576 286.242C-166.498 289.803 -161.369 293.191 -156.188 296.349H-148.83C-167.016 286.644 -183.389 274.986 -197.12 261.491C-213.441 249.316 -229.658 227.322 -246.29 206.935ZM-246.29 -66.0722V-70.4367C-124.012 -124.59 -168.571 30.4625 -174.27 68.8811C-179.97 107.3 -166.498 181.495 -155.618 163.521C-144.737 145.546 -182.56 120.623 -109.867 -35.4062C-141.576 14.0958 -161.317 101.098 -169.452 101.327C-177.586 101.557 -173.234 71.8099 -168.571 60.3245C-174.27 174.604 -88.5719 -156.634 -241.627 -84.334C-242.87 -83.5874 -244.425 -82.8409 -246.29 -82.0369V-95.9916C-201.109 -121.949 -174.788 -137.569 -137.224 -137.569C-99.6598 -137.569 -69.8675 -128.782 -62.51 -116.436C-69.9193 -40.5746 -215.099 74.9683 -116.395 215.549C-95.463 241.219 -105.359 242.942 -127.639 223.991C-149.918 205.04 -173.597 160.764 -182.923 107.185C-182.249 139.057 -178.26 170.584 -165.877 196.886C-178.985 176.901 -184.633 160.247 -188.104 122.46C-191.576 84.6735 -181.11 29.8308 -180.073 -12.78C-178.415 0.600464 -178.467 8.92737 -178.933 20.6999C-155.307 -69.4604 -201.265 -85.0231 -246.29 -66.0722ZM-190.902 -118.446C-199.14 -116.665 -215.41 -110.578 -221.524 -105.065C-211.316 -109.544 -201.109 -113.966 -190.902 -118.446ZM-83.9087 -119.364C-76.2923 -111.325 -78.6756 -97.8293 -82.9243 -86.6885C-82.3544 -87.6073 -81.7326 -88.5836 -81.059 -89.5598C-74.0125 -100.816 -76.3441 -112.358 -83.9087 -119.364ZM-84.4269 -112.243C-83.8051 -102.825 -84.7377 -94.556 -87.4838 -85.0805C-80.4373 -96.6808 -79.3492 -106.328 -84.4269 -112.243ZM-133.183 -128.151C-124.944 -128.151 -116.758 -128.151 -108.52 -128.151C-115.515 -128.897 -126.084 -128.897 -133.183 -128.151ZM-86.2921 -109.774C-94.4267 -131.08 -127.172 -127.06 -144.737 -124.016C-125.463 -124.073 -99.4526 -129.127 -86.2921 -109.774ZM-89.2973 -86.0568C-94.8931 -73.1932 -106.395 -65.7851 -113.028 -53.9551C-105.877 -54.4145 -90.0744 -77.1556 -89.2973 -86.0568ZM135.208 11.3393C124.845 -1.00749 124.327 -3.24715 129.767 -11.2869C119.094 -5.42937 128.057 6.74515 135.208 11.3393ZM112.151 -121.432C124.068 -122.121 136.14 -118.56 148.005 -115.517V-116.034C136.347 -121.087 124.793 -126.256 112.151 -121.432ZM148.005 93.5172V86.626C134.897 82.2041 122.099 78.2417 109.198 76.5763C121.425 80.9407 134.741 90.8756 148.005 93.5172ZM-246.29 230.71C-225.565 253.566 -204.736 276.537 -182.612 296.349H-172.042C-198.052 271.656 -221.99 241.392 -246.29 218.651V230.71ZM-246.29 234.845V261.95C-231.368 270.162 -214.995 281.533 -197.12 296.349H-189.089C-208.881 282.394 -227.637 257.471 -246.29 234.845ZM148.005 17.5414V-16.0534C144.689 -13.9286 141.114 -11.8612 137.28 -9.85124C133.964 0.715317 139.249 10.6502 148.005 17.5414ZM122.203 -11.3443C110.234 -4.8551 118.99 1.74901 124.638 8.7551C119.716 -1.92632 114.275 -3.01744 122.203 -11.3443ZM91.8403 -89.9618C118.472 -98.1739 130.855 -90.3064 148.005 -80.5438V-81.922C130.389 -91.4549 121.581 -101.619 91.8403 -89.9618ZM148.005 -37.4162V-37.4736C147.798 -37.3587 147.591 -37.2439 147.384 -37.129C147.591 -37.2439 147.798 -37.3587 148.005 -37.4162ZM144.586 296.349C145.726 295.66 146.865 295.028 148.005 294.339V291.181C145.726 292.961 143.394 294.626 141.062 296.349H144.586ZM-245.616 -140.67C-245.772 -140.612 -245.927 -140.555 -246.031 -140.498C-245.876 -140.555 -245.72 -140.612 -245.565 -140.67H-245.616ZM-246.29 -140.44C-246.186 -140.44 -246.135 -140.498 -246.031 -140.498C-246.135 -140.498 -246.186 -140.44 -246.29 -140.44ZM-229.088 -140.67C-235.513 -137.856 -241.264 -135.616 -246.29 -133.893V-115.402C-224.218 -125.279 -201.524 -133.664 -179.762 -140.67H-229.088ZM-87.5874 296.349H-78.8829C-91.1107 291.41 -123.701 271.139 -127.794 268.612C-112.406 280.729 -98.3127 290.204 -87.5874 296.349ZM-246.29 -39.139V-48.9016C-134.633 -80.4864 -241.627 143.996 -155.721 244.837C-234.891 189.535 -201.213 70.0871 -208.933 -11.5166C-211.472 -38.4499 -227.637 -41.2063 -246.29 -39.139ZM-216.757 -42.4697C-190.332 -10.3107 -207.69 56.8789 -206.083 105.175C-206.239 70.5465 -172.716 -31.5586 -216.757 -42.4697ZM62.307 296.349C90.545 288.195 117.28 275.216 140.233 257.127C142.876 254.255 145.467 251.441 147.954 248.742V237.831C111.426 262.984 73.654 284.347 36.2451 296.349H62.307ZM-152.768 248.111C-146.706 254.657 -139.452 260.457 -130.747 265.339L-152.768 248.111ZM78.5762 86.7409C47.7476 62.8513 124.586 107.931 148.005 110.918V100.868C110.597 89.2102 14.0693 55.96 78.5762 86.7409ZM-206.135 189.707C-199.659 207.337 -192.923 234.902 -151.991 259.022C-183.597 230.308 -194.477 211.932 -206.135 189.707ZM-233.855 124.643C-232.301 148.762 -220.643 165.014 -210.021 179.198C-236.342 92.3687 -183.804 -33.1666 -246.29 -34.4874V-26.7922C-241.264 -27.5962 -240.591 -33.8557 -231.005 -28.6298C-206.757 -13.8137 -215.513 31.4387 -221.316 53.4907C-222.663 32.7596 -212.508 2.95496 -230.228 -11.2295C-247.326 -17.3742 -227.067 12.7175 -230.384 21.9633C-234.01 9.6165 -239.503 1.57672 -246.29 -3.13229V11.2244C-227.119 31.3813 -231.679 87.6023 -231.005 111.722C-238.777 94.5509 -241.834 74.7961 -246.29 55.96V146.809C-234.891 169.723 -225.409 194.359 -218.311 213.023C-227.845 199.757 -236.912 183.563 -246.29 167.655V195.737C-222.197 221.35 -197.69 255.002 -171.11 277.341C-184.633 268.325 -197.534 257.988 -209.658 246.33C-193.078 263.444 -174.685 277.628 -155.1 289.113C-152.353 290.836 -149.607 292.387 -146.809 293.765C-145.203 294.626 -143.649 295.43 -142.043 296.292H-91.2143C-199.14 268.784 -237.482 156.227 -233.855 124.643ZM134.586 296.349C139.145 293.937 143.653 291.353 148.005 288.597V257.988C123.291 274.986 99.4568 287.563 76.5555 296.349H134.586ZM107.488 117.349C122.669 126.251 135.57 133.257 148.005 133.084V118.441C146.71 118.383 142.979 117.349 135.985 114.995C162.565 142.962 125.933 127.916 107.488 117.349ZM-246.29 296.349H-213.337C-224.425 289.286 -235.513 282.107 -246.29 275.79V296.349ZM-66.4996 55.6155C-66.4996 55.558 -66.4478 55.5006 -66.4478 55.4432C-66.4478 55.5006 -66.4478 55.558 -66.4996 55.6155ZM-65.8779 54.2372C-66.0851 54.6392 -66.2406 55.0412 -66.4478 55.4432C-66.2406 55.0412 -66.0851 54.6392 -65.8779 54.2372ZM-65.6706 53.8352C-65.7224 53.9501 -65.7743 54.0075 -65.8261 54.1224C-65.7743 54.0075 -65.7224 53.9501 -65.6706 53.8352ZM-65.8261 54.1224C-65.8261 54.1798 -65.8779 54.1798 -65.8779 54.2372C-65.8779 54.1798 -65.8261 54.1798 -65.8261 54.1224ZM-61.8365 57.4531C-93.4423 91.9093 -78.9347 175.753 -68.9866 148.303C-49.5568 94.8381 -3.80615 46.542 53.7061 74.1069C24.1728 55.1561 78.5244 66.986 111.581 73.3604C75.2084 64.1147 37.4369 51.5381 1.47876 63.9424C12.7221 58.1997 19.3542 55.7878 31.9447 55.7303C2.4632 52.3996 -21.8888 59.7502 -47.018 80.9982C-72.1472 102.246 -35.9301 31.611 -41.1114 28.1654C-45.9299 24.9495 -59.2458 40.1102 -65.6706 53.8352C-57.3288 36.32 -45.7227 39.8805 -61.8365 57.4531ZM-67.0178 56.8789C-66.8623 56.4194 -66.6551 56.0174 -66.4996 55.6155C-66.6551 56.0174 -66.8623 56.4769 -67.0178 56.8789ZM42.8254 55.7303C74.2757 59.2908 93.3429 68.5939 123.653 72.3841C92.7729 65.2058 72.8768 55.5006 42.8254 55.7303ZM107.488 117.349C106.659 116.89 105.882 116.373 105.053 115.914C105.778 116.431 106.607 116.89 107.488 117.349ZM-195.513 -132.285C-190.695 -134.238 -185.876 -136.19 -181.058 -138.143C-186.705 -140.21 -191.161 -135.157 -195.513 -132.285ZM-160.177 -140.67H-168.726C-203.648 -124.533 -272.145 -95.7045 -160.177 -140.67ZM-21.9924 269.071C1.84145 281.188 -22.4069 284.347 -35.6192 283.945C-15.7749 287.333 7.3336 279.064 -21.9924 269.071ZM3.55128 275.216C18.6288 286.931 -1.68182 288.08 -11.1118 289.228C-0.645569 288.482 28.6805 286.874 3.55128 275.216ZM31.8929 274.527C65.1049 290.09 30.2867 292.904 11.7377 296.349H18.5252C39.9757 293.708 71.996 285.553 31.8929 274.527ZM148.005 78.414V76.2317C142.513 76.1743 136.917 75.7723 131.218 75.0832C136.917 76.3466 142.513 77.4951 148.005 78.414ZM-81.5253 182.644C-74.7897 195.278 -61.8365 205.04 -56.1371 206.189C-63.3909 202.169 -73.7534 192.981 -81.5253 182.644ZM-22.4588 221.12C-88.1574 146.58 -25.5675 78.7011 18.9915 70.0871C-11.5781 71.2356 -75.3078 122.92 -59.764 172.881C-70.6447 171.56 -83.0797 151.633 -86.4994 131.821C-84.116 161.396 -65.4634 192.981 -22.4588 221.12ZM-61.8365 193.555C-82.5616 172.881 -91.6806 141.641 -91.7843 120.967C-94.0122 142.502 -89.2973 170.584 -61.8365 193.555ZM148.005 82.0318V80.4813C144.223 80.0793 140.389 79.5625 136.503 78.8734C140.648 79.9071 144.482 80.9407 148.005 82.0318ZM148.005 -110.98V-99.5521C134.741 -104.835 134.016 -110.808 100.545 -105.008C67.0738 -99.2076 -26.3447 -45.8579 -46.6553 -4.6254C-12.6143 -50.5095 122.721 -124.475 148.005 -70.7812V-44.1351C113.861 -19.5564 10.5978 -9.21954 21.6858 12.3156C26.608 19.3216 41.7891 26.5 56.2967 15.5889C27.7997 8.69766 78.8353 -11.8612 86.6072 -15.4791C23.0847 16.5077 77.5399 10.9947 105.622 14.6701C133.705 18.3454 136.14 25.1792 148.005 30.1179V31.5536C122.565 23.9158 118.472 15.0721 69.768 17.082C124.69 20.7573 99.3013 40.2825 148.005 41.6033V67.3306C95.6744 67.8474 80.6487 51.0787 41.6855 51.0787C2.72226 51.0787 -20.5935 54.5244 -36.2928 65.0909C-63.909 85.0181 -24.0131 20.6999 -20.2826 11.167C4.01759 -47.6956 -84.4268 50.2748 -91.7843 120.967C-92.0433 60.4967 -43.702 -15.4791 12.2558 -18.9247C29.8722 -20.0732 -76.8622 75.2555 -23.495 57.4531C-67.0178 54.5818 78.5762 -30.9844 34.5871 -30.1804C-40.4896 -28.8021 -74.6861 34.9418 -95.6702 92.2539C-102.976 1.00246 65.1049 -126.772 148.005 -110.98ZM58.0065 19.5513C62.7733 22.8821 72.7213 21.4464 80.286 22.193C72.8768 20.7573 65.5712 17.5414 58.0065 19.5513ZM15.1055 48.3797C-1.37094 47.1737 -36.4482 59.1759 -10.0237 31.611C-42.1476 61.473 -3.39165 50.6193 15.1055 48.3797Z" fill="#161616"/>
<path d="M-190.125 -54.2423C-198.881 -63.9474 -214.425 -66.8188 -240.591 -59.181C-214.062 -69.2881 -198.726 -66.2445 -190.125 -54.2423ZM148.005 137.391V140.32C127.228 137.219 108.006 125.906 87.9543 116.201C126.503 139.459 137.746 151.92 148.005 152.495V207.739C77.1772 236.108 -21.8888 183.39 20.7531 161.626C39.1985 152.208 122.151 185.113 88.4206 137.277C94.1201 148.762 95.1563 160.822 75.5711 157.376C82.2031 156.17 89.975 153.356 84.2238 143.708C78.4726 134.061 84.4828 159.558 43.8616 146.465C11.7377 136.128 -34.8938 164.267 -4.32428 130.385C-70.6447 183.792 61.9961 247.594 138.472 223.532C129.301 226.231 114.69 227.092 98.1614 225.944C115.363 225.657 132.047 221.464 147.954 214.286V231.859C90.3377 273.723 36.6078 283.371 -61.0593 241.794C23.0847 299.795 -74.1679 272.632 -76.3441 271.943C-68.624 274.297 -30.2307 280.327 -33.8576 272.862C-37.4845 265.396 -66.1888 267.865 -88.261 258.275C-79.142 257.241 -63.0282 263.96 -83.0797 244.78C-44.0647 280.499 -74.3234 241.621 -95.722 224.106C-98.7272 221.35 -101.577 218.421 -104.323 215.32C-101.525 217.847 -99.1935 218.421 -97.6391 216.411C-103.39 205.385 -108.416 194.991 -112.82 185.171C-111.577 187.008 -110.281 188.903 -108.882 190.741C-189.451 6.40057 12.774 -66.3593 21.8412 -130.161C21.1158 -127.634 19.9759 -125.107 18.3697 -122.638C20.8568 -129.988 22.2039 -135.329 21.4267 -140.612H34.3799C34.6389 -139.866 34.9498 -139.062 35.1571 -138.258C35.8307 -139.062 36.4006 -139.866 36.9187 -140.612H54.4315C54.4833 -129.529 47.2295 -116.378 26.5043 -99.5521C42.4109 -110.75 55.7786 -124.361 58.7837 -140.67H67.281C46.2968 -116.55 16.5045 -80.6586 -0.852814 -73.8248C-58.5723 -43.7906 -94.9449 19.9533 -103.598 82.4913C-96.2402 55.3858 -82.1471 27.4763 -62.9764 0.887589C-91.1625 43.5558 -107.743 92.7707 -104.064 134.979C-102.406 147.499 -99.4008 159.501 -94.9967 170.642C-80.6963 202.112 -49.6087 225.427 3.75853 232.146C-61.1629 192.694 -65.7224 93.4024 17.9552 82.0318C44.6388 77.1506 69.6126 85.6498 94.1718 95.1826C62.6696 86.3963 19.7687 71.9821 -5.46416 95.3549C22.1521 91.737 50.6491 95.1252 77.2291 105.003C47.7476 98.4559 7.6963 81.9744 -15.6713 111.607C-9.50555 107.415 -1.2155 99.3748 15.3646 99.3748C-8.98743 104.543 -7.43304 112.009 15.7791 110.401C-24.2722 113.272 -63.3909 147.039 -25.1012 193.325C13.1884 239.611 52.1517 239.956 38.7321 249.661C14.8464 267.061 -61.5774 228.585 -85.4631 190.569C-86.2403 189.65 -86.9657 188.731 -87.7429 187.812C-56.5516 240.588 26.8152 278.26 76.2964 251.441C97.2288 240.071 -85.6704 190.684 -21.0598 126.71C-3.59889 109.425 41.9964 109.252 65.1049 131.419C50.0792 120.623 -3.80615 114.65 12.774 131.534C25.209 144.168 80.4414 151.576 71.8923 134.692C66.9701 127.514 60.649 122.058 53.5506 118.096C53.6543 118.153 53.7579 118.153 53.8615 118.211C-6.29317 80.6536 61.7888 102.361 124.482 131.132C132.617 135.783 140.492 137.621 148.005 137.391ZM-83.4942 192.808C-83.4942 192.808 -61.0593 221.752 -24.0131 236.051C5.10565 247.249 30.753 245.297 30.9084 244.091C31.0639 242.77 0.131622 243 -36.4482 225.14C-66.4478 210.496 -83.4942 192.808 -83.4942 192.808ZM-8.72836 -74.9734C1.6342 -82.7834 11.9968 -90.5361 22.3593 -98.3461C13.7066 -94.4985 -2.35539 -82.4389 -8.72836 -74.9734ZM-105.877 144.168C-106.292 138.425 -109.349 119.991 -108.934 114.019C-112.561 54.6966 -88.1574 -10.5404 -34.2721 -51.5432C-100.903 -5.65907 -124.012 60.3245 -105.877 144.168ZM-111.939 50.849C-105.204 36.0329 -98.1572 20.4702 -91.0071 4.7352C-98.1572 14.1532 -112.406 45.3935 -111.939 50.849ZM-41.215 243.172C-72.4581 226.518 -100.955 200.963 -115.67 165.416C-109.349 195.795 -67.7431 241.392 -41.215 243.172ZM90.804 131.649C95.0527 138.655 97.7469 141.296 103.913 153.586C125.829 197.288 4.63934 143.881 17.748 180.462C25.7271 202.743 81.685 213.654 98.2651 213.654C52.6698 204.466 22.4111 191.143 25.5717 176.442C30.3903 154.505 173.394 230.882 90.804 131.649ZM-141.628 117.751C-141.939 107.472 -142.82 85.4775 -141.11 75.2555C-144.012 83.525 -142.82 105.979 -141.628 117.751ZM-104.323 215.262C-106.292 213.08 -108.157 210.84 -109.971 208.486C-107.95 211.415 -106.033 213.712 -104.323 215.262ZM-109.971 208.543C-122.198 190.798 -137.742 158.984 -141.11 126.365C-140.177 159.501 -129.608 183.333 -109.971 208.543ZM-27.2773 -132.573C-24.6349 -127.749 -23.4432 -122.465 -22.9769 -117.412C-22.8214 -123.04 -24.0649 -128.266 -27.2773 -132.573ZM-33.7539 -140.67H-38.987C-33.6503 -138.717 -29.868 -135.961 -27.3291 -132.573C-28.8835 -135.444 -30.956 -138.2 -33.7539 -140.67ZM-117.276 177.475C-129.193 150.714 -130.955 140.665 -134.374 120.623C-133.701 144.398 -131.784 152.782 -117.276 177.475ZM-133.338 227.437C-114.686 250.982 -70.1265 264.764 -93.9604 237.199C-87.2247 256.15 -118.831 241.794 -133.338 227.437ZM-62.251 -124.648C-62.51 -130.218 -63.6499 -135.559 -65.8261 -140.67H-77.0694C-73.7016 -139.062 -70.541 -136.994 -67.5877 -134.295C-72.769 -136.42 -77.9503 -138.488 -83.3388 -140.67H-88.8828C-76.0332 -137.167 -65.6706 -131.826 -62.251 -124.648ZM148.005 -140.67V-118.101C113.498 -133.893 84.2756 -120.685 67.6955 -105.065C51.1154 -89.445 27.9033 -86.4588 9.82062 -74.2843C28.8877 -89.1578 55.2605 -95.3025 71.0115 -113.105C86.7626 -130.907 80.8042 -133.491 83.9648 -140.67H148.005ZM121.892 -133.319C110.752 -133.147 101.218 -128.323 91.8921 -122.695C101.737 -126.772 111.788 -130.333 121.892 -133.319ZM95.6226 220.201C83.3948 219.34 70.1307 217.387 57.2812 214.286C70.2343 218.593 83.0321 220.431 95.6226 220.201ZM59.8718 220.086C52.4108 217.617 44.9497 214.401 37.385 210.266C-39.0388 163.119 27.7997 151.059 59.9754 157.089C40.7528 148.188 -15.7231 137.219 0.287064 182.472C-3.23621 177.59 -10.5418 170.584 -8.98743 157.376C-19.35 188.961 25.4681 211.759 59.8718 220.086ZM0.85701 -66.5891C-27.0183 -47.8104 -43.2875 -28.917 -62.9245 0.83017C-43.2875 -26.3902 -27.381 -44.5371 0.85701 -66.5891ZM148.005 117.751V112.928C140.441 111.549 117.695 104.199 110.182 101.672C120.596 106.209 145.622 116.029 148.005 117.751ZM-57.536 -140.67H-39.557C-4.22064 -119.881 -50.5931 -85.0231 -58.3132 -60.9038C-44.8937 -68.3119 -23.7023 -95.9916 -22.9769 -117.354C-20.8526 -93.4649 -35.1011 -73.4229 8.4735 -117.01C15.9345 -122.465 17.3335 -131.367 14.4838 -140.67H17.1262C21.7894 -91.2252 -67.9504 -66.0722 -76.9658 -41.7232C-54.9454 -47.1213 -91.6288 -28.5724 -86.1885 -24.7248C-62.6655 -41.838 -44.4792 -66.3019 -20.4899 -82.6686C-76.4477 -39.2538 -137.483 39.1914 -135.255 115.569C-151.576 20.2405 -43.3393 -83.0132 -48.7796 -121.03C-51.4739 -139.521 -55.049 -135.789 -57.536 -140.67ZM-68.054 -61.6503C-71.0592 -62.5117 -76.6549 -56.7116 -76.7586 -50.5669C-73.4425 -54.7591 -70.7483 -58.2047 -68.054 -61.6503ZM-39.0907 -118.388C-39.7642 -120.685 -40.386 -122.753 -41.1632 -125.452C-43.702 -120.57 -43.0802 -118.388 -39.0907 -118.388ZM-33.4949 -115.976C-35.0493 -118.905 -34.5311 -125.624 -37.4326 -124.418C-36.2928 -121.834 -40.1787 -117.412 -33.4949 -115.976ZM-51.5775 -139.119C-46.5517 -120.226 -44.0647 -139.234 -32.8213 -126.715C-33.8576 -133.664 -42.6139 -140.038 -51.5775 -139.119ZM-164.426 203.318C-150.903 232.146 -141.991 249.546 -101.732 259.596C-126.292 247.709 -145.359 232.433 -164.426 203.318ZM-246.29 206.935V211.817C-223.026 240.3 -198.57 273.149 -171.576 286.242C-166.498 289.803 -161.369 293.191 -156.188 296.349H-148.83C-167.016 286.644 -183.389 274.986 -197.12 261.491C-213.441 249.316 -229.658 227.322 -246.29 206.935ZM-246.29 -66.0722V-70.4367C-124.012 -124.59 -168.571 30.4625 -174.27 68.8811C-179.97 107.3 -166.498 181.495 -155.618 163.521C-144.737 145.546 -182.56 120.623 -109.867 -35.4062C-141.576 14.0958 -161.317 101.098 -169.452 101.327C-177.586 101.557 -173.234 71.8099 -168.571 60.3245C-174.27 174.604 -88.5719 -156.634 -241.627 -84.334C-242.87 -83.5874 -244.425 -82.8409 -246.29 -82.0369V-95.9916C-201.109 -121.949 -174.788 -137.569 -137.224 -137.569C-99.6598 -137.569 -69.8675 -128.782 -62.51 -116.436C-69.9193 -40.5746 -215.099 74.9683 -116.395 215.549C-95.463 241.219 -105.359 242.942 -127.639 223.991C-149.918 205.04 -173.597 160.764 -182.923 107.185C-182.249 139.057 -178.26 170.584 -165.877 196.886C-178.985 176.901 -184.633 160.247 -188.104 122.46C-191.576 84.6735 -181.11 29.8308 -180.073 -12.78C-178.415 0.600464 -178.467 8.92737 -178.933 20.6999C-155.307 -69.4604 -201.265 -85.0231 -246.29 -66.0722ZM-190.902 -118.446C-199.14 -116.665 -215.41 -110.578 -221.524 -105.065C-211.316 -109.544 -201.109 -113.966 -190.902 -118.446ZM-83.9087 -119.364C-76.2923 -111.325 -78.6756 -97.8293 -82.9243 -86.6885C-82.3544 -87.6073 -81.7326 -88.5836 -81.059 -89.5598C-74.0125 -100.816 -76.3441 -112.358 -83.9087 -119.364ZM-84.4269 -112.243C-83.8051 -102.825 -84.7377 -94.556 -87.4838 -85.0805C-80.4373 -96.6808 -79.3492 -106.328 -84.4269 -112.243ZM-133.183 -128.151C-124.944 -128.151 -116.758 -128.151 -108.52 -128.151C-115.515 -128.897 -126.084 -128.897 -133.183 -128.151ZM-86.2921 -109.774C-94.4267 -131.08 -127.172 -127.06 -144.737 -124.016C-125.463 -124.073 -99.4526 -129.127 -86.2921 -109.774ZM-89.2973 -86.0568C-94.8931 -73.1932 -106.395 -65.7851 -113.028 -53.9551C-105.877 -54.4145 -90.0744 -77.1556 -89.2973 -86.0568ZM135.208 11.3393C124.845 -1.00749 124.327 -3.24715 129.767 -11.2869C119.094 -5.42937 128.057 6.74515 135.208 11.3393ZM112.151 -121.432C124.068 -122.121 136.14 -118.56 148.005 -115.517V-116.034C136.347 -121.087 124.793 -126.256 112.151 -121.432ZM148.005 93.5172V86.626C134.897 82.2041 122.099 78.2417 109.198 76.5763C121.425 80.9407 134.741 90.8756 148.005 93.5172ZM-246.29 230.71C-225.565 253.566 -204.736 276.537 -182.612 296.349H-172.042C-198.052 271.656 -221.99 241.392 -246.29 218.651V230.71ZM-246.29 234.845V261.95C-231.368 270.162 -214.995 281.533 -197.12 296.349H-189.089C-208.881 282.394 -227.637 257.471 -246.29 234.845ZM148.005 17.5414V-16.0534C144.689 -13.9286 141.114 -11.8612 137.28 -9.85124C133.964 0.715317 139.249 10.6502 148.005 17.5414ZM122.203 -11.3443C110.234 -4.8551 118.99 1.74901 124.638 8.7551C119.716 -1.92632 114.275 -3.01744 122.203 -11.3443ZM91.8403 -89.9618C118.472 -98.1739 130.855 -90.3064 148.005 -80.5438V-81.922C130.389 -91.4549 121.581 -101.619 91.8403 -89.9618ZM148.005 -37.4162V-37.4736C147.798 -37.3587 147.591 -37.2439 147.384 -37.129C147.591 -37.2439 147.798 -37.3587 148.005 -37.4162ZM144.586 296.349C145.726 295.66 146.865 295.028 148.005 294.339V291.181C145.726 292.961 143.394 294.626 141.062 296.349H144.586ZM-245.616 -140.67C-245.772 -140.612 -245.927 -140.555 -246.031 -140.498C-245.876 -140.555 -245.72 -140.612 -245.565 -140.67H-245.616ZM-246.29 -140.44C-246.186 -140.44 -246.135 -140.498 -246.031 -140.498C-246.135 -140.498 -246.186 -140.44 -246.29 -140.44ZM-229.088 -140.67C-235.513 -137.856 -241.264 -135.616 -246.29 -133.893V-115.402C-224.218 -125.279 -201.524 -133.664 -179.762 -140.67H-229.088ZM-87.5874 296.349H-78.8829C-91.1107 291.41 -123.701 271.139 -127.794 268.612C-112.406 280.729 -98.3127 290.204 -87.5874 296.349ZM-246.29 -39.139V-48.9016C-134.633 -80.4864 -241.627 143.996 -155.721 244.837C-234.891 189.535 -201.213 70.0871 -208.933 -11.5166C-211.472 -38.4499 -227.637 -41.2063 -246.29 -39.139ZM-216.757 -42.4697C-190.332 -10.3107 -207.69 56.8789 -206.083 105.175C-206.239 70.5465 -172.716 -31.5586 -216.757 -42.4697ZM62.307 296.349C90.545 288.195 117.28 275.216 140.233 257.127C142.876 254.255 145.467 251.441 147.954 248.742V237.831C111.426 262.984 73.654 284.347 36.2451 296.349H62.307ZM-152.768 248.111C-146.706 254.657 -139.452 260.457 -130.747 265.339L-152.768 248.111ZM78.5762 86.7409C47.7476 62.8513 124.586 107.931 148.005 110.918V100.868C110.597 89.2102 14.0693 55.96 78.5762 86.7409ZM-206.135 189.707C-199.659 207.337 -192.923 234.902 -151.991 259.022C-183.597 230.308 -194.477 211.932 -206.135 189.707ZM-233.855 124.643C-232.301 148.762 -220.643 165.014 -210.021 179.198C-236.342 92.3687 -183.804 -33.1666 -246.29 -34.4874V-26.7922C-241.264 -27.5962 -240.591 -33.8557 -231.005 -28.6298C-206.757 -13.8137 -215.513 31.4387 -221.316 53.4907C-222.663 32.7596 -212.508 2.95496 -230.228 -11.2295C-247.326 -17.3742 -227.067 12.7175 -230.384 21.9633C-234.01 9.6165 -239.503 1.57672 -246.29 -3.13229V11.2244C-227.119 31.3813 -231.679 87.6023 -231.005 111.722C-238.777 94.5509 -241.834 74.7961 -246.29 55.96V146.809C-234.891 169.723 -225.409 194.359 -218.311 213.023C-227.845 199.757 -236.912 183.563 -246.29 167.655V195.737C-222.197 221.35 -197.69 255.002 -171.11 277.341C-184.633 268.325 -197.534 257.988 -209.658 246.33C-193.078 263.444 -174.685 277.628 -155.1 289.113C-152.353 290.836 -149.607 292.387 -146.809 293.765C-145.203 294.626 -143.649 295.43 -142.043 296.292H-91.2143C-199.14 268.784 -237.482 156.227 -233.855 124.643ZM134.586 296.349C139.145 293.937 143.653 291.353 148.005 288.597V257.988C123.291 274.986 99.4568 287.563 76.5555 296.349H134.586ZM107.488 117.349C122.669 126.251 135.57 133.257 148.005 133.084V118.441C146.71 118.383 142.979 117.349 135.985 114.995C162.565 142.962 125.933 127.916 107.488 117.349ZM-246.29 296.349H-213.337C-224.425 289.286 -235.513 282.107 -246.29 275.79V296.349ZM-66.4996 55.6155C-66.4996 55.558 -66.4478 55.5006 -66.4478 55.4432C-66.4478 55.5006 -66.4478 55.558 -66.4996 55.6155ZM-65.8779 54.2372C-66.0851 54.6392 -66.2406 55.0412 -66.4478 55.4432C-66.2406 55.0412 -66.0851 54.6392 -65.8779 54.2372ZM-65.6706 53.8352C-65.7224 53.9501 -65.7743 54.0075 -65.8261 54.1224C-65.7743 54.0075 -65.7224 53.9501 -65.6706 53.8352ZM-65.8261 54.1224C-65.8261 54.1798 -65.8779 54.1798 -65.8779 54.2372C-65.8779 54.1798 -65.8261 54.1798 -65.8261 54.1224ZM-61.8365 57.4531C-93.4423 91.9093 -78.9347 175.753 -68.9866 148.303C-49.5568 94.8381 -3.80615 46.542 53.7061 74.1069C24.1728 55.1561 78.5244 66.986 111.581 73.3604C75.2084 64.1147 37.4369 51.5381 1.47876 63.9424C12.7221 58.1997 19.3542 55.7878 31.9447 55.7303C2.4632 52.3996 -21.8888 59.7502 -47.018 80.9982C-72.1472 102.246 -35.9301 31.611 -41.1114 28.1654C-45.9299 24.9495 -59.2458 40.1102 -65.6706 53.8352C-57.3288 36.32 -45.7227 39.8805 -61.8365 57.4531ZM-67.0178 56.8789C-66.8623 56.4194 -66.6551 56.0174 -66.4996 55.6155C-66.6551 56.0174 -66.8623 56.4769 -67.0178 56.8789ZM42.8254 55.7303C74.2757 59.2908 93.3429 68.5939 123.653 72.3841C92.7729 65.2058 72.8768 55.5006 42.8254 55.7303ZM107.488 117.349C106.659 116.89 105.882 116.373 105.053 115.914C105.778 116.431 106.607 116.89 107.488 117.349ZM-195.513 -132.285C-190.695 -134.238 -185.876 -136.19 -181.058 -138.143C-186.705 -140.21 -191.161 -135.157 -195.513 -132.285ZM-160.177 -140.67H-168.726C-203.648 -124.533 -272.145 -95.7045 -160.177 -140.67ZM-21.9924 269.071C1.84145 281.188 -22.4069 284.347 -35.6192 283.945C-15.7749 287.333 7.3336 279.064 -21.9924 269.071ZM3.55128 275.216C18.6288 286.931 -1.68182 288.08 -11.1118 289.228C-0.645569 288.482 28.6805 286.874 3.55128 275.216ZM31.8929 274.527C65.1049 290.09 30.2867 292.904 11.7377 296.349H18.5252C39.9757 293.708 71.996 285.553 31.8929 274.527ZM148.005 78.414V76.2317C142.513 76.1743 136.917 75.7723 131.218 75.0832C136.917 76.3466 142.513 77.4951 148.005 78.414ZM-81.5253 182.644C-74.7897 195.278 -61.8365 205.04 -56.1371 206.189C-63.3909 202.169 -73.7534 192.981 -81.5253 182.644ZM-22.4588 221.12C-88.1574 146.58 -25.5675 78.7011 18.9915 70.0871C-11.5781 71.2356 -75.3078 122.92 -59.764 172.881C-70.6447 171.56 -83.0797 151.633 -86.4994 131.821C-84.116 161.396 -65.4634 192.981 -22.4588 221.12ZM-61.8365 193.555C-82.5616 172.881 -91.6806 141.641 -91.7843 120.967C-94.0122 142.502 -89.2973 170.584 -61.8365 193.555ZM148.005 82.0318V80.4813C144.223 80.0793 140.389 79.5625 136.503 78.8734C140.648 79.9071 144.482 80.9407 148.005 82.0318ZM148.005 -110.98V-99.5521C134.741 -104.835 134.016 -110.808 100.545 -105.008C67.0738 -99.2076 -26.3447 -45.8579 -46.6553 -4.6254C-12.6143 -50.5095 122.721 -124.475 148.005 -70.7812V-44.1351C113.861 -19.5564 10.5978 -9.21954 21.6858 12.3156C26.608 19.3216 41.7891 26.5 56.2967 15.5889C27.7997 8.69766 78.8353 -11.8612 86.6072 -15.4791C23.0847 16.5077 77.5399 10.9947 105.622 14.6701C133.705 18.3454 136.14 25.1792 148.005 30.1179V31.5536C122.565 23.9158 118.472 15.0721 69.768 17.082C124.69 20.7573 99.3013 40.2825 148.005 41.6033V67.3306C95.6744 67.8474 80.6487 51.0787 41.6855 51.0787C2.72226 51.0787 -20.5935 54.5244 -36.2928 65.0909C-63.909 85.0181 -24.0131 20.6999 -20.2826 11.167C4.01759 -47.6956 -84.4268 50.2748 -91.7843 120.967C-92.0433 60.4967 -43.702 -15.4791 12.2558 -18.9247C29.8722 -20.0732 -76.8622 75.2555 -23.495 57.4531C-67.0178 54.5818 78.5762 -30.9844 34.5871 -30.1804C-40.4896 -28.8021 -74.6861 34.9418 -95.6702 92.2539C-102.976 1.00246 65.1049 -126.772 148.005 -110.98ZM58.0065 19.5513C62.7733 22.8821 72.7213 21.4464 80.286 22.193C72.8768 20.7573 65.5712 17.5414 58.0065 19.5513ZM15.1055 48.3797C-1.37094 47.1737 -36.4482 59.1759 -10.0237 31.611C-42.1476 61.473 -3.39165 50.6193 15.1055 48.3797Z" fill="url(#paint1_linear_733_1135)"/>
<rect x="-246.29" y="-140.67" width="394.295" height="437.019" fill="#CCCCCC"/>
</g>
<path d="M118.66 36.0756C118.956 37.7018 120.043 38.9953 121.238 39.9881C123.748 42.0736 125.443 46.0374 125.443 50.5841C125.443 55.8038 123.209 60.2552 120.073 61.9785C118.606 62.7844 117.143 63.8993 116.556 65.5979C114.436 71.728 111.312 77.0193 107.492 81.0307L125.996 91.3719C137.267 97.6709 144.381 124.54 144.381 124.54C144.381 124.54 129.873 133.258 90.2367 133.258C50.5999 133.258 36.0923 124.54 36.0923 124.54C36.0923 124.54 43.2065 97.6709 54.4775 91.3719L72.6654 81.2074C68.7679 77.1752 65.5828 71.8184 63.432 65.5979C62.8447 63.8993 61.3813 62.7844 59.9148 61.9785C56.7786 60.2552 54.5451 55.8038 54.5451 50.5841C54.5451 46.0374 56.2398 42.0736 58.7496 39.9881C59.9443 38.9953 61.0316 37.7018 61.3275 36.0756C61.3403 36.0054 61.3532 35.9352 61.3662 35.8651C61.5095 35.0942 61.4779 34.2963 61.2733 33.5427C59.2885 26.2314 58.4703 17.4538 62.8003 12.4897C65.2393 9.69346 67.779 8.58186 70.1413 8.4464C71.3834 8.37518 72.6151 7.9482 73.5571 7.04451C77.451 3.30882 82.9342 0.602051 90.4795 0.602051C107.304 0.602051 117.449 17.1188 121.218 27.3231C121.699 28.6233 120.967 30.0427 119.733 30.3431C118.513 30.64 117.789 32.037 118.102 33.3822C118.308 34.2674 118.495 35.1655 118.66 36.0756Z" fill="url(#paint2_linear_733_1135)"/>
<path d="M118.66 36.0756C118.956 37.7018 120.043 38.9953 121.238 39.9881C123.748 42.0736 125.443 46.0374 125.443 50.5841C125.443 55.8038 123.209 60.2552 120.073 61.9785C118.606 62.7844 117.143 63.8993 116.556 65.5979C114.436 71.728 111.312 77.0193 107.492 81.0307L125.996 91.3719C137.267 97.6709 144.381 124.54 144.381 124.54C144.381 124.54 129.873 133.258 90.2367 133.258C50.5999 133.258 36.0923 124.54 36.0923 124.54C36.0923 124.54 43.2065 97.6709 54.4775 91.3719L72.6654 81.2074C68.7679 77.1752 65.5828 71.8184 63.432 65.5979C62.8447 63.8993 61.3813 62.7844 59.9148 61.9785C56.7786 60.2552 54.5451 55.8038 54.5451 50.5841C54.5451 46.0374 56.2398 42.0736 58.7496 39.9881C59.9443 38.9953 61.0316 37.7018 61.3275 36.0756C61.3403 36.0054 61.3532 35.9352 61.3662 35.8651C61.5095 35.0942 61.4779 34.2963 61.2733 33.5427C59.2885 26.2314 58.4703 17.4538 62.8003 12.4897C65.2393 9.69346 67.779 8.58186 70.1413 8.4464C71.3834 8.37518 72.6151 7.9482 73.5571 7.04451C77.451 3.30882 82.9342 0.602051 90.4795 0.602051C107.304 0.602051 117.449 17.1188 121.218 27.3231C121.699 28.6233 120.967 30.0427 119.733 30.3431C118.513 30.64 117.789 32.037 118.102 33.3822C118.308 34.2674 118.495 35.1655 118.66 36.0756Z" fill="url(#paint3_radial_733_1135)"/>
</g>
</g>
<g filter="url(#filter3_ddddd_733_1135)">
<g filter="url(#filter4_bdiii_733_1135)">
<path d="M139.62 42.5839C139.853 43.867 140.712 44.8877 141.655 45.671C143.636 47.3167 144.974 50.4443 144.974 54.032C144.974 58.1506 143.211 61.6631 140.735 63.0229C139.577 63.6588 138.422 64.5385 137.958 65.8788C136.285 70.7158 133.819 74.891 130.803 78.0563L145.411 86.2161C150.617 89.1242 154.7 97.5889 157.192 104.112C159.036 108.939 156.758 114.055 151.778 115.432C145.123 117.273 134.027 119.267 117.18 119.267C100.333 119.267 89.2368 117.273 82.5818 115.432C77.6019 114.055 75.3247 108.939 77.1683 104.112C79.6601 97.5889 83.7429 89.1242 88.9492 86.2161L103.308 78.1957C100.231 75.014 97.7166 70.7872 96.0186 65.8788C95.5549 64.5385 94.3996 63.6588 93.2418 63.0229C90.7658 61.6631 89.0026 58.1506 89.0026 54.032C89.0026 50.4443 90.3405 47.3167 92.3219 45.671C93.2651 44.8877 94.1235 43.8671 94.3571 42.5839C94.3672 42.5285 94.3774 42.4731 94.3877 42.4178C94.5008 41.8095 94.4758 41.1799 94.3143 40.5853C92.7474 34.8162 92.1014 27.8901 95.5198 23.9731C97.4453 21.7667 99.4504 20.8896 101.315 20.7827C102.296 20.7265 103.268 20.3896 104.012 19.6765C107.086 16.7288 111.415 14.593 117.372 14.593C130.654 14.593 138.664 27.6258 141.639 35.6776C142.019 36.7035 141.441 37.8235 140.467 38.0605C139.504 38.2949 138.932 39.3971 139.179 40.4586C139.342 41.1571 139.489 41.8658 139.62 42.5839Z" fill="url(#paint4_linear_733_1135)" shape-rendering="crispEdges"/>
</g>
</g>
</g>
<defs>
<filter id="filter0_ddddd_733_1135" x="0.464918" y="14.5928" width="127.724" height="151.104" filterUnits="userSpaceOnUse" color-interpolation-filters="sRGB">
<feFlood flood-opacity="0" result="BackgroundImageFix"/>
<feColorMatrix in="SourceAlpha" type="matrix" values="0 0 0 0 0 0 0 0 0 0 0 0 0 0 0 0 0 0 127 0" result="hardAlpha"/>
<feOffset dy="0.967282"/>
<feGaussianBlur stdDeviation="0.483641"/>
<feColorMatrix type="matrix" values="0 0 0 0 0 0 0 0 0 0 0 0 0 0 0 0 0 0 0.1 0"/>
<feBlend mode="normal" in2="BackgroundImageFix" result="effect1_dropShadow_733_1135"/>
<feColorMatrix in="SourceAlpha" type="matrix" values="0 0 0 0 0 0 0 0 0 0 0 0 0 0 0 0 0 0 127 0" result="hardAlpha"/>
<feOffset dy="1.93456"/>
<feGaussianBlur stdDeviation="0.967282"/>
<feColorMatrix type="matrix" values="0 0 0 0 0 0 0 0 0 0 0 0 0 0 0 0 0 0 0.1 0"/>
<feBlend mode="normal" in2="effect1_dropShadow_733_1135" result="effect2_dropShadow_733_1135"/>
<feColorMatrix in="SourceAlpha" type="matrix" values="0 0 0 0 0 0 0 0 0 0 0 0 0 0 0 0 0 0 127 0" result="hardAlpha"/>
<feOffset dy="3.86913"/>
<feGaussianBlur stdDeviation="1.93456"/>
<feColorMatrix type="matrix" values="0 0 0 0 0 0 0 0 0 0 0 0 0 0 0 0 0 0 0.1 0"/>
<feBlend mode="normal" in2="effect2_dropShadow_733_1135" result="effect3_dropShadow_733_1135"/>
<feColorMatrix in="SourceAlpha" type="matrix" values="0 0 0 0 0 0 0 0 0 0 0 0 0 0 0 0 0 0 127 0" result="hardAlpha"/>
<feOffset dy="7.73826"/>
<feGaussianBlur stdDeviation="3.86913"/>
<feColorMatrix type="matrix" values="0 0 0 0 0 0 0 0 0 0 0 0 0 0 0 0 0 0 0.1 0"/>
<feBlend mode="normal" in2="effect3_dropShadow_733_1135" result="effect4_dropShadow_733_1135"/>
<feColorMatrix in="SourceAlpha" type="matrix" values="0 0 0 0 0 0 0 0 0 0 0 0 0 0 0 0 0 0 127 0" result="hardAlpha"/>
<feOffset dy="23.2148"/>
<feGaussianBlur stdDeviation="11.6074"/>
<feColorMatrix type="matrix" values="0 0 0 0 0 0 0 0 0 0 0 0 0 0 0 0 0 0 0.1 0"/>
<feBlend mode="normal" in2="effect4_dropShadow_733_1135" result="effect5_dropShadow_733_1135"/>
<feBlend mode="normal" in="SourceGraphic" in2="effect5_dropShadow_733_1135" result="shape"/>
</filter>
<filter id="filter1_biii_733_1135" x="18.8433" y="9.75636" width="90.9677" height="114.347" filterUnits="userSpaceOnUse" color-interpolation-filters="sRGB">
<feFlood flood-opacity="0" result="BackgroundImageFix"/>
<feGaussianBlur in="BackgroundImageFix" stdDeviation="2.41821"/>
<feComposite in2="SourceAlpha" operator="in" result="effect1_backgroundBlur_733_1135"/>
<feBlend mode="normal" in="SourceGraphic" in2="effect1_backgroundBlur_733_1135" result="shape"/>
<feColorMatrix in="SourceAlpha" type="matrix" values="0 0 0 0 0 0 0 0 0 0 0 0 0 0 0 0 0 0 127 0" result="hardAlpha"/>
<feOffset dy="-1.93456"/>
<feGaussianBlur stdDeviation="0.241821"/>
<feComposite in2="hardAlpha" operator="arithmetic" k2="-1" k3="1"/>
<feColorMatrix type="matrix" values="0 0 0 0 0.920833 0 0 0 0 0.920833 0 0 0 0 0.920833 0 0 0 0.1 0"/>
<feBlend mode="normal" in2="shape" result="effect2_innerShadow_733_1135"/>
<feColorMatrix in="SourceAlpha" type="matrix" values="0 0 0 0 0 0 0 0 0 0 0 0 0 0 0 0 0 0 127 0" result="hardAlpha"/>
<feOffset dx="-0.483641"/>
<feGaussianBlur stdDeviation="0.241821"/>
<feComposite in2="hardAlpha" operator="arithmetic" k2="-1" k3="1"/>
<feColorMatrix type="matrix" values="0 0 0 0 0.920833 0 0 0 0 0.920833 0 0 0 0 0.920833 0 0 0 0.1 0"/>
<feBlend mode="normal" in2="effect2_innerShadow_733_1135" result="effect3_innerShadow_733_1135"/>
<feColorMatrix in="SourceAlpha" type="matrix" values="0 0 0 0 0 0 0 0 0 0 0 0 0 0 0 0 0 0 127 0" result="hardAlpha"/>
<feOffset dx="0.483641"/>
<feGaussianBlur stdDeviation="0.241821"/>
<feComposite in2="hardAlpha" operator="arithmetic" k2="-1" k3="1"/>
<feColorMatrix type="matrix" values="0 0 0 0 0.920833 0 0 0 0 0.920833 0 0 0 0 0.920833 0 0 0 0.1 0"/>
<feBlend mode="normal" in2="effect3_innerShadow_733_1135" result="effect4_innerShadow_733_1135"/>
</filter>
<filter id="filter2_ddddiii_733_1135" x="14.94" y="0.11841" width="150.594" height="179.569" filterUnits="userSpaceOnUse" color-interpolation-filters="sRGB">
<feFlood flood-opacity="0" result="BackgroundImageFix"/>
<feColorMatrix in="SourceAlpha" type="matrix" values="0 0 0 0 0 0 0 0 0 0 0 0 0 0 0 0 0 0 127 0" result="hardAlpha"/>
<feOffset dy="1.93456"/>
<feGaussianBlur stdDeviation="0.967282"/>
<feColorMatrix type="matrix" values="0 0 0 0 0 0 0 0 0 0 0 0 0 0 0 0 0 0 0.1 0"/>
<feBlend mode="normal" in2="BackgroundImageFix" result="effect1_dropShadow_733_1135"/>
<feColorMatrix in="SourceAlpha" type="matrix" values="0 0 0 0 0 0 0 0 0 0 0 0 0 0 0 0 0 0 127 0" result="hardAlpha"/>
<feOffset dy="3.86913"/>
<feGaussianBlur stdDeviation="1.93456"/>
<feColorMatrix type="matrix" values="0 0 0 0 0 0 0 0 0 0 0 0 0 0 0 0 0 0 0.1 0"/>
<feBlend mode="normal" in2="effect1_dropShadow_733_1135" result="effect2_dropShadow_733_1135"/>
<feColorMatrix in="SourceAlpha" type="matrix" values="0 0 0 0 0 0 0 0 0 0 0 0 0 0 0 0 0 0 127 0" result="hardAlpha"/>
<feOffset dy="7.73826"/>
<feGaussianBlur stdDeviation="3.86913"/>
<feColorMatrix type="matrix" values="0 0 0 0 0 0 0 0 0 0 0 0 0 0 0 0 0 0 0.1 0"/>
<feBlend mode="normal" in2="effect2_dropShadow_733_1135" result="effect3_dropShadow_733_1135"/>
<feColorMatrix in="SourceAlpha" type="matrix" values="0 0 0 0 0 0 0 0 0 0 0 0 0 0 0 0 0 0 127 0" result="hardAlpha"/>
<feOffset dy="23.2148"/>
<feGaussianBlur stdDeviation="11.6074"/>
<feColorMatrix type="matrix" values="0 0 0 0 0 0 0 0 0 0 0 0 0 0 0 0 0 0 0.1 0"/>
<feBlend mode="normal" in2="effect3_dropShadow_733_1135" result="effect4_dropShadow_733_1135"/>
<feBlend mode="normal" in="SourceGraphic" in2="effect4_dropShadow_733_1135" result="shape"/>
<feColorMatrix in="SourceAlpha" type="matrix" values="0 0 0 0 0 0 0 0 0 0 0 0 0 0 0 0 0 0 127 0" result="hardAlpha"/>
<feOffset dy="-1.93456"/>
<feGaussianBlur stdDeviation="0.241821"/>
<feComposite in2="hardAlpha" operator="arithmetic" k2="-1" k3="1"/>
<feColorMatrix type="matrix" values="0 0 0 0 0 0 0 0 0 0 0 0 0 0 0 0 0 0 0.4 0"/>
<feBlend mode="normal" in2="shape" result="effect5_innerShadow_733_1135"/>
<feColorMatrix in="SourceAlpha" type="matrix" values="0 0 0 0 0 0 0 0 0 0 0 0 0 0 0 0 0 0 127 0" result="hardAlpha"/>
<feOffset dx="-0.483641"/>
<feGaussianBlur stdDeviation="0.241821"/>
<feComposite in2="hardAlpha" operator="arithmetic" k2="-1" k3="1"/>
<feColorMatrix type="matrix" values="0 0 0 0 1 0 0 0 0 1 0 0 0 0 1 0 0 0 0.3 0"/>
<feBlend mode="normal" in2="effect5_innerShadow_733_1135" result="effect6_innerShadow_733_1135"/>
<feColorMatrix in="SourceAlpha" type="matrix" values="0 0 0 0 0 0 0 0 0 0 0 0 0 0 0 0 0 0 127 0" result="hardAlpha"/>
<feOffset dx="0.483641"/>
<feGaussianBlur stdDeviation="0.241821"/>
<feComposite in2="hardAlpha" operator="arithmetic" k2="-1" k3="1"/>
<feColorMatrix type="matrix" values="0 0 0 0 1 0 0 0 0 1 0 0 0 0 1 0 0 0 0.3 0"/>
<feBlend mode="normal" in2="effect6_innerShadow_733_1135" result="effect7_innerShadow_733_1135"/>
</filter>
<filter id="filter3_ddddd_733_1135" x="53.3179" y="14.593" width="127.724" height="151.104" filterUnits="userSpaceOnUse" color-interpolation-filters="sRGB">
<feFlood flood-opacity="0" result="BackgroundImageFix"/>
<feColorMatrix in="SourceAlpha" type="matrix" values="0 0 0 0 0 0 0 0 0 0 0 0 0 0 0 0 0 0 127 0" result="hardAlpha"/>
<feOffset dy="0.967282"/>
<feGaussianBlur stdDeviation="0.483641"/>
<feColorMatrix type="matrix" values="0 0 0 0 0 0 0 0 0 0 0 0 0 0 0 0 0 0 0.1 0"/>
<feBlend mode="normal" in2="BackgroundImageFix" result="effect1_dropShadow_733_1135"/>
<feColorMatrix in="SourceAlpha" type="matrix" values="0 0 0 0 0 0 0 0 0 0 0 0 0 0 0 0 0 0 127 0" result="hardAlpha"/>
<feOffset dy="1.93456"/>
<feGaussianBlur stdDeviation="0.967282"/>
<feColorMatrix type="matrix" values="0 0 0 0 0 0 0 0 0 0 0 0 0 0 0 0 0 0 0.1 0"/>
<feBlend mode="normal" in2="effect1_dropShadow_733_1135" result="effect2_dropShadow_733_1135"/>
<feColorMatrix in="SourceAlpha" type="matrix" values="0 0 0 0 0 0 0 0 0 0 0 0 0 0 0 0 0 0 127 0" result="hardAlpha"/>
<feOffset dy="3.86913"/>
<feGaussianBlur stdDeviation="1.93456"/>
<feColorMatrix type="matrix" values="0 0 0 0 0 0 0 0 0 0 0 0 0 0 0 0 0 0 0.1 0"/>
<feBlend mode="normal" in2="effect2_dropShadow_733_1135" result="effect3_dropShadow_733_1135"/>
<feColorMatrix in="SourceAlpha" type="matrix" values="0 0 0 0 0 0 0 0 0 0 0 0 0 0 0 0 0 0 127 0" result="hardAlpha"/>
<feOffset dy="7.73826"/>
<feGaussianBlur stdDeviation="3.86913"/>
<feColorMatrix type="matrix" values="0 0 0 0 0 0 0 0 0 0 0 0 0 0 0 0 0 0 0.1 0"/>
<feBlend mode="normal" in2="effect3_dropShadow_733_1135" result="effect4_dropShadow_733_1135"/>
<feColorMatrix in="SourceAlpha" type="matrix" values="0 0 0 0 0 0 0 0 0 0 0 0 0 0 0 0 0 0 127 0" result="hardAlpha"/>
<feOffset dy="23.2148"/>
<feGaussianBlur stdDeviation="11.6074"/>
<feColorMatrix type="matrix" values="0 0 0 0 0 0 0 0 0 0 0 0 0 0 0 0 0 0 0.1 0"/>
<feBlend mode="normal" in2="effect4_dropShadow_733_1135" result="effect5_dropShadow_733_1135"/>
<feBlend mode="normal" in="SourceGraphic" in2="effect5_dropShadow_733_1135" result="shape"/>
</filter>
<filter id="filter4_bdiii_733_1135" x="65.5327" y="5.59302" width="97.1313" height="118.51" filterUnits="userSpaceOnUse" color-interpolation-filters="sRGB">
<feFlood flood-opacity="0" result="BackgroundImageFix"/>
<feGaussianBlur in="BackgroundImageFix" stdDeviation="2.41821"/>
<feComposite in2="SourceAlpha" operator="in" result="effect1_backgroundBlur_733_1135"/>
<feColorMatrix in="SourceAlpha" type="matrix" values="0 0 0 0 0 0 0 0 0 0 0 0 0 0 0 0 0 0 127 0" result="hardAlpha"/>
<feOffset dx="-5" dy="-3"/>
<feGaussianBlur stdDeviation="3"/>
<feComposite in2="hardAlpha" operator="out"/>
<feColorMatrix type="matrix" values="0 0 0 0 0 0 0 0 0 0 0 0 0 0 0 0 0 0 0.6 0"/>
<feBlend mode="normal" in2="effect1_backgroundBlur_733_1135" result="effect2_dropShadow_733_1135"/>
<feBlend mode="normal" in="SourceGraphic" in2="effect2_dropShadow_733_1135" result="shape"/>
<feColorMatrix in="SourceAlpha" type="matrix" values="0 0 0 0 0 0 0 0 0 0 0 0 0 0 0 0 0 0 127 0" result="hardAlpha"/>
<feOffset dy="-1.93456"/>
<feGaussianBlur stdDeviation="0.241821"/>
<feComposite in2="hardAlpha" operator="arithmetic" k2="-1" k3="1"/>
<feColorMatrix type="matrix" values="0 0 0 0 0.920833 0 0 0 0 0.920833 0 0 0 0 0.920833 0 0 0 0.1 0"/>
<feBlend mode="normal" in2="shape" result="effect3_innerShadow_733_1135"/>
<feColorMatrix in="SourceAlpha" type="matrix" values="0 0 0 0 0 0 0 0 0 0 0 0 0 0 0 0 0 0 127 0" result="hardAlpha"/>
<feOffset dx="-0.483641"/>
<feGaussianBlur stdDeviation="0.241821"/>
<feComposite in2="hardAlpha" operator="arithmetic" k2="-1" k3="1"/>
<feColorMatrix type="matrix" values="0 0 0 0 0.920833 0 0 0 0 0.920833 0 0 0 0 0.920833 0 0 0 0.1 0"/>
<feBlend mode="normal" in2="effect3_innerShadow_733_1135" result="effect4_innerShadow_733_1135"/>
<feColorMatrix in="SourceAlpha" type="matrix" values="0 0 0 0 0 0 0 0 0 0 0 0 0 0 0 0 0 0 127 0" result="hardAlpha"/>
<feOffset dx="0.483641"/>
<feGaussianBlur stdDeviation="0.241821"/>
<feComposite in2="hardAlpha" operator="arithmetic" k2="-1" k3="1"/>
<feColorMatrix type="matrix" values="0 0 0 0 0.920833 0 0 0 0 0.920833 0 0 0 0 0.920833 0 0 0 0.1 0"/>
<feBlend mode="normal" in2="effect4_innerShadow_733_1135" result="effect5_innerShadow_733_1135"/>
</filter>
<linearGradient id="paint0_linear_733_1135" x1="64.3271" y1="14.5928" x2="64.3271" y2="119.267" gradientUnits="userSpaceOnUse">
<stop stop-color="#636363" stop-opacity="0.19"/>
<stop offset="1" stop-opacity="0.2"/>
</linearGradient>
<linearGradient id="paint1_linear_733_1135" x1="-49.1423" y1="-140.67" x2="-49.1423" y2="296.349" gradientUnits="userSpaceOnUse">
<stop stop-color="white" stop-opacity="0.48"/>
<stop offset="1" stop-color="white" stop-opacity="0"/>
</linearGradient>
<linearGradient id="paint2_linear_733_1135" x1="90.2414" y1="-0.0321146" x2="90.2414" y2="132.218" gradientUnits="userSpaceOnUse">
<stop stop-color="white" stop-opacity="0.4"/>
<stop offset="0.833333" stop-color="white" stop-opacity="0"/>
<stop offset="1" stop-color="white" stop-opacity="0.3"/>
</linearGradient>
<radialGradient id="paint3_radial_733_1135" cx="0" cy="0" r="1" gradientUnits="userSpaceOnUse" gradientTransform="translate(36.0923 18.0178) scale(83.0376 157.879)">
<stop stop-color="white" stop-opacity="0.7"/>
<stop offset="1" stop-color="white" stop-opacity="0"/>
</radialGradient>
<linearGradient id="paint4_linear_733_1135" x1="117.18" y1="14.593" x2="117.18" y2="119.267" gradientUnits="userSpaceOnUse">
<stop stop-color="white" stop-opacity="0.8"/>
<stop offset="1" stop-color="white"/>
</linearGradient>
<clipPath id="clip0_733_1135">
<rect width="394.295" height="437.019" fill="white" transform="translate(-246.29 -140.67)"/>
</clipPath>
</defs>
</svg>
