<svg xmlns="http://www.w3.org/2000/svg" width="59" height="66" fill="none"><path fill="url(#a)" stroke="url(#b)" stroke-width=".264" d="M55.133 65.868H13.172a3.735 3.735 0 0 1-3.735-3.735V3.867A3.735 3.735 0 0 1 13.172.132h29.23l16.466 16.359v45.642a3.735 3.735 0 0 1-3.735 3.735Z"/><path fill="#BDBDBD" d="M42.521 0 59 16.371H46.388a3.867 3.867 0 0 1-3.867-3.867z"/><path fill="#868686" d="M59 28.488 46.803 16.371H59zM9.305 35.45c0-1.069.865-1.934 1.933-1.934h37.524c1.068 0 1.934.865 1.934 1.933v20.754a1.934 1.934 0 0 1-1.934 1.934H9.305z"/><g filter="url(#c)"><rect width="49.696" height="24.621" x="1" y="30.938" fill="#CCC" rx="1.934"/><rect width="49.631" height="24.557" x="1.032" y="30.97" stroke="url(#d)" stroke-width=".064" rx="1.901"/></g><path fill="#191919" d="m6.706 45.451 2.746-.267q.248 1.383 1.001 2.032.763.648 2.05.648 1.365 0 2.05-.572.697-.582.697-1.354 0-.495-.296-.84-.286-.352-1.01-.61-.497-.171-2.26-.61-2.27-.562-3.186-1.383-1.287-1.154-1.287-2.813 0-1.068.6-1.993.612-.934 1.746-1.42 1.144-.487 2.756-.487 2.631 0 3.957 1.154 1.335 1.155 1.402 3.08l-2.823.124q-.18-1.077-.782-1.545-.59-.477-1.783-.477-1.23 0-1.926.506a1.02 1.02 0 0 0-.448.868q0 .495.42.848.533.449 2.593.935t3.042 1.01a3.84 3.84 0 0 1 1.545 1.421q.562.897.562 2.222 0 1.202-.667 2.25-.668 1.05-1.888 1.565-1.221.505-3.042.505-2.651 0-4.072-1.22-1.42-1.23-1.697-3.577M20.456 50V36.02h5.941q2.241 0 3.252.382 1.02.372 1.63 1.335t.61 2.203q0 1.573-.924 2.603-.926 1.02-2.766 1.287.916.534 1.507 1.173.6.64 1.611 2.27L33.024 50H29.65l-2.04-3.042q-1.089-1.63-1.489-2.05-.4-.429-.848-.582-.449-.162-1.421-.162h-.572V50zm2.823-8.067h2.088q2.031 0 2.537-.172t.791-.591.286-1.05q0-.705-.381-1.134-.372-.438-1.059-.553-.343-.048-2.06-.048H23.28zM37.706 50V38.385h-4.148v-2.364h11.11v2.364h-4.139V50z"/><defs><linearGradient id="a" x1="9.305" x2="72.734" y1="0" y2="47.76" gradientUnits="userSpaceOnUse"><stop offset="1" stop-color="#C5C5C5"/><stop stop-color="#7C7C7C"/></linearGradient><linearGradient id="b" x1="11.294" x2="56.605" y1="0" y2="66.277" gradientUnits="userSpaceOnUse"><stop stop-color="#fff"/><stop offset="1" stop-color="#747474"/></linearGradient><linearGradient id="d" x1="25.848" x2="40.497" y1="30.938" y2="55.643" gradientUnits="userSpaceOnUse"><stop stop-color="#F0F0F0"/><stop offset="1" stop-color="#7C7C7C"/></linearGradient><filter id="c" width="50.598" height="25.523" x=".613" y="30.551" color-interpolation-filters="sRGB" filterUnits="userSpaceOnUse"><feFlood flood-opacity="0" result="BackgroundImageFix"/><feColorMatrix in="SourceAlpha" result="hardAlpha" values="0 0 0 0 0 0 0 0 0 0 0 0 0 0 0 0 0 0 127 0"/><feOffset dx=".129" dy=".129"/><feGaussianBlur stdDeviation=".193"/><feColorMatrix values="0 0 0 0 0.682353 0 0 0 0 0.682353 0 0 0 0 0.682353 0 0 0 0.9 0"/><feBlend in2="BackgroundImageFix" result="effect1_dropShadow_7550_9481"/><feColorMatrix in="SourceAlpha" result="hardAlpha" values="0 0 0 0 0 0 0 0 0 0 0 0 0 0 0 0 0 0 127 0"/><feOffset dx="-.129" dy="-.129"/><feGaussianBlur stdDeviation=".129"/><feColorMatrix values="0 0 0 0 1 0 0 0 0 1 0 0 0 0 1 0 0 0 0.9 0"/><feBlend in2="effect1_dropShadow_7550_9481" result="effect2_dropShadow_7550_9481"/><feColorMatrix in="SourceAlpha" result="hardAlpha" values="0 0 0 0 0 0 0 0 0 0 0 0 0 0 0 0 0 0 127 0"/><feOffset dx=".129" dy="-.129"/><feGaussianBlur stdDeviation=".129"/><feColorMatrix values="0 0 0 0 0.682353 0 0 0 0 0.682353 0 0 0 0 0.682353 0 0 0 0.2 0"/><feBlend in2="effect2_dropShadow_7550_9481" result="effect3_dropShadow_7550_9481"/><feColorMatrix in="SourceAlpha" result="hardAlpha" values="0 0 0 0 0 0 0 0 0 0 0 0 0 0 0 0 0 0 127 0"/><feOffset dx="-.129" dy=".129"/><feGaussianBlur stdDeviation=".129"/><feColorMatrix values="0 0 0 0 0.682353 0 0 0 0 0.682353 0 0 0 0 0.682353 0 0 0 0.2 0"/><feBlend in2="effect3_dropShadow_7550_9481" result="effect4_dropShadow_7550_9481"/><feBlend in="SourceGraphic" in2="effect4_dropShadow_7550_9481" result="shape"/><feColorMatrix in="SourceAlpha" result="hardAlpha" values="0 0 0 0 0 0 0 0 0 0 0 0 0 0 0 0 0 0 127 0"/><feOffset dx="-.129" dy="-.129"/><feGaussianBlur stdDeviation=".129"/><feComposite in2="hardAlpha" k2="-1" k3="1" operator="arithmetic"/><feColorMatrix values="0 0 0 0 0.682353 0 0 0 0 0.682353 0 0 0 0 0.682353 0 0 0 0.5 0"/><feBlend in2="shape" result="effect5_innerShadow_7550_9481"/><feColorMatrix in="SourceAlpha" result="hardAlpha" values="0 0 0 0 0 0 0 0 0 0 0 0 0 0 0 0 0 0 127 0"/><feOffset dx=".129" dy=".129"/><feGaussianBlur stdDeviation=".129"/><feComposite in2="hardAlpha" k2="-1" k3="1" operator="arithmetic"/><feColorMatrix values="0 0 0 0 1 0 0 0 0 1 0 0 0 0 1 0 0 0 0.3 0"/><feBlend in2="effect5_innerShadow_7550_9481" result="effect6_innerShadow_7550_9481"/></filter></defs></svg>