<svg xmlns="http://www.w3.org/2000/svg" width="65" height="60" fill="none"><g clip-path="url(#a)"><path fill="#41A5EE" d="M62.022 0H18.006a2.75 2.75 0 0 0-2.75 2.749v12.246l25.508 7.497 24.009-7.497V2.749A2.75 2.75 0 0 0 62.023 0"/><path fill="#2B7CD3" d="M64.773 14.995H15.255V29.99l25.51 4.498 24.008-4.498z"/><path fill="#185ABD" d="M15.255 29.99v14.994l24.009 3 25.509-3V29.99z"/><path fill="#103F91" d="M18.006 59.979h44.016a2.75 2.75 0 0 0 2.75-2.749V44.984H15.256V57.23a2.75 2.75 0 0 0 2.75 2.749"/><path fill="#000" d="M33.512 11.996H15.255v37.486h18.257a2.76 2.76 0 0 0 2.75-2.748v-31.99a2.76 2.76 0 0 0-2.75-2.748" opacity=".1"/><path fill="#000" d="M32.012 13.495H15.255v37.487h16.757a2.76 2.76 0 0 0 2.75-2.749v-31.99a2.76 2.76 0 0 0-2.75-2.748" opacity=".2"/><path fill="#000" d="M32.012 13.495H15.255v34.488h16.757a2.76 2.76 0 0 0 2.75-2.749v-28.99a2.76 2.76 0 0 0-2.75-2.749" opacity=".2"/><path fill="#000" d="M30.511 13.495H15.255v34.488h15.256a2.76 2.76 0 0 0 2.75-2.749v-28.99a2.76 2.76 0 0 0-2.75-2.749" opacity=".2"/><path fill="url(#b)" d="M3 13.495h27.511a2.75 2.75 0 0 1 2.75 2.749v27.491a2.75 2.75 0 0 1-2.75 2.749H3.001A2.75 2.75 0 0 1 .25 43.735V16.244A2.75 2.75 0 0 1 3 13.495"/><path fill="#fff" d="M11.537 34.575q.082.635.106 1.11h.063q.036-.45.15-1.085.114-.634.206-1.072l2.893-12.472h3.74l3.002 12.285q.261 1.147.373 2.318h.05q.084-1.135.312-2.25l2.393-12.36h3.405l-4.204 17.874h-3.978l-2.851-11.837q-.125-.51-.28-1.333a16 16 0 0 1-.195-1.2h-.049q-.05.438-.194 1.296-.144.86-.23 1.272l-2.68 11.8H9.522L5.296 21.055h3.466l2.607 12.498q.087.386.168 1.02"/></g><defs><linearGradient id="b" x1="5.985" x2="27.504" y1="11.348" y2="48.644" gradientUnits="userSpaceOnUse"><stop stop-color="#2368C4"/><stop offset=".5" stop-color="#1A5DBE"/><stop offset="1" stop-color="#1146AC"/></linearGradient><clipPath id="a"><path fill="#fff" d="M.25 0h64.5v60H.25z"/></clipPath></defs></svg>